{"glyphs":{"0":{"ha":997,"x_min":-97,"x_max":1097,"o":"m 604 1061 q 679 1100 633 1093 q 765 1090 725 1107 q 833 1036 806 1074 q 857 954 860 999 q 818 1030 844 996 q 760 1078 792 1064 q 685 1086 728 1092 q 604 1061 642 1081 m 403 958 q 463 1024 421 997 q 549 1046 504 1050 q 629 1010 592 1043 q 678 936 667 978 q 617 991 653 972 q 546 1013 581 1010 q 472 1002 511 1015 q 403 958 433 989 m 171 844 q 185 921 167 882 q 236 976 203 960 q 312 987 269 994 q 381 954 354 979 q 313 965 347 968 q 251 947 278 961 q 202 908 225 933 q 171 844 179 882 m 699 928 q 764 945 726 944 q 826 926 801 946 q 860 869 851 906 q 857 801 868 832 q 841 859 857 835 q 806 900 825 883 q 758 925 786 915 q 699 928 731 935 m -25 563 q -83 655 -69 597 q -81 767 -97 713 q -19 859 -64 819 q 82 901 25 899 q -12 842 29 881 q -67 763 -54 804 q -68 665 -81 719 q -25 563 -56 610 m 113 758 q 98 786 104 768 q 99 815 92 804 q 124 828 106 826 q 157 828 143 831 q 138 817 143 826 q 128 797 133 807 q 115 780 122 789 q 113 758 108 771 m 869 783 q 947 742 911 776 q 989 667 982 708 q 976 581 997 625 q 917 515 954 538 q 953 588 944 549 q 957 661 963 628 q 929 728 951 694 q 869 783 907 761 m 78 551 q 31 601 50 567 q 17 667 11 635 q 51 726 22 700 q 113 758 79 751 q 69 714 83 740 q 50 663 54 688 q 51 606 46 636 q 78 551 57 576 m 424 703 q 433 697 429 700 q 439 719 435 710 q 442 692 439 706 q 472 657 458 678 q 488 614 485 636 q 535 585 507 596 q 594 579 563 574 q 540 565 571 565 q 483 576 508 564 q 449 530 474 550 q 399 504 425 510 q 438 547 425 521 q 454 599 451 574 l 454 600 q 435 643 440 618 q 432 693 429 668 q 424 703 428 699 m 593 342 q 537 385 561 354 q 513 450 513 417 q 539 515 514 483 q 596 557 564 546 q 558 506 569 535 q 546 450 547 476 q 556 393 546 422 q 593 342 567 364 m 82 338 q 31 374 54 347 q 6 432 7 401 q 28 490 6 461 q 78 529 50 518 q 47 483 56 508 q 39 432 39 457 q 49 383 40 408 q 82 338 58 357 m 917 493 q 974 442 951 478 q 994 368 997 406 q 963 298 992 331 q 897 256 933 265 q 944 309 928 278 q 961 371 960 340 q 953 433 964 400 q 917 493 943 467 m 421 276 q 433 310 424 293 q 411 296 422 301 q 439 342 432 317 q 443 392 446 368 q 432 440 442 415 q 399 482 422 464 q 451 449 426 474 q 476 394 475 424 q 465 347 479 371 q 492 358 478 356 q 546 348 518 364 q 588 308 574 332 q 542 328 567 325 q 497 326 518 331 q 456 311 476 322 q 421 276 435 300 m 1021 438 q 1080 362 1063 411 q 1088 265 1097 313 q 1041 179 1076 218 q 957 133 1006 140 q 1033 194 1000 157 q 1074 268 1065 231 q 1066 353 1081 307 q 1021 438 1051 399 m 208 92 q 126 105 168 86 q 65 158 85 124 q 52 240 46 194 q 85 315 58 285 q 75 240 71 278 q 94 175 79 203 q 139 124 110 147 q 208 92 168 100 m 890 235 q 905 158 908 201 q 876 86 901 114 q 808 51 850 58 q 731 57 765 43 q 799 71 768 56 q 851 108 831 86 q 883 164 871 131 q 890 235 896 197 m 464 8 q 399 -40 440 -24 q 319 -44 357 -56 q 256 4 282 -32 q 226 79 229 40 q 270 20 242 43 q 328 -12 299 -3 q 394 -17 358 -21 q 464 8 431 -14 m 710 47 q 676 -19 704 11 q 613 -57 649 -50 q 541 -43 578 -62 q 486 7 504 -24 q 547 -22 514 -15 q 607 -24 579 -29 q 663 -1 635 -18 q 710 47 692 17 m 468 -97 q 391 -149 440 -135 q 296 -149 342 -162 q 215 -99 250 -136 q 176 -12 181 -61 q 229 -91 196 -57 q 300 -136 263 -125 q 383 -135 336 -146 q 468 -97 429 -124 z "},"1":{"ha":774,"x_min":-79,"x_max":883,"o":"m 610 1056 q 704 1044 657 1067 q 778 981 751 1022 q 806 888 804 940 q 779 796 808 835 q 790 892 793 843 q 767 974 788 940 q 701 1028 744 1006 q 610 1056 657 1050 m 282 872 q 308 948 282 911 q 369 997 333 985 q 449 996 407 1010 q 517 951 492 982 q 447 974 483 972 q 381 967 410 976 q 324 932 351 956 q 282 872 296 908 m 538 951 q 591 970 560 967 q 644 960 622 974 q 674 913 665 944 q 675 857 682 882 q 658 901 672 883 q 625 932 643 919 q 586 951 608 943 q 538 951 564 958 m 81 717 q 81 792 69 751 q 119 856 92 833 q 191 878 149 878 q 264 858 233 878 q 197 856 229 865 q 140 829 164 847 q 99 782 117 811 q 81 717 82 753 m -42 589 q -77 681 -75 626 q -56 781 -79 736 q 16 853 -31 825 q 114 872 63 881 q 20 836 64 863 q -43 774 -24 810 q -61 687 -62 738 q -42 589 -60 636 m 675 751 q 730 710 706 740 q 754 647 754 681 q 730 583 754 614 q 675 542 706 553 q 710 592 700 563 q 721 647 721 621 q 710 702 721 674 q 675 751 700 731 m 169 493 q 94 507 133 489 q 39 558 56 525 q 30 634 22 592 q 64 703 38 676 q 52 635 49 669 q 68 574 56 600 q 108 524 82 547 q 169 493 133 501 m 369 397 q 323 429 344 406 q 296 479 301 453 q 240 479 269 472 q 189 503 210 486 q 247 497 219 493 q 297 514 275 501 q 323 558 304 538 q 363 588 342 578 q 369 613 368 600 q 364 548 375 582 q 328 494 353 514 l 328 493 q 337 443 328 469 q 369 397 346 417 m 361 582 q 338 546 346 567 q 361 582 353 563 m 675 519 q 721 486 700 510 q 742 436 742 463 q 721 386 742 410 q 675 353 700 363 q 701 392 694 369 q 708 436 708 415 q 701 480 708 457 q 675 519 694 503 m 369 121 q 304 171 332 135 q 276 247 276 207 q 304 324 276 288 q 369 375 332 361 q 324 314 339 349 q 310 247 310 279 q 324 181 310 215 q 369 121 339 146 m 779 347 q 855 283 826 331 q 883 186 883 236 q 854 88 882 135 q 779 25 826 42 q 843 101 818 57 q 869 186 868 146 q 844 271 869 226 q 779 347 818 315 m 675 331 q 722 297 700 322 q 743 246 743 272 q 722 193 743 218 q 675 160 700 168 q 703 200 696 176 q 710 246 710 224 q 703 290 710 267 q 675 331 696 314 m 288 -32 q 210 25 240 -18 q 176 117 179 68 q 197 213 172 167 q 265 281 221 260 q 208 201 229 246 q 189 118 186 157 q 219 38 192 79 q 288 -32 247 -3 m 675 138 q 678 76 685 110 q 649 22 671 42 q 590 5 625 4 q 531 21 556 6 q 585 24 560 15 q 628 49 610 33 q 660 86 646 64 q 675 138 675 108 m 508 21 q 459 -2 489 4 q 407 3 429 -8 q 376 44 386 15 q 369 99 365 74 q 390 58 374 74 q 424 32 407 42 q 463 17 442 22 q 508 21 485 13 z "},"2":{"ha":978,"x_min":-71,"x_max":1042,"o":"m 274 1039 q 335 1124 288 1092 q 436 1161 383 1157 q 542 1140 490 1165 q 617 1065 594 1114 q 530 1128 579 1104 q 438 1147 481 1151 q 350 1114 394 1144 q 274 1039 306 1083 m 360 957 q 412 1024 374 996 q 493 1053 450 1053 q 573 1026 535 1054 q 626 957 611 997 q 563 1005 599 989 q 493 1019 526 1021 q 422 1004 458 1019 q 360 957 386 989 m 647 953 q 697 978 667 971 q 751 975 728 986 q 787 933 775 963 q 796 879 799 904 q 773 920 790 904 q 736 944 756 936 q 695 958 718 954 q 647 953 672 963 m 151 832 q 158 903 144 865 q 200 961 171 942 q 269 976 229 979 q 338 950 310 972 q 273 954 304 961 q 218 933 242 947 q 176 892 194 918 q 151 832 157 867 m 813 863 q 887 832 851 860 q 932 765 922 804 q 925 686 942 728 q 875 622 908 644 q 903 690 899 654 q 900 757 908 726 q 869 817 892 788 q 813 863 847 846 m 151 636 q 101 668 125 644 q 75 719 78 692 q 93 775 74 747 q 139 814 113 803 q 113 769 118 794 q 108 722 107 744 q 119 676 110 700 q 151 636 129 653 m 985 708 q 1033 616 1025 672 q 1022 510 1042 560 q 956 426 1001 460 q 857 393 911 392 q 951 442 908 410 q 1010 515 993 475 q 1017 608 1025 554 q 985 708 1010 661 m 382 450 q 372 526 367 483 q 404 593 378 568 q 449 619 421 611 q 424 658 432 633 q 418 706 415 683 q 440 667 424 682 q 472 644 456 653 q 512 630 490 635 q 556 635 533 625 q 533 619 546 626 q 547 615 540 618 q 521 614 533 615 q 490 608 504 608 q 428 569 454 597 q 393 519 407 550 q 382 450 379 488 m 406 686 q 372 616 400 649 q 308 575 344 583 q 233 585 272 567 q 174 636 193 604 q 238 607 203 613 q 301 608 272 601 q 359 633 331 614 q 406 686 388 653 m 271 532 q 197 481 244 494 q 106 478 150 467 q 27 526 61 490 q -11 607 -7 561 q 41 533 8 565 q 110 492 74 500 q 189 494 144 482 q 271 532 233 506 m 869 600 q 890 541 888 576 q 876 481 893 506 q 826 447 860 457 q 763 444 792 438 q 814 464 792 447 q 849 500 836 481 q 870 546 863 519 q 869 600 878 572 m 172 296 q 174 374 161 332 q 217 438 186 415 q 290 459 246 460 q 365 438 333 458 q 294 437 328 446 q 236 411 260 428 q 193 363 211 393 q 172 296 175 333 m 585 289 q 592 300 588 294 q 583 306 588 303 q 593 303 589 304 q 649 353 614 333 q 719 369 683 372 l 726 368 q 746 429 744 397 q 747 363 756 399 q 803 324 778 351 q 836 265 828 297 q 790 310 817 293 q 735 333 763 326 q 713 306 726 315 q 656 287 689 288 q 596 299 624 286 q 585 289 590 294 m 692 332 q 697 336 694 335 q 649 328 674 336 q 601 303 624 319 q 651 310 628 301 q 692 332 675 318 m 69 115 q 41 171 49 136 q 47 232 33 206 q 92 272 60 258 q 154 282 125 286 q 106 256 125 275 q 76 217 88 238 q 62 169 65 196 q 69 115 58 143 m 836 265 q 885 258 858 268 q 922 229 913 249 q 926 181 933 208 q 903 138 918 154 q 906 178 911 158 q 893 214 901 197 q 872 244 885 229 q 836 265 858 260 m 108 -83 q 17 -65 61 -90 q -49 3 -26 -39 q -69 95 -71 44 q -35 182 -67 146 q -53 90 -53 138 q -36 10 -54 43 q 22 -49 -18 -24 q 108 -83 63 -74 m 903 115 q 899 57 908 89 q 868 11 890 25 q 813 0 846 -4 q 758 21 781 4 q 808 19 785 13 q 850 39 832 26 q 884 69 868 50 q 903 115 900 89 m 231 21 q 179 -8 211 1 q 121 -7 147 -18 q 82 35 96 4 q 69 93 68 65 q 96 50 76 67 q 135 24 115 33 q 181 12 156 15 q 231 21 206 8 m 525 21 q 471 -49 510 -19 q 389 -78 432 -78 q 307 -49 346 -78 q 253 21 268 -19 q 317 -28 281 -12 q 389 -44 354 -44 q 460 -28 424 -44 q 525 21 497 -12 m 736 21 q 699 -30 726 -7 q 642 -53 671 -53 q 585 -30 613 -53 q 547 21 557 -7 q 592 -10 567 -1 q 642 -19 618 -19 q 691 -10 665 -19 q 736 21 717 -1 m 983 -33 q 932 -118 974 -83 q 840 -161 890 -153 q 740 -149 790 -169 q 664 -83 689 -128 q 750 -135 703 -117 q 838 -147 797 -154 q 917 -109 878 -142 q 983 -33 957 -76 z "},"3":{"ha":985,"x_min":-61,"x_max":1067,"o":"m 513 1056 q 568 1122 528 1097 q 651 1146 608 1146 q 735 1122 696 1146 q 790 1056 775 1097 q 724 1110 763 1089 q 651 1132 686 1132 q 578 1110 617 1132 q 513 1056 540 1089 m 8 733 q -47 819 -33 765 q -46 925 -61 874 q 13 1013 -29 975 q 107 1053 54 1050 q 19 997 58 1033 q -32 921 -19 961 q -33 829 -44 881 q 8 733 -21 778 m 546 951 q 597 1017 560 989 q 674 1044 633 1044 q 751 1017 714 1044 q 801 951 788 989 q 740 997 775 982 q 674 1011 706 1011 q 607 997 642 1011 q 546 951 572 982 m 274 951 q 324 1016 288 989 q 399 1043 360 1043 q 474 1016 438 1043 q 524 951 510 989 q 465 996 499 982 q 399 1010 431 1010 q 333 996 367 1010 q 274 951 299 982 m 113 875 q 119 928 108 900 q 151 969 129 957 q 202 975 172 982 q 251 951 232 968 q 206 955 228 960 q 167 940 185 950 q 133 915 150 931 q 113 875 117 900 m 824 951 q 881 923 853 946 q 913 871 908 900 q 901 810 918 842 q 857 764 883 779 q 881 815 876 788 q 881 865 885 842 q 863 913 876 889 q 824 951 850 936 m 163 722 q 115 734 140 722 q 82 767 90 746 q 85 813 75 788 q 113 853 96 839 q 104 815 101 833 q 114 779 107 796 q 131 746 119 763 q 163 722 142 729 m 679 574 q 688 581 683 578 q 667 590 676 585 q 701 588 685 586 q 761 601 729 600 q 794 622 779 610 q 835 671 818 640 q 854 739 853 701 q 855 662 865 704 q 815 596 844 619 l 811 593 q 826 585 819 589 q 872 525 857 565 q 879 449 888 485 q 854 513 875 485 q 808 557 833 542 q 768 575 790 568 q 694 578 732 567 q 679 574 688 576 m 413 633 q 401 657 406 643 q 317 626 361 626 q 237 655 275 626 q 185 722 199 683 q 247 675 211 690 q 317 660 283 660 q 396 679 358 660 q 401 706 394 694 q 433 723 411 719 q 472 722 456 726 q 455 716 463 721 q 442 704 447 711 q 426 681 435 692 q 414 659 419 671 q 413 633 408 647 m 897 633 q 987 606 944 636 q 1047 533 1029 576 q 1060 438 1067 489 q 1018 354 1053 388 q 1044 444 1039 397 q 1035 528 1050 492 q 981 591 1019 563 q 897 633 943 619 m 294 471 q 273 527 278 493 q 285 585 268 561 q 333 619 300 610 q 393 622 365 629 q 345 603 365 619 q 313 567 325 586 q 293 524 300 549 q 294 471 286 499 m 453 411 q 410 376 438 390 q 358 367 383 361 q 315 398 333 372 q 294 449 297 424 q 326 415 306 426 q 365 399 346 404 q 409 395 386 394 q 453 411 432 396 m 890 429 q 947 392 921 419 q 975 335 972 365 q 955 272 976 303 q 906 229 933 242 q 935 278 928 250 q 942 332 943 307 q 928 383 939 357 q 890 429 917 410 m 288 285 q 348 342 307 321 q 429 358 389 364 q 449 353 439 356 q 474 411 454 388 q 468 374 467 393 q 475 340 469 356 q 536 264 518 313 q 561 256 549 258 q 539 254 551 254 q 542 244 540 250 q 535 256 539 250 q 489 269 511 257 q 457 299 467 281 q 450 318 451 308 q 424 325 436 322 q 355 320 392 329 q 288 285 318 311 m -46 222 q -49 299 -61 258 q -8 367 -37 340 q 62 399 21 392 q 138 389 103 407 q 61 385 99 394 q 1 356 24 376 q -35 298 -22 335 q -46 222 -47 261 m 56 282 q 97 338 67 313 q 160 363 126 363 q 222 340 192 364 q 265 285 253 315 q 215 320 243 310 q 160 329 186 331 q 105 318 133 329 q 56 282 76 307 m 168 88 q 101 91 138 79 q 46 129 64 103 q 31 194 28 157 q 54 258 35 232 q 53 199 46 228 q 74 149 60 169 q 113 109 89 126 q 168 88 136 92 m 897 208 q 905 135 911 175 q 874 69 899 94 q 806 42 847 46 q 735 54 765 39 q 799 63 769 50 q 850 94 829 75 q 885 143 871 114 q 897 208 899 172 m 714 46 q 674 -26 706 7 q 603 -64 643 -58 q 524 -49 564 -71 q 465 7 483 -28 q 531 -28 494 -19 q 599 -32 567 -36 q 661 -7 629 -26 q 714 46 693 13 m 443 8 q 395 -35 426 -18 q 333 -47 364 -53 q 280 -14 303 -42 q 251 44 257 14 q 291 4 267 18 q 339 -15 315 -10 q 392 -15 364 -19 q 443 8 419 -11 m 715 -64 q 653 -149 700 -115 q 551 -186 606 -182 q 445 -165 497 -190 q 371 -90 393 -139 q 458 -153 410 -129 q 550 -172 507 -176 q 638 -138 593 -169 q 715 -64 683 -107 z "},"4":{"ha":1021,"x_min":-60,"x_max":1031,"o":"m 546 951 q 585 1004 557 981 q 646 1028 614 1028 q 706 1004 678 1028 q 746 951 735 981 q 698 985 725 975 q 646 994 671 994 q 594 985 621 994 q 546 951 567 975 m 868 1022 q 962 957 925 1007 q 1004 849 999 907 q 984 735 1010 792 q 906 653 958 679 q 971 748 946 694 q 990 847 996 801 q 951 942 986 894 q 868 1022 917 989 m 171 728 q 151 816 146 767 q 185 901 157 865 q 259 956 213 939 q 349 961 306 974 q 260 940 303 958 q 196 893 218 922 q 167 818 174 864 q 171 728 161 772 m 347 786 q 340 865 332 822 q 375 935 347 908 q 447 964 403 960 q 524 951 490 968 q 453 943 486 956 q 397 910 419 931 q 360 857 375 889 q 347 786 344 825 m 768 951 q 815 933 792 949 q 844 893 839 917 q 835 846 849 871 q 801 808 821 821 q 815 847 815 826 q 811 886 815 868 q 798 922 807 904 q 768 951 789 940 m 801 786 q 867 735 839 772 q 894 660 894 699 q 867 583 894 619 q 801 532 839 546 q 847 593 832 558 q 861 660 861 628 q 847 726 861 692 q 801 786 832 760 m 199 593 q 180 663 181 622 q 200 732 179 704 q 260 769 221 760 q 333 769 300 779 q 271 751 299 768 q 226 711 243 733 q 201 658 210 689 q 199 593 192 628 m 906 653 q 965 649 935 661 q 1011 613 994 638 q 1029 556 1028 589 q 1013 500 1031 524 q 1000 604 1029 561 q 906 653 969 647 m 58 406 q 39 472 40 433 q 57 539 38 511 q 116 576 78 565 q 186 576 154 586 q 126 557 153 574 q 85 519 100 540 q 59 467 68 497 q 58 406 50 438 m 328 401 l 328 403 q 314 406 321 404 q 329 408 322 407 q 359 462 336 436 q 411 492 382 488 q 422 493 417 493 q 430 525 428 508 q 428 560 432 542 q 433 550 431 554 q 440 578 435 565 q 449 549 439 560 q 468 528 458 538 q 490 508 478 518 q 519 501 503 499 q 481 492 504 493 q 446 503 458 492 q 446 490 446 496 q 519 435 496 476 q 481 456 501 450 q 442 461 461 461 q 431 439 438 449 q 385 408 415 418 q 329 403 356 399 l 328 401 m 801 510 q 850 524 821 522 q 897 511 879 525 q 919 467 915 496 q 915 417 924 439 q 903 457 915 440 q 876 485 890 474 q 842 506 861 497 q 801 510 824 515 m 401 456 q 364 439 382 450 q 332 408 346 428 q 372 427 354 414 q 401 456 389 440 m 938 417 q 990 389 965 411 q 1018 339 1014 367 q 1004 283 1022 311 q 961 242 986 256 q 983 288 979 263 q 985 335 988 313 q 972 378 982 356 q 938 417 961 401 m 57 204 q 9 239 31 214 q -12 293 -12 264 q 9 346 -12 321 q 57 381 31 371 q 28 339 36 363 q 21 293 21 315 q 28 246 21 269 q 57 204 36 222 m 185 72 q 99 51 147 47 q 14 82 50 56 q -42 154 -24 110 q -47 243 -60 199 q -26 156 -44 197 q 21 93 -8 115 q 95 67 50 72 q 185 72 140 61 m 961 221 q 943 167 960 194 q 901 132 926 139 q 847 137 876 124 q 801 171 817 150 q 847 157 824 157 q 892 164 871 157 q 931 183 911 169 q 961 221 951 196 m 311 176 q 260 113 297 140 q 185 88 224 86 q 110 116 146 88 q 61 181 74 144 q 120 135 86 150 q 185 121 154 121 q 251 133 217 119 q 311 176 285 147 m 510 132 q 463 93 493 108 q 404 85 432 78 q 356 119 376 92 q 333 176 336 147 q 368 137 346 150 q 413 117 390 124 q 460 113 435 111 q 510 132 486 115 m 801 110 q 802 58 808 88 q 778 15 796 29 q 729 5 758 1 q 681 21 700 8 q 723 23 703 15 q 758 43 743 31 q 786 70 772 54 q 801 110 800 86 m 658 21 q 605 -1 638 4 q 549 7 572 -7 q 515 52 525 21 q 510 110 504 83 q 531 65 514 83 q 565 35 547 46 q 608 18 585 24 q 658 21 632 13 m 906 67 q 888 -26 914 19 q 819 -94 863 -71 q 726 -117 778 -118 q 636 -83 674 -115 q 731 -101 682 -100 q 813 -83 779 -101 q 872 -22 847 -64 q 906 67 896 19 z "},"5":{"ha":958,"x_min":-96,"x_max":1025,"o":"m 96 1017 q 154 1104 108 1069 q 254 1146 200 1139 q 360 1128 307 1151 q 438 1056 413 1104 q 348 1115 397 1093 q 256 1132 299 1136 q 169 1094 213 1126 q 96 1017 125 1061 m 586 951 q 640 1011 603 986 q 715 1033 676 1036 q 786 1001 753 1031 q 831 935 819 972 q 776 981 808 965 q 713 1000 743 997 q 648 990 682 1001 q 586 951 614 979 m 382 951 q 418 1001 392 978 q 474 1024 444 1024 q 528 1001 501 1024 q 564 951 554 978 q 521 982 546 974 q 474 990 496 990 q 425 982 450 990 q 382 951 400 974 m 156 883 q 178 951 157 918 q 232 994 200 983 q 301 992 264 1006 q 360 951 339 978 q 299 970 331 969 q 242 963 268 971 q 192 935 217 954 q 156 883 168 915 m 935 940 q 1003 863 981 915 q 1017 758 1025 811 q 974 663 1010 707 q 886 608 938 619 q 965 678 932 636 q 1003 761 997 719 q 990 852 1010 803 q 935 940 969 901 m 831 913 q 868 858 856 893 q 871 792 881 822 q 828 742 860 763 q 764 722 796 722 q 813 756 794 733 q 839 803 831 779 q 847 857 847 828 q 831 913 847 886 m 125 603 q 64 661 88 621 q 44 743 40 701 q 81 817 49 783 q 153 861 113 851 q 100 806 119 839 q 78 739 81 772 q 85 669 74 707 q 125 603 96 632 m 506 722 q 506 669 513 699 q 481 624 500 639 q 431 613 461 610 q 379 629 400 615 q 424 631 403 622 q 461 651 444 639 q 490 680 476 663 q 506 722 504 697 m 500 624 q 557 678 519 657 q 528 722 536 699 q 576 686 547 699 q 644 694 611 700 q 681 682 663 692 q 713 697 697 688 q 743 722 729 707 q 701 668 731 690 q 757 579 747 632 q 720 623 742 606 q 675 651 699 640 q 635 642 656 642 q 578 661 606 642 q 538 648 557 657 q 500 624 518 639 m 125 413 q 78 445 100 421 q 57 496 57 469 q 76 547 56 522 q 122 581 97 571 q 95 540 101 564 q 90 496 89 517 q 97 452 90 475 q 125 413 104 429 m 775 567 q 837 568 803 576 q 889 536 871 560 q 905 478 907 513 q 888 418 903 443 q 885 472 893 447 q 863 517 876 497 q 826 550 849 535 q 775 567 804 565 m 450 236 q 449 277 446 254 q 463 318 451 300 q 419 360 436 329 q 401 419 401 390 q 434 373 413 390 q 479 347 456 356 q 492 343 485 344 q 558 342 521 354 q 585 353 571 346 q 568 338 578 344 q 585 329 576 335 q 560 332 572 332 q 503 311 533 314 q 499 310 501 311 q 467 279 482 297 q 450 236 453 261 m 233 304 q 256 326 243 317 q 190 354 221 329 q 147 413 158 379 q 202 372 171 385 q 263 360 233 360 q 324 372 293 360 q 379 413 356 385 q 332 351 367 376 q 354 349 343 351 q 406 307 385 339 q 428 243 426 275 q 392 290 415 272 q 344 317 368 308 q 290 322 319 324 q 233 304 260 321 m 893 397 q 946 338 926 378 q 958 261 965 299 q 919 194 951 224 q 849 160 886 165 q 901 208 882 178 q 925 268 919 238 q 924 332 931 297 q 893 397 917 367 m 63 38 q -32 88 8 44 q -83 186 -72 132 q -76 297 -96 240 q -10 382 -57 353 q -62 285 -44 338 q -69 189 -79 232 q -24 105 -61 146 q 63 38 14 64 m 68 213 q 72 270 63 239 q 103 315 81 301 q 158 326 125 331 q 211 304 190 321 q 163 306 186 313 q 121 288 139 299 q 87 258 103 276 q 68 213 71 239 m 269 36 q 191 17 236 15 q 115 43 146 18 q 74 112 85 68 q 76 192 64 156 q 94 121 76 153 q 136 69 113 89 q 196 38 161 49 q 269 36 231 28 m 835 142 q 834 84 842 115 q 804 38 826 53 q 750 24 782 21 q 696 43 718 28 q 744 44 721 36 q 785 64 767 51 q 817 96 803 76 q 835 142 832 115 m 928 90 q 906 -22 938 32 q 822 -104 874 -76 q 707 -131 769 -133 q 600 -90 644 -129 q 715 -113 656 -111 q 815 -92 774 -115 q 886 -18 856 -69 q 928 90 917 33 m 696 43 q 674 -7 692 18 q 632 -39 657 -32 q 580 -29 607 -44 q 539 7 553 -14 q 582 -9 560 -8 q 624 -6 604 -10 q 664 10 644 -1 q 696 43 683 21 m 517 6 q 466 -49 501 -26 q 394 -67 431 -71 q 330 -35 360 -64 q 290 29 300 -6 q 340 -16 311 -1 q 399 -35 369 -31 q 458 -28 426 -37 q 517 6 490 -19 z "},"6":{"ha":961,"x_min":-122,"x_max":979,"o":"m 285 946 q 322 1042 286 999 q 408 1103 358 1085 q 513 1108 458 1119 q 601 1056 568 1097 q 505 1093 557 1083 q 413 1089 453 1103 q 339 1035 374 1075 q 285 946 304 996 m 386 906 q 409 963 389 935 q 457 999 429 990 q 516 990 485 1006 q 564 951 547 975 q 514 970 540 968 q 465 965 488 972 q 421 946 443 960 q 386 906 399 932 m 585 951 q 623 976 599 967 q 667 978 647 985 q 695 945 685 969 q 704 901 706 921 q 683 931 699 921 q 653 946 668 940 q 621 957 639 953 q 585 951 603 961 m 263 744 q 245 803 247 769 q 261 860 243 838 q 311 890 278 882 q 372 889 344 897 q 323 872 344 888 q 288 839 301 857 q 265 797 274 821 q 263 744 256 772 m 560 694 q 578 710 568 703 q 563 713 569 711 q 592 718 578 714 q 613 726 601 724 q 642 746 629 735 q 664 769 656 757 q 690 822 681 792 q 690 883 699 851 q 710 816 710 856 q 692 750 711 776 q 665 726 681 736 l 668 726 q 708 686 693 715 q 722 629 724 657 q 694 671 714 656 q 656 694 675 686 q 610 705 635 703 q 560 694 585 707 m 747 733 q 832 748 785 756 q 913 711 879 740 q 960 637 946 682 q 960 550 975 592 q 945 636 960 594 q 904 700 931 678 q 833 732 876 724 q 747 733 790 740 m 104 524 q 81 601 82 556 q 103 679 79 646 q 168 724 125 711 q 249 728 211 738 q 178 704 210 724 q 129 660 147 685 q 103 597 111 633 q 104 524 94 561 m 743 618 q 805 629 769 632 q 861 606 840 626 q 886 549 882 585 q 878 488 890 514 q 867 541 879 517 q 838 582 854 565 q 797 610 821 599 q 743 618 772 622 m 49 324 q 10 372 25 340 q 1 431 -6 403 q 37 480 8 460 q 94 504 65 500 q 53 468 68 490 q 33 424 39 446 q 30 374 28 400 q 49 324 32 347 m -33 208 q -99 266 -75 225 q -121 351 -122 307 q -94 435 -119 396 q -26 489 -68 475 q -83 424 -61 461 q -107 351 -106 386 q -87 276 -108 315 q -33 208 -67 238 m 888 467 q 953 410 926 450 q 976 328 979 369 q 943 248 974 285 q 871 199 913 211 q 924 260 906 224 q 943 329 942 296 q 932 401 946 363 q 888 467 918 439 m 471 236 q 461 251 465 243 q 449 240 456 246 q 458 260 454 249 q 447 306 449 281 q 454 351 446 331 q 436 385 447 371 q 426 396 431 390 q 390 419 411 411 q 414 417 401 419 q 407 435 408 426 q 435 408 418 419 q 444 403 440 406 q 467 396 456 399 q 488 392 478 393 l 490 392 q 568 410 525 414 q 576 417 572 413 q 572 410 574 413 q 582 408 578 408 q 569 406 575 407 q 538 374 557 388 q 499 358 518 361 q 490 349 493 353 q 489 301 496 326 q 467 258 482 276 q 471 236 468 247 m 188 86 q 118 85 156 76 q 61 121 81 94 q 43 186 42 147 q 61 251 44 225 q 63 191 54 219 q 88 142 72 163 q 129 104 104 121 q 188 86 154 88 m 860 181 q 862 110 871 149 q 826 50 853 71 q 760 29 800 29 q 693 46 721 29 q 756 50 726 40 q 806 76 785 60 q 842 119 826 93 q 860 181 858 146 m 396 13 q 342 -26 376 -12 q 278 -31 307 -40 q 227 10 247 -21 q 206 74 207 42 q 241 27 218 44 q 288 1 264 10 q 341 -5 313 -6 q 396 13 369 -4 m 672 38 q 629 -33 663 -1 q 556 -68 596 -64 q 476 -50 515 -74 q 418 10 436 -26 q 483 -28 447 -18 q 551 -36 519 -39 q 617 -14 583 -32 q 672 38 650 4 m 872 38 q 851 -47 876 -7 q 785 -106 825 -86 q 699 -120 746 -125 q 619 -85 651 -115 q 703 -106 660 -103 q 779 -93 747 -108 q 836 -42 811 -78 q 872 38 861 -6 m 619 -85 q 578 -138 608 -117 q 513 -161 547 -160 q 446 -144 478 -162 q 400 -93 414 -125 q 454 -133 424 -118 q 513 -147 485 -149 q 569 -128 540 -146 q 619 -85 599 -111 z "},"7":{"ha":868,"x_min":-31,"x_max":994,"o":"m 182 1056 q 240 1126 197 1100 q 331 1151 283 1151 q 421 1126 378 1151 q 479 1056 464 1100 q 409 1115 450 1092 q 331 1138 368 1138 q 252 1115 293 1138 q 182 1056 211 1092 m 496 951 q 540 1010 508 985 q 607 1035 572 1035 q 674 1010 642 1035 q 717 951 706 985 q 665 990 694 978 q 607 1001 635 1001 q 549 990 579 1001 q 496 951 518 978 m 269 951 q 310 1006 281 982 q 372 1029 340 1029 q 433 1006 404 1029 q 474 951 463 982 q 425 986 453 976 q 372 996 397 996 q 318 986 346 996 q 269 951 290 976 m 69 950 q 105 999 79 976 q 158 1021 131 1021 q 212 999 186 1021 q 247 951 238 978 q 205 980 229 972 q 158 988 181 988 q 112 980 136 988 q 69 950 88 972 m 739 951 q 794 942 765 954 q 835 906 824 929 q 838 851 846 882 q 811 801 829 819 q 818 849 822 825 q 806 890 814 872 q 781 927 796 910 q 739 951 765 944 m 88 708 q 24 745 53 717 q -10 808 -4 774 q 8 878 -14 843 q 60 929 29 914 q 28 872 36 904 q 24 813 21 840 q 43 756 28 785 q 88 708 58 728 m 915 879 q 976 801 958 853 q 985 699 994 749 q 937 608 974 649 q 849 561 900 568 q 928 623 894 585 q 971 701 963 661 q 963 790 979 742 q 915 879 947 839 m 811 779 q 849 725 836 760 q 853 660 863 690 q 811 609 843 629 q 747 589 779 589 q 795 623 778 600 q 821 669 813 646 q 828 724 829 694 q 811 779 828 753 m 375 708 q 323 641 361 669 q 243 613 285 613 q 162 641 200 613 q 110 708 124 669 q 172 661 136 676 q 243 646 208 646 q 313 661 276 646 q 375 708 349 676 m 421 557 q 374 581 397 563 q 347 624 351 599 q 360 672 344 647 q 397 708 376 697 q 380 669 382 690 q 381 628 378 647 q 392 590 383 610 q 421 557 401 569 m 328 604 q 241 533 299 554 q 128 522 183 513 q 24 574 71 533 q -31 669 -22 614 q 41 582 -3 619 q 129 536 85 544 q 229 548 175 528 q 328 604 283 568 m 739 568 q 769 513 760 547 q 765 453 778 479 q 721 410 753 425 q 658 397 689 396 q 706 425 688 406 q 735 467 725 444 q 748 515 744 488 q 739 568 751 542 m 318 336 q 284 400 293 360 q 290 471 275 440 q 341 522 304 503 q 413 538 378 540 q 355 506 378 528 q 319 457 332 483 q 306 399 308 432 q 318 336 304 367 m 651 383 q 683 326 674 361 q 679 264 692 292 q 633 220 665 236 q 571 207 600 204 q 619 235 600 215 q 649 278 639 256 q 662 328 658 300 q 651 383 665 356 m 206 94 q 169 165 179 121 q 176 243 160 208 q 231 298 192 278 q 308 315 271 318 q 246 281 272 306 q 206 229 219 257 q 191 165 193 200 q 206 94 189 129 m 561 188 q 570 110 576 153 q 536 40 564 67 q 465 9 508 14 q 389 21 422 4 q 459 30 426 17 q 513 64 492 43 q 549 117 535 85 q 561 188 564 150 m 279 -83 q 199 -90 242 -100 q 126 -50 156 -79 q 88 22 97 -21 q 94 103 78 65 q 102 22 92 61 q 136 -40 113 -17 q 199 -75 160 -64 q 279 -83 238 -86 m 367 21 q 319 -15 350 -1 q 261 -19 288 -28 q 215 17 233 -11 q 196 74 197 46 q 228 33 207 47 q 271 13 249 19 q 317 6 292 6 q 367 21 343 6 m 617 60 q 590 -39 621 7 q 513 -108 560 -85 q 410 -125 465 -131 q 318 -83 354 -119 q 417 -110 365 -106 q 507 -96 469 -114 q 574 -34 544 -78 q 617 60 603 10 z "},"8":{"ha":989,"x_min":-100,"x_max":1121,"o":"m 311 1050 q 370 1124 326 1096 q 463 1156 414 1153 q 558 1131 513 1157 q 622 1060 604 1106 q 546 1119 589 1096 q 464 1142 503 1143 q 382 1114 424 1140 q 311 1050 340 1088 m 349 951 q 390 1011 360 985 q 454 1039 419 1038 q 520 1017 488 1040 q 565 963 553 993 q 513 997 543 988 q 456 1006 482 1007 q 399 992 428 1004 q 349 951 369 979 m 589 960 q 637 995 606 982 q 694 1000 668 1008 q 739 963 721 992 q 758 907 757 935 q 726 947 747 932 q 685 968 706 961 q 638 975 663 975 q 589 960 613 975 m 172 864 q 181 923 168 892 q 218 967 193 954 q 274 973 242 981 q 328 947 307 965 q 277 952 301 957 q 233 938 253 947 q 196 910 214 928 q 172 864 178 892 m 778 894 q 833 892 803 900 q 878 864 864 885 q 889 810 893 842 q 869 758 885 779 q 869 806 876 783 q 850 844 863 828 q 821 877 839 863 q 778 894 803 892 m 108 661 q 68 711 83 678 q 60 774 53 744 q 97 824 68 803 q 157 849 126 846 q 114 812 129 835 q 92 765 99 789 q 88 714 86 742 q 108 661 90 686 m 488 581 q 481 590 483 586 q 464 583 472 586 q 476 596 471 589 q 462 647 464 618 q 471 696 460 675 q 496 721 479 710 q 463 769 486 750 q 488 757 475 765 q 486 772 486 764 q 504 752 492 757 q 528 743 517 747 q 534 740 531 742 q 542 738 538 739 q 579 739 561 742 q 561 733 569 738 q 579 739 571 733 q 556 720 571 729 q 528 710 542 711 q 536 676 536 693 q 521 630 536 653 q 483 593 506 607 q 488 581 485 588 m 874 736 q 914 684 899 718 q 921 621 929 650 q 881 569 911 590 q 819 546 851 547 q 865 582 849 558 q 888 629 882 606 q 893 682 894 653 q 874 736 892 711 m 981 703 q 1072 641 1036 689 q 1114 536 1108 593 q 1096 424 1121 479 q 1019 344 1071 369 q 1082 437 1058 385 q 1100 535 1106 489 q 1062 625 1096 579 q 981 703 1028 671 m 500 679 q 485 643 492 663 q 482 603 479 624 q 499 639 494 619 q 503 676 503 658 l 503 683 l 500 679 m 50 521 q 10 534 29 521 q -15 567 -8 547 q -17 608 -24 586 q 6 643 -11 631 q -7 606 -6 626 q -3 571 -8 586 q 17 542 3 556 q 50 521 31 528 m 158 481 q 106 499 132 482 q 72 540 79 515 q 78 594 64 565 q 113 638 92 622 q 97 593 97 617 q 104 550 97 569 q 122 510 110 531 q 158 481 135 490 m 803 531 q 868 526 833 538 q 919 489 903 515 q 932 427 936 464 q 908 367 928 390 q 911 423 918 396 q 890 471 904 450 q 856 509 878 492 q 803 531 833 526 m -17 188 q -81 269 -62 215 q -90 375 -100 322 q -41 470 -79 428 q 50 521 -3 513 q -33 455 3 494 q -76 372 -68 415 q -67 280 -85 331 q -17 188 -50 229 m 76 242 q 31 303 47 264 q 26 378 15 343 q 70 438 36 413 q 142 465 104 463 q 88 424 108 451 q 58 368 67 397 q 53 306 50 340 q 76 242 57 272 m 414 222 q 433 297 411 261 q 396 364 404 326 q 419 335 406 347 q 447 317 433 324 q 481 340 463 332 q 539 345 507 351 q 596 322 571 339 q 607 331 601 325 q 600 318 604 325 q 611 308 606 314 q 596 315 604 313 q 548 277 578 292 q 489 268 518 263 q 451 283 471 271 q 429 256 439 271 q 414 222 419 242 m 914 344 q 958 284 943 324 q 964 210 974 244 q 920 151 954 175 q 850 124 886 126 q 903 165 883 139 q 932 219 924 192 q 937 281 940 247 q 914 344 933 314 m 494 300 q 541 301 517 297 q 589 317 565 304 q 538 321 563 324 q 493 310 514 318 q 481 303 488 307 q 494 300 488 301 m 258 46 q 178 35 222 29 q 106 69 133 42 q 73 140 79 96 q 83 221 67 185 q 93 148 79 182 q 129 93 107 114 q 185 57 151 71 q 258 46 219 43 m 833 108 q 825 51 838 82 q 789 8 813 21 q 733 3 764 -4 q 681 31 701 11 q 730 24 706 19 q 774 38 754 28 q 810 65 792 49 q 833 108 828 82 m 465 7 q 419 -36 450 -18 q 360 -50 389 -54 q 308 -17 331 -44 q 279 39 285 10 q 318 0 294 13 q 365 -17 342 -12 q 415 -17 389 -21 q 465 7 442 -12 m 660 25 q 625 -31 651 -6 q 568 -60 599 -57 q 508 -41 538 -61 q 465 7 478 -21 q 514 -21 486 -14 q 565 -26 542 -28 q 616 -12 590 -24 q 660 25 642 -1 m 714 -68 q 663 -142 703 -112 q 578 -175 624 -171 q 488 -158 532 -179 q 425 -94 444 -136 q 499 -146 457 -126 q 576 -161 540 -165 q 650 -132 613 -158 q 714 -68 688 -106 z "},"9":{"ha":949,"x_min":-76,"x_max":1060,"o":"m 292 1047 q 368 1135 313 1103 q 485 1167 424 1167 q 599 1133 544 1165 q 675 1043 654 1100 q 584 1121 636 1089 q 485 1153 532 1153 q 383 1123 436 1153 q 292 1047 331 1093 m 468 965 q 524 1017 486 997 q 599 1031 561 1038 q 663 993 635 1025 q 699 925 692 961 q 651 975 681 957 q 593 999 621 993 q 530 996 564 1003 q 468 965 496 989 m 272 931 q 297 984 276 958 q 343 1015 317 1010 q 398 1003 369 1019 q 440 965 426 988 q 395 984 419 982 q 350 982 371 986 q 306 966 328 978 q 272 931 285 954 m 92 782 q 86 853 79 814 q 118 913 93 892 q 183 937 143 935 q 251 922 222 939 q 190 917 218 928 q 140 888 161 906 q 105 843 119 871 q 92 782 90 815 m 719 917 q 803 921 757 931 q 875 881 849 911 q 905 803 901 850 q 889 721 908 756 q 883 797 894 761 q 850 858 871 833 q 794 900 829 883 q 719 917 760 917 m 61 542 q 7 590 29 556 q -12 660 -15 624 q 19 724 -10 694 q 81 763 47 754 q 38 714 51 743 q 21 656 24 685 q 27 597 18 628 q 61 542 36 565 m 538 532 q 525 539 531 535 q 518 522 522 531 q 518 544 519 533 q 486 581 499 558 q 475 625 474 603 q 476 633 475 629 l 475 635 l 472 635 q 431 645 451 633 q 396 674 410 657 q 372 675 383 675 q 390 681 381 678 q 382 694 386 688 q 397 682 389 688 q 482 669 444 690 q 496 672 489 671 q 550 708 519 700 q 529 688 538 700 q 550 708 542 696 q 513 653 542 676 q 511 644 511 649 q 528 597 525 624 q 526 546 532 571 q 538 532 532 539 m 893 699 q 941 650 922 683 q 956 585 960 617 q 922 527 950 553 q 863 496 894 501 q 904 539 890 513 q 922 590 918 565 q 921 645 926 615 q 893 699 915 675 m 1003 638 q 1051 547 1042 603 q 1040 442 1060 490 q 976 358 1021 392 q 878 325 931 324 q 969 374 928 342 q 1028 446 1011 407 q 1035 538 1043 486 q 1003 638 1028 590 m 103 311 q 15 324 58 301 q -53 385 -29 346 q -76 472 -76 424 q -49 557 -76 521 q -61 469 -62 514 q -40 392 -60 424 q 18 339 -22 361 q 103 311 58 317 m 169 390 q 114 388 144 382 q 67 414 83 394 q 53 467 51 435 q 68 519 54 499 q 72 473 63 494 q 93 435 81 451 q 125 405 106 418 q 169 390 144 392 m 851 476 q 878 394 876 442 q 854 311 879 346 q 785 263 831 278 q 700 258 740 247 q 775 282 742 261 q 828 331 808 303 q 854 397 846 358 q 851 476 863 436 m 267 111 q 240 179 244 139 q 253 250 235 219 q 269 271 260 261 q 256 274 263 272 q 208 316 226 285 q 188 378 189 347 q 221 331 199 349 q 267 306 243 314 q 315 297 290 297 q 356 304 335 304 q 372 313 364 308 q 365 304 368 308 q 381 303 374 304 q 354 296 367 301 q 322 278 339 285 q 281 233 297 260 q 261 176 267 208 q 267 111 256 144 m 686 240 q 703 186 700 218 q 689 133 706 154 q 642 106 674 113 q 586 107 611 100 q 631 123 613 108 q 663 154 650 138 q 683 193 675 171 q 686 240 692 215 m 586 107 q 573 42 589 75 q 529 -6 557 8 q 464 -10 500 -19 q 406 21 428 -1 q 463 11 435 8 q 514 25 492 14 q 558 56 538 36 q 586 107 578 76 m 383 21 q 338 -1 365 6 q 289 4 310 -8 q 259 43 268 15 q 254 93 250 71 q 274 56 258 71 q 306 33 289 42 q 342 18 322 24 q 383 21 361 13 m 515 -82 q 455 -154 499 -128 q 364 -181 411 -181 q 273 -154 317 -181 q 213 -83 229 -128 q 285 -143 243 -119 q 364 -167 326 -167 q 444 -143 403 -167 q 515 -82 485 -119 z "},"A":{"ha":1049,"x_min":-89,"x_max":1114,"o":"m 664 1056 q 749 1060 704 1072 q 824 1015 794 1047 q 863 936 854 982 q 851 851 872 890 q 847 938 857 896 q 814 1006 838 979 q 749 1044 790 1031 q 664 1056 707 1057 m 368 951 q 405 1001 378 979 q 461 1024 432 1024 q 517 1001 490 1024 q 554 951 544 979 q 510 982 536 974 q 461 990 485 990 q 413 982 438 990 q 368 951 388 974 m 576 951 q 622 982 593 971 q 675 983 651 993 q 713 947 699 975 q 728 894 728 919 q 700 932 718 918 q 663 953 682 946 q 622 962 644 960 q 576 951 599 964 m 279 775 q 250 833 258 797 q 256 897 242 869 q 303 940 269 925 q 368 951 338 954 q 317 924 338 944 q 286 882 297 904 q 271 831 275 860 q 279 775 267 803 m 100 575 q 50 660 61 607 q 56 761 39 713 q 114 843 72 808 q 207 878 156 878 q 120 827 158 860 q 68 756 82 794 q 65 668 56 718 q 100 575 74 618 m 735 874 q 813 848 775 874 q 864 785 851 822 q 863 703 878 747 q 818 633 849 660 q 841 706 839 668 q 833 774 843 743 q 797 832 822 804 q 735 874 772 860 m 189 514 q 143 583 157 539 q 143 664 129 626 q 194 728 156 703 q 272 754 232 753 q 210 711 235 739 q 174 653 185 683 q 166 586 164 624 q 189 514 168 549 m 921 653 q 1027 613 979 653 q 1094 517 1075 572 q 1101 400 1114 461 q 1044 303 1089 339 q 1085 410 1074 353 q 1081 513 1097 468 q 1021 594 1065 557 q 921 653 976 632 m 522 376 q 496 417 506 392 q 421 388 461 389 q 461 413 444 397 q 489 447 478 428 q 494 476 488 463 q 508 496 499 488 q 511 543 514 519 q 500 550 504 546 q 486 588 486 564 q 494 629 486 613 q 503 598 493 611 q 524 574 513 585 q 547 553 533 564 q 579 544 560 543 q 536 538 560 536 q 540 515 539 526 q 585 524 564 525 q 560 511 571 519 q 540 492 549 503 q 538 472 540 482 q 515 435 531 453 q 513 406 513 421 q 522 376 514 392 m 825 613 q 885 594 856 613 q 925 549 915 576 q 923 488 935 521 q 888 435 911 454 q 902 488 903 461 q 894 538 901 515 q 869 581 886 560 q 825 613 853 603 m 92 238 q 44 310 58 264 q 44 397 31 357 q 99 465 58 438 q 181 493 139 492 q 114 448 142 478 q 75 386 86 418 q 67 314 64 354 q 92 238 69 274 m 894 414 q 972 389 933 414 q 1022 326 1010 364 q 1021 247 1035 290 q 976 179 1007 204 q 999 249 997 213 q 990 317 1001 286 q 956 373 981 346 q 894 414 932 400 m 28 54 q -5 101 7 71 q -8 157 -17 132 q 29 199 1 183 q 85 217 57 215 q 45 187 60 207 q 24 147 31 167 q 15 102 17 126 q 28 54 14 78 m 985 158 q 1024 133 1004 153 q 1046 93 1044 114 q 1028 50 1046 71 q 990 21 1011 29 q 1010 55 1007 36 q 1013 90 1013 74 q 1006 127 1011 108 q 985 158 1001 146 m 624 147 q 581 91 611 115 q 517 67 550 67 q 451 91 482 67 q 410 147 421 115 q 460 110 431 121 q 517 100 489 100 q 572 110 543 100 q 624 147 601 121 m 732 31 q 682 29 710 24 q 640 53 654 35 q 629 99 626 71 q 644 147 632 128 q 648 106 640 125 q 667 72 656 88 q 694 45 678 58 q 732 31 710 32 m 388 147 q 401 93 400 125 q 385 42 401 61 q 338 17 369 22 q 282 21 307 13 q 327 34 308 21 q 360 63 346 47 q 383 101 374 79 q 388 147 392 122 m 135 -83 q 60 -108 103 -108 q -17 -87 17 -108 q -70 -28 -51 -67 q -82 49 -89 10 q -57 -25 -76 10 q -10 -76 -37 -60 q 58 -94 18 -93 q 135 -83 97 -96 m 919 -83 q 831 -131 885 -122 q 729 -119 776 -139 q 649 -56 682 -100 q 617 39 615 -12 q 665 -51 633 -11 q 735 -107 696 -92 q 824 -115 772 -122 q 919 -83 875 -107 m 260 21 q 210 -39 246 -14 q 136 -61 174 -64 q 65 -31 99 -60 q 21 33 32 -3 q 75 -12 43 3 q 138 -28 107 -26 q 201 -18 168 -29 q 260 21 235 -7 m 969 21 q 926 -35 957 -11 q 861 -60 896 -60 q 797 -35 828 -60 q 754 21 765 -11 q 806 -15 776 -4 q 861 -26 835 -26 q 918 -16 889 -26 q 969 21 947 -6 z "},"Á":{"ha":1049,"x_min":-89,"x_max":1114,"o":"m 664 1056 q 749 1060 704 1072 q 824 1015 794 1047 q 863 936 854 982 q 851 851 872 890 q 847 938 857 896 q 814 1006 838 979 q 749 1044 790 1031 q 664 1056 707 1057 m 368 951 q 405 1001 378 979 q 461 1024 432 1024 q 517 1001 490 1024 q 554 951 544 979 q 510 982 536 974 q 461 990 485 990 q 413 982 438 990 q 368 951 388 974 m 576 951 q 622 982 593 971 q 675 983 651 993 q 713 947 699 975 q 728 894 728 919 q 700 932 718 918 q 663 953 682 946 q 622 962 644 960 q 576 951 599 964 m 279 775 q 250 833 258 797 q 256 897 242 869 q 303 940 269 925 q 368 951 338 954 q 317 924 338 944 q 286 882 297 904 q 271 831 275 860 q 279 775 267 803 m 100 575 q 50 660 61 607 q 56 761 39 713 q 114 843 72 808 q 207 878 156 878 q 120 827 158 860 q 68 756 82 794 q 65 668 56 718 q 100 575 74 618 m 735 874 q 813 848 775 874 q 864 785 851 822 q 863 703 878 747 q 818 633 849 660 q 841 706 839 668 q 833 774 843 743 q 797 832 822 804 q 735 874 772 860 m 189 514 q 143 583 157 539 q 143 664 129 626 q 194 728 156 703 q 272 754 232 753 q 210 711 235 739 q 174 653 185 683 q 166 586 164 624 q 189 514 168 549 m 921 653 q 1027 613 979 653 q 1094 517 1075 572 q 1101 400 1114 461 q 1044 303 1089 339 q 1085 410 1074 353 q 1081 513 1097 468 q 1021 594 1065 557 q 921 653 976 632 m 522 376 q 496 417 506 392 q 421 388 461 389 q 461 413 444 397 q 489 447 478 428 q 494 476 488 463 q 508 496 499 488 q 511 543 514 519 q 500 550 504 546 q 486 588 486 564 q 494 629 486 613 q 503 598 493 611 q 524 574 513 585 q 547 553 533 564 q 579 544 560 543 q 536 538 560 536 q 540 515 539 526 q 585 524 564 525 q 560 511 571 519 q 540 492 549 503 q 538 472 540 482 q 515 435 531 453 q 513 406 513 421 q 522 376 514 392 m 825 613 q 885 594 856 613 q 925 549 915 576 q 923 488 935 521 q 888 435 911 454 q 902 488 903 461 q 894 538 901 515 q 869 581 886 560 q 825 613 853 603 m 92 238 q 44 310 58 264 q 44 397 31 357 q 99 465 58 438 q 181 493 139 492 q 114 448 142 478 q 75 386 86 418 q 67 314 64 354 q 92 238 69 274 m 894 414 q 972 389 933 414 q 1022 326 1010 364 q 1021 247 1035 290 q 976 179 1007 204 q 999 249 997 213 q 990 317 1001 286 q 956 373 981 346 q 894 414 932 400 m 28 54 q -5 101 7 71 q -8 157 -17 132 q 29 199 1 183 q 85 217 57 215 q 45 187 60 207 q 24 147 31 167 q 15 102 17 126 q 28 54 14 78 m 985 158 q 1024 133 1004 153 q 1046 93 1044 114 q 1028 50 1046 71 q 990 21 1011 29 q 1010 55 1007 36 q 1013 90 1013 74 q 1006 127 1011 108 q 985 158 1001 146 m 624 147 q 581 91 611 115 q 517 67 550 67 q 451 91 482 67 q 410 147 421 115 q 460 110 431 121 q 517 100 489 100 q 572 110 543 100 q 624 147 601 121 m 732 31 q 682 29 710 24 q 640 53 654 35 q 629 99 626 71 q 644 147 632 128 q 648 106 640 125 q 667 72 656 88 q 694 45 678 58 q 732 31 710 32 m 388 147 q 401 93 400 125 q 385 42 401 61 q 338 17 369 22 q 282 21 307 13 q 327 34 308 21 q 360 63 346 47 q 383 101 374 79 q 388 147 392 122 m 135 -83 q 60 -108 103 -108 q -17 -87 17 -108 q -70 -28 -51 -67 q -82 49 -89 10 q -57 -25 -76 10 q -10 -76 -37 -60 q 58 -94 18 -93 q 135 -83 97 -96 m 919 -83 q 831 -131 885 -122 q 729 -119 776 -139 q 649 -56 682 -100 q 617 39 615 -12 q 665 -51 633 -11 q 735 -107 696 -92 q 824 -115 772 -122 q 919 -83 875 -107 m 260 21 q 210 -39 246 -14 q 136 -61 174 -64 q 65 -31 99 -60 q 21 33 32 -3 q 75 -12 43 3 q 138 -28 107 -26 q 201 -18 168 -29 q 260 21 235 -7 m 969 21 q 926 -35 957 -11 q 861 -60 896 -60 q 797 -35 828 -60 q 754 21 765 -11 q 806 -15 776 -4 q 861 -26 835 -26 q 918 -16 889 -26 q 969 21 947 -6 m 878 1356 q 929 1295 913 1336 q 939 1214 946 1254 q 903 1142 932 1175 q 833 1101 874 1108 q 894 1153 868 1122 q 925 1217 919 1185 q 917 1287 931 1249 q 878 1356 904 1325 m 532 1233 q 569 1297 540 1268 q 633 1329 599 1325 q 704 1310 669 1332 q 754 1257 739 1289 q 697 1290 729 1282 q 638 1296 665 1299 q 581 1278 610 1293 q 532 1233 551 1263 m 326 983 q 279 1059 290 1011 q 283 1151 268 1107 q 335 1226 297 1194 q 418 1258 372 1257 q 341 1211 375 1242 q 296 1146 307 1181 q 294 1067 285 1111 q 326 983 303 1022 m 451 1136 q 440 1172 443 1150 q 447 1207 438 1194 q 480 1221 458 1219 q 518 1217 501 1222 q 492 1206 501 1217 q 474 1185 482 1196 q 457 1163 465 1175 q 451 1136 449 1151 m 751 1169 q 739 1095 756 1133 q 690 1040 722 1057 q 617 1031 658 1024 q 550 1063 576 1039 q 617 1053 583 1049 q 675 1071 650 1057 q 722 1108 700 1083 q 751 1169 743 1133 m 528 1063 q 491 1054 514 1056 q 457 1064 468 1053 q 444 1098 444 1075 q 451 1136 444 1121 q 460 1108 450 1119 q 479 1088 469 1097 q 500 1070 489 1079 q 528 1063 511 1061 z "},"Ă":{"ha":1049,"x_min":-89,"x_max":1114,"o":"m 664 1056 q 749 1060 704 1072 q 824 1015 794 1047 q 863 936 854 982 q 851 851 872 890 q 847 938 857 896 q 814 1006 838 979 q 749 1044 790 1031 q 664 1056 707 1057 m 368 951 q 405 1001 378 979 q 461 1024 432 1024 q 517 1001 490 1024 q 554 951 544 979 q 510 982 536 974 q 461 990 485 990 q 413 982 438 990 q 368 951 388 974 m 576 951 q 622 982 593 971 q 675 983 651 993 q 713 947 699 975 q 728 894 728 919 q 700 932 718 918 q 663 953 682 946 q 622 962 644 960 q 576 951 599 964 m 279 775 q 250 833 258 797 q 256 897 242 869 q 303 940 269 925 q 368 951 338 954 q 317 924 338 944 q 286 882 297 904 q 271 831 275 860 q 279 775 267 803 m 100 575 q 50 660 61 607 q 56 761 39 713 q 114 843 72 808 q 207 878 156 878 q 120 827 158 860 q 68 756 82 794 q 65 668 56 718 q 100 575 74 618 m 735 874 q 813 848 775 874 q 864 785 851 822 q 863 703 878 747 q 818 633 849 660 q 841 706 839 668 q 833 774 843 743 q 797 832 822 804 q 735 874 772 860 m 189 514 q 143 583 157 539 q 143 664 129 626 q 194 728 156 703 q 272 754 232 753 q 210 711 235 739 q 174 653 185 683 q 166 586 164 624 q 189 514 168 549 m 921 653 q 1027 613 979 653 q 1094 517 1075 572 q 1101 400 1114 461 q 1044 303 1089 339 q 1085 410 1074 353 q 1081 513 1097 468 q 1021 594 1065 557 q 921 653 976 632 m 522 376 q 496 417 506 392 q 421 388 461 389 q 461 413 444 397 q 489 447 478 428 q 494 476 488 463 q 508 496 499 488 q 511 543 514 519 q 500 550 504 546 q 486 588 486 564 q 494 629 486 613 q 503 598 493 611 q 524 574 513 585 q 547 553 533 564 q 579 544 560 543 q 536 538 560 536 q 540 515 539 526 q 585 524 564 525 q 560 511 571 519 q 540 492 549 503 q 538 472 540 482 q 515 435 531 453 q 513 406 513 421 q 522 376 514 392 m 825 613 q 885 594 856 613 q 925 549 915 576 q 923 488 935 521 q 888 435 911 454 q 902 488 903 461 q 894 538 901 515 q 869 581 886 560 q 825 613 853 603 m 92 238 q 44 310 58 264 q 44 397 31 357 q 99 465 58 438 q 181 493 139 492 q 114 448 142 478 q 75 386 86 418 q 67 314 64 354 q 92 238 69 274 m 894 414 q 972 389 933 414 q 1022 326 1010 364 q 1021 247 1035 290 q 976 179 1007 204 q 999 249 997 213 q 990 317 1001 286 q 956 373 981 346 q 894 414 932 400 m 28 54 q -5 101 7 71 q -8 157 -17 132 q 29 199 1 183 q 85 217 57 215 q 45 187 60 207 q 24 147 31 167 q 15 102 17 126 q 28 54 14 78 m 985 158 q 1024 133 1004 153 q 1046 93 1044 114 q 1028 50 1046 71 q 990 21 1011 29 q 1010 55 1007 36 q 1013 90 1013 74 q 1006 127 1011 108 q 985 158 1001 146 m 624 147 q 581 91 611 115 q 517 67 550 67 q 451 91 482 67 q 410 147 421 115 q 460 110 431 121 q 517 100 489 100 q 572 110 543 100 q 624 147 601 121 m 732 31 q 682 29 710 24 q 640 53 654 35 q 629 99 626 71 q 644 147 632 128 q 648 106 640 125 q 667 72 656 88 q 694 45 678 58 q 732 31 710 32 m 388 147 q 401 93 400 125 q 385 42 401 61 q 338 17 369 22 q 282 21 307 13 q 327 34 308 21 q 360 63 346 47 q 383 101 374 79 q 388 147 392 122 m 135 -83 q 60 -108 103 -108 q -17 -87 17 -108 q -70 -28 -51 -67 q -82 49 -89 10 q -57 -25 -76 10 q -10 -76 -37 -60 q 58 -94 18 -93 q 135 -83 97 -96 m 919 -83 q 831 -131 885 -122 q 729 -119 776 -139 q 649 -56 682 -100 q 617 39 615 -12 q 665 -51 633 -11 q 735 -107 696 -92 q 824 -115 772 -122 q 919 -83 875 -107 m 260 21 q 210 -39 246 -14 q 136 -61 174 -64 q 65 -31 99 -60 q 21 33 32 -3 q 75 -12 43 3 q 138 -28 107 -26 q 201 -18 168 -29 q 260 21 235 -7 m 969 21 q 926 -35 957 -11 q 861 -60 896 -60 q 797 -35 828 -60 q 754 21 765 -11 q 806 -15 776 -4 q 861 -26 835 -26 q 918 -16 889 -26 q 969 21 947 -6 m 196 1258 q 216 1333 193 1297 q 275 1383 239 1368 q 351 1394 310 1400 q 421 1361 393 1389 q 347 1381 386 1378 q 281 1371 308 1383 q 230 1327 253 1358 q 196 1258 207 1296 m 450 1233 q 475 1279 456 1257 q 518 1304 494 1301 q 566 1290 542 1307 q 601 1251 590 1272 q 563 1271 583 1268 q 522 1271 542 1274 q 483 1261 503 1269 q 450 1233 463 1253 m 601 1251 q 636 1289 613 1272 q 683 1303 660 1306 q 726 1277 707 1300 q 749 1232 744 1254 q 717 1259 736 1251 q 679 1269 697 1267 q 639 1269 660 1272 q 601 1251 618 1267 m 331 1140 q 321 1194 319 1163 q 339 1243 322 1225 q 388 1265 357 1263 q 443 1257 419 1267 q 398 1247 418 1258 q 364 1221 378 1235 q 339 1185 350 1206 q 331 1140 328 1165 m 747 1210 q 753 1138 760 1178 q 722 1075 747 1099 q 657 1048 697 1051 q 586 1061 617 1044 q 650 1069 621 1057 q 700 1099 679 1081 q 734 1147 719 1118 q 747 1210 749 1175 m 850 1197 q 861 1099 872 1151 q 815 1010 850 1046 q 728 958 781 972 q 631 964 676 943 q 729 976 681 961 q 806 1019 778 990 q 844 1098 833 1049 q 850 1197 856 1147 m 564 1057 q 504 1013 543 1028 q 431 1008 465 997 q 371 1052 396 1018 q 344 1122 346 1086 q 385 1068 358 1089 q 439 1040 411 1047 q 500 1035 467 1032 q 564 1057 533 1038 z "},"Â":{"ha":1049,"x_min":-89,"x_max":1114,"o":"m 664 1056 q 749 1060 704 1072 q 824 1015 794 1047 q 863 936 854 982 q 851 851 872 890 q 847 938 857 896 q 814 1006 838 979 q 749 1044 790 1031 q 664 1056 707 1057 m 368 951 q 405 1001 378 979 q 461 1024 432 1024 q 517 1001 490 1024 q 554 951 544 979 q 510 982 536 974 q 461 990 485 990 q 413 982 438 990 q 368 951 388 974 m 576 951 q 622 982 593 971 q 675 983 651 993 q 713 947 699 975 q 728 894 728 919 q 700 932 718 918 q 663 953 682 946 q 622 962 644 960 q 576 951 599 964 m 279 775 q 250 833 258 797 q 256 897 242 869 q 303 940 269 925 q 368 951 338 954 q 317 924 338 944 q 286 882 297 904 q 271 831 275 860 q 279 775 267 803 m 100 575 q 50 660 61 607 q 56 761 39 713 q 114 843 72 808 q 207 878 156 878 q 120 827 158 860 q 68 756 82 794 q 65 668 56 718 q 100 575 74 618 m 735 874 q 813 848 775 874 q 864 785 851 822 q 863 703 878 747 q 818 633 849 660 q 841 706 839 668 q 833 774 843 743 q 797 832 822 804 q 735 874 772 860 m 189 514 q 143 583 157 539 q 143 664 129 626 q 194 728 156 703 q 272 754 232 753 q 210 711 235 739 q 174 653 185 683 q 166 586 164 624 q 189 514 168 549 m 921 653 q 1027 613 979 653 q 1094 517 1075 572 q 1101 400 1114 461 q 1044 303 1089 339 q 1085 410 1074 353 q 1081 513 1097 468 q 1021 594 1065 557 q 921 653 976 632 m 522 376 q 496 417 506 392 q 421 388 461 389 q 461 413 444 397 q 489 447 478 428 q 494 476 488 463 q 508 496 499 488 q 511 543 514 519 q 500 550 504 546 q 486 588 486 564 q 494 629 486 613 q 503 598 493 611 q 524 574 513 585 q 547 553 533 564 q 579 544 560 543 q 536 538 560 536 q 540 515 539 526 q 585 524 564 525 q 560 511 571 519 q 540 492 549 503 q 538 472 540 482 q 515 435 531 453 q 513 406 513 421 q 522 376 514 392 m 825 613 q 885 594 856 613 q 925 549 915 576 q 923 488 935 521 q 888 435 911 454 q 902 488 903 461 q 894 538 901 515 q 869 581 886 560 q 825 613 853 603 m 92 238 q 44 310 58 264 q 44 397 31 357 q 99 465 58 438 q 181 493 139 492 q 114 448 142 478 q 75 386 86 418 q 67 314 64 354 q 92 238 69 274 m 894 414 q 972 389 933 414 q 1022 326 1010 364 q 1021 247 1035 290 q 976 179 1007 204 q 999 249 997 213 q 990 317 1001 286 q 956 373 981 346 q 894 414 932 400 m 28 54 q -5 101 7 71 q -8 157 -17 132 q 29 199 1 183 q 85 217 57 215 q 45 187 60 207 q 24 147 31 167 q 15 102 17 126 q 28 54 14 78 m 985 158 q 1024 133 1004 153 q 1046 93 1044 114 q 1028 50 1046 71 q 990 21 1011 29 q 1010 55 1007 36 q 1013 90 1013 74 q 1006 127 1011 108 q 985 158 1001 146 m 624 147 q 581 91 611 115 q 517 67 550 67 q 451 91 482 67 q 410 147 421 115 q 460 110 431 121 q 517 100 489 100 q 572 110 543 100 q 624 147 601 121 m 732 31 q 682 29 710 24 q 640 53 654 35 q 629 99 626 71 q 644 147 632 128 q 648 106 640 125 q 667 72 656 88 q 694 45 678 58 q 732 31 710 32 m 388 147 q 401 93 400 125 q 385 42 401 61 q 338 17 369 22 q 282 21 307 13 q 327 34 308 21 q 360 63 346 47 q 383 101 374 79 q 388 147 392 122 m 135 -83 q 60 -108 103 -108 q -17 -87 17 -108 q -70 -28 -51 -67 q -82 49 -89 10 q -57 -25 -76 10 q -10 -76 -37 -60 q 58 -94 18 -93 q 135 -83 97 -96 m 919 -83 q 831 -131 885 -122 q 729 -119 776 -139 q 649 -56 682 -100 q 617 39 615 -12 q 665 -51 633 -11 q 735 -107 696 -92 q 824 -115 772 -122 q 919 -83 875 -107 m 260 21 q 210 -39 246 -14 q 136 -61 174 -64 q 65 -31 99 -60 q 21 33 32 -3 q 75 -12 43 3 q 138 -28 107 -26 q 201 -18 168 -29 q 260 21 235 -7 m 969 21 q 926 -35 957 -11 q 861 -60 896 -60 q 797 -35 828 -60 q 754 21 765 -11 q 806 -15 776 -4 q 861 -26 835 -26 q 918 -16 889 -26 q 969 21 947 -6 m 446 1257 q 508 1308 467 1289 q 586 1317 549 1326 q 652 1274 624 1308 q 685 1201 681 1239 q 638 1257 667 1236 q 578 1285 608 1278 q 513 1286 549 1292 q 446 1257 476 1281 m 226 1203 q 219 1245 217 1222 q 236 1283 222 1268 q 273 1303 250 1299 q 315 1300 296 1308 q 276 1294 294 1301 q 246 1274 258 1286 q 229 1242 235 1261 q 226 1203 224 1224 m 303 1132 q 292 1190 290 1157 q 314 1242 294 1222 q 366 1264 333 1261 q 422 1256 399 1267 q 374 1247 396 1258 q 338 1218 353 1235 q 311 1181 322 1203 q 303 1132 300 1160 m 806 1224 q 863 1165 843 1206 q 879 1082 883 1124 q 848 1005 875 1040 q 779 958 821 969 q 838 1016 814 982 q 865 1083 863 1050 q 851 1155 868 1117 q 806 1224 835 1193 m 249 958 q 185 1001 211 968 q 157 1074 160 1035 q 172 1150 153 1113 q 226 1203 190 1188 q 183 1141 199 1176 q 171 1075 168 1106 q 195 1013 174 1044 q 249 958 217 981 m 700 1185 q 745 1176 721 1186 q 778 1146 769 1165 q 777 1101 786 1126 q 753 1063 768 1076 q 758 1100 761 1082 q 747 1133 754 1118 q 730 1164 740 1149 q 700 1185 719 1179 m 731 1063 q 673 1023 710 1036 q 604 1021 636 1010 q 552 1063 574 1031 q 531 1129 531 1096 q 566 1079 542 1099 q 615 1051 590 1060 q 671 1044 640 1043 q 731 1063 701 1046 m 510 1125 q 479 1051 507 1086 q 413 1006 451 1015 q 334 1013 375 996 q 271 1063 293 1031 q 339 1035 303 1040 q 404 1038 375 1031 q 464 1068 435 1046 q 510 1125 493 1090 z "},"Ä":{"ha":1049,"x_min":-89,"x_max":1114,"o":"m 664 1056 q 749 1060 704 1072 q 824 1015 794 1047 q 863 936 854 982 q 851 851 872 890 q 847 938 857 896 q 814 1006 838 979 q 749 1044 790 1031 q 664 1056 707 1057 m 368 951 q 405 1001 378 979 q 461 1024 432 1024 q 517 1001 490 1024 q 554 951 544 979 q 510 982 536 974 q 461 990 485 990 q 413 982 438 990 q 368 951 388 974 m 576 951 q 622 982 593 971 q 675 983 651 993 q 713 947 699 975 q 728 894 728 919 q 700 932 718 918 q 663 953 682 946 q 622 962 644 960 q 576 951 599 964 m 279 775 q 250 833 258 797 q 256 897 242 869 q 303 940 269 925 q 368 951 338 954 q 317 924 338 944 q 286 882 297 904 q 271 831 275 860 q 279 775 267 803 m 100 575 q 50 660 61 607 q 56 761 39 713 q 114 843 72 808 q 207 878 156 878 q 120 827 158 860 q 68 756 82 794 q 65 668 56 718 q 100 575 74 618 m 735 874 q 813 848 775 874 q 864 785 851 822 q 863 703 878 747 q 818 633 849 660 q 841 706 839 668 q 833 774 843 743 q 797 832 822 804 q 735 874 772 860 m 189 514 q 143 583 157 539 q 143 664 129 626 q 194 728 156 703 q 272 754 232 753 q 210 711 235 739 q 174 653 185 683 q 166 586 164 624 q 189 514 168 549 m 921 653 q 1027 613 979 653 q 1094 517 1075 572 q 1101 400 1114 461 q 1044 303 1089 339 q 1085 410 1074 353 q 1081 513 1097 468 q 1021 594 1065 557 q 921 653 976 632 m 522 376 q 496 417 506 392 q 421 388 461 389 q 461 413 444 397 q 489 447 478 428 q 494 476 488 463 q 508 496 499 488 q 511 543 514 519 q 500 550 504 546 q 486 588 486 564 q 494 629 486 613 q 503 598 493 611 q 524 574 513 585 q 547 553 533 564 q 579 544 560 543 q 536 538 560 536 q 540 515 539 526 q 585 524 564 525 q 560 511 571 519 q 540 492 549 503 q 538 472 540 482 q 515 435 531 453 q 513 406 513 421 q 522 376 514 392 m 825 613 q 885 594 856 613 q 925 549 915 576 q 923 488 935 521 q 888 435 911 454 q 902 488 903 461 q 894 538 901 515 q 869 581 886 560 q 825 613 853 603 m 92 238 q 44 310 58 264 q 44 397 31 357 q 99 465 58 438 q 181 493 139 492 q 114 448 142 478 q 75 386 86 418 q 67 314 64 354 q 92 238 69 274 m 894 414 q 972 389 933 414 q 1022 326 1010 364 q 1021 247 1035 290 q 976 179 1007 204 q 999 249 997 213 q 990 317 1001 286 q 956 373 981 346 q 894 414 932 400 m 28 54 q -5 101 7 71 q -8 157 -17 132 q 29 199 1 183 q 85 217 57 215 q 45 187 60 207 q 24 147 31 167 q 15 102 17 126 q 28 54 14 78 m 985 158 q 1024 133 1004 153 q 1046 93 1044 114 q 1028 50 1046 71 q 990 21 1011 29 q 1010 55 1007 36 q 1013 90 1013 74 q 1006 127 1011 108 q 985 158 1001 146 m 624 147 q 581 91 611 115 q 517 67 550 67 q 451 91 482 67 q 410 147 421 115 q 460 110 431 121 q 517 100 489 100 q 572 110 543 100 q 624 147 601 121 m 732 31 q 682 29 710 24 q 640 53 654 35 q 629 99 626 71 q 644 147 632 128 q 648 106 640 125 q 667 72 656 88 q 694 45 678 58 q 732 31 710 32 m 388 147 q 401 93 400 125 q 385 42 401 61 q 338 17 369 22 q 282 21 307 13 q 327 34 308 21 q 360 63 346 47 q 383 101 374 79 q 388 147 392 122 m 135 -83 q 60 -108 103 -108 q -17 -87 17 -108 q -70 -28 -51 -67 q -82 49 -89 10 q -57 -25 -76 10 q -10 -76 -37 -60 q 58 -94 18 -93 q 135 -83 97 -96 m 919 -83 q 831 -131 885 -122 q 729 -119 776 -139 q 649 -56 682 -100 q 617 39 615 -12 q 665 -51 633 -11 q 735 -107 696 -92 q 824 -115 772 -122 q 919 -83 875 -107 m 260 21 q 210 -39 246 -14 q 136 -61 174 -64 q 65 -31 99 -60 q 21 33 32 -3 q 75 -12 43 3 q 138 -28 107 -26 q 201 -18 168 -29 q 260 21 235 -7 m 969 21 q 926 -35 957 -11 q 861 -60 896 -60 q 797 -35 828 -60 q 754 21 765 -11 q 806 -15 776 -4 q 861 -26 835 -26 q 918 -16 889 -26 q 969 21 947 -6 m 188 1342 q 255 1414 207 1389 q 353 1436 303 1439 q 448 1404 403 1435 q 507 1325 493 1374 q 435 1393 476 1365 q 353 1422 393 1421 q 267 1402 313 1425 q 188 1342 222 1379 m 240 1229 q 282 1278 253 1257 q 342 1299 311 1300 q 399 1272 372 1297 q 435 1218 426 1247 q 390 1253 417 1243 q 340 1265 364 1264 q 288 1259 315 1267 q 240 1229 261 1251 m 614 1124 q 583 1161 596 1136 q 578 1207 571 1186 q 607 1242 583 1228 q 653 1257 631 1256 q 624 1231 633 1249 q 610 1197 614 1214 q 603 1161 604 1181 q 614 1124 601 1142 m 769 1257 q 824 1233 797 1253 q 857 1186 850 1214 q 847 1130 863 1160 q 808 1085 832 1100 q 827 1132 825 1107 q 824 1179 829 1157 q 807 1222 819 1200 q 769 1257 794 1244 m 307 1063 q 253 1072 282 1060 q 215 1108 225 1085 q 213 1160 204 1131 q 240 1207 222 1189 q 233 1163 229 1185 q 246 1122 238 1140 q 269 1087 254 1104 q 307 1063 283 1069 m 913 1185 q 942 1111 939 1154 q 926 1032 946 1068 q 869 974 907 996 q 792 958 832 953 q 865 988 831 967 q 914 1039 899 1010 q 928 1107 929 1067 q 913 1185 928 1147 m 435 1129 q 433 1085 439 1110 q 411 1050 428 1061 q 369 1044 394 1039 q 329 1063 344 1050 q 363 1063 347 1057 q 393 1078 379 1069 q 419 1098 407 1086 q 435 1129 432 1110 m 803 1064 q 756 1021 788 1038 q 694 1010 724 1004 q 641 1043 664 1015 q 614 1101 618 1071 q 653 1061 629 1075 q 700 1042 676 1047 q 751 1041 724 1038 q 803 1064 779 1044 m 647 958 q 588 888 631 914 q 497 861 544 861 q 406 888 449 861 q 346 958 363 914 q 417 899 376 922 q 497 875 458 875 q 576 899 535 875 q 647 958 617 922 z "},"À":{"ha":1049,"x_min":-89,"x_max":1114,"o":"m 664 1056 q 749 1060 704 1072 q 824 1015 794 1047 q 863 936 854 982 q 851 851 872 890 q 847 938 857 896 q 814 1006 838 979 q 749 1044 790 1031 q 664 1056 707 1057 m 368 951 q 405 1001 378 979 q 461 1024 432 1024 q 517 1001 490 1024 q 554 951 544 979 q 510 982 536 974 q 461 990 485 990 q 413 982 438 990 q 368 951 388 974 m 576 951 q 622 982 593 971 q 675 983 651 993 q 713 947 699 975 q 728 894 728 919 q 700 932 718 918 q 663 953 682 946 q 622 962 644 960 q 576 951 599 964 m 279 775 q 250 833 258 797 q 256 897 242 869 q 303 940 269 925 q 368 951 338 954 q 317 924 338 944 q 286 882 297 904 q 271 831 275 860 q 279 775 267 803 m 100 575 q 50 660 61 607 q 56 761 39 713 q 114 843 72 808 q 207 878 156 878 q 120 827 158 860 q 68 756 82 794 q 65 668 56 718 q 100 575 74 618 m 735 874 q 813 848 775 874 q 864 785 851 822 q 863 703 878 747 q 818 633 849 660 q 841 706 839 668 q 833 774 843 743 q 797 832 822 804 q 735 874 772 860 m 189 514 q 143 583 157 539 q 143 664 129 626 q 194 728 156 703 q 272 754 232 753 q 210 711 235 739 q 174 653 185 683 q 166 586 164 624 q 189 514 168 549 m 921 653 q 1027 613 979 653 q 1094 517 1075 572 q 1101 400 1114 461 q 1044 303 1089 339 q 1085 410 1074 353 q 1081 513 1097 468 q 1021 594 1065 557 q 921 653 976 632 m 522 376 q 496 417 506 392 q 421 388 461 389 q 461 413 444 397 q 489 447 478 428 q 494 476 488 463 q 508 496 499 488 q 511 543 514 519 q 500 550 504 546 q 486 588 486 564 q 494 629 486 613 q 503 598 493 611 q 524 574 513 585 q 547 553 533 564 q 579 544 560 543 q 536 538 560 536 q 540 515 539 526 q 585 524 564 525 q 560 511 571 519 q 540 492 549 503 q 538 472 540 482 q 515 435 531 453 q 513 406 513 421 q 522 376 514 392 m 825 613 q 885 594 856 613 q 925 549 915 576 q 923 488 935 521 q 888 435 911 454 q 902 488 903 461 q 894 538 901 515 q 869 581 886 560 q 825 613 853 603 m 92 238 q 44 310 58 264 q 44 397 31 357 q 99 465 58 438 q 181 493 139 492 q 114 448 142 478 q 75 386 86 418 q 67 314 64 354 q 92 238 69 274 m 894 414 q 972 389 933 414 q 1022 326 1010 364 q 1021 247 1035 290 q 976 179 1007 204 q 999 249 997 213 q 990 317 1001 286 q 956 373 981 346 q 894 414 932 400 m 28 54 q -5 101 7 71 q -8 157 -17 132 q 29 199 1 183 q 85 217 57 215 q 45 187 60 207 q 24 147 31 167 q 15 102 17 126 q 28 54 14 78 m 985 158 q 1024 133 1004 153 q 1046 93 1044 114 q 1028 50 1046 71 q 990 21 1011 29 q 1010 55 1007 36 q 1013 90 1013 74 q 1006 127 1011 108 q 985 158 1001 146 m 624 147 q 581 91 611 115 q 517 67 550 67 q 451 91 482 67 q 410 147 421 115 q 460 110 431 121 q 517 100 489 100 q 572 110 543 100 q 624 147 601 121 m 732 31 q 682 29 710 24 q 640 53 654 35 q 629 99 626 71 q 644 147 632 128 q 648 106 640 125 q 667 72 656 88 q 694 45 678 58 q 732 31 710 32 m 388 147 q 401 93 400 125 q 385 42 401 61 q 338 17 369 22 q 282 21 307 13 q 327 34 308 21 q 360 63 346 47 q 383 101 374 79 q 388 147 392 122 m 135 -83 q 60 -108 103 -108 q -17 -87 17 -108 q -70 -28 -51 -67 q -82 49 -89 10 q -57 -25 -76 10 q -10 -76 -37 -60 q 58 -94 18 -93 q 135 -83 97 -96 m 919 -83 q 831 -131 885 -122 q 729 -119 776 -139 q 649 -56 682 -100 q 617 39 615 -12 q 665 -51 633 -11 q 735 -107 696 -92 q 824 -115 772 -122 q 919 -83 875 -107 m 260 21 q 210 -39 246 -14 q 136 -61 174 -64 q 65 -31 99 -60 q 21 33 32 -3 q 75 -12 43 3 q 138 -28 107 -26 q 201 -18 168 -29 q 260 21 235 -7 m 969 21 q 926 -35 957 -11 q 861 -60 896 -60 q 797 -35 828 -60 q 754 21 765 -11 q 806 -15 776 -4 q 861 -26 835 -26 q 918 -16 889 -26 q 969 21 947 -6 m 215 1101 q 143 1127 176 1101 q 97 1189 110 1153 q 92 1266 83 1225 q 129 1332 100 1307 q 105 1260 111 1297 q 110 1193 99 1222 q 150 1140 121 1164 q 215 1101 179 1115 m 213 1239 q 252 1300 222 1272 q 317 1331 282 1328 q 385 1311 351 1333 q 433 1257 418 1289 q 378 1291 408 1282 q 319 1297 347 1300 q 263 1281 292 1294 q 213 1239 233 1267 m 456 1257 q 513 1272 479 1271 q 568 1254 546 1272 q 594 1203 589 1236 q 590 1144 600 1171 q 576 1193 590 1172 q 546 1228 563 1214 q 506 1252 529 1243 q 456 1257 483 1261 m 624 1268 q 710 1234 671 1267 q 765 1157 750 1201 q 769 1062 781 1111 q 721 982 758 1013 q 755 1069 746 1024 q 751 1151 764 1115 q 703 1219 739 1188 q 624 1268 668 1250 m 365 1114 q 308 1098 342 1099 q 254 1115 275 1097 q 226 1165 232 1132 q 229 1225 221 1199 q 244 1176 231 1197 q 275 1140 258 1154 q 315 1117 292 1126 q 365 1114 339 1108 m 604 1128 q 614 1097 611 1115 q 608 1067 617 1078 q 580 1058 599 1057 q 549 1063 561 1058 q 569 1072 561 1063 q 583 1089 576 1081 q 599 1106 590 1097 q 604 1128 607 1114 m 549 1063 q 505 1025 533 1040 q 451 1015 476 1010 q 406 1047 425 1021 q 383 1100 386 1072 q 417 1064 396 1075 q 458 1047 438 1053 q 503 1044 479 1043 q 549 1063 526 1046 z "},"Ā":{"ha":1049,"x_min":-89,"x_max":1114,"o":"m 664 1056 q 749 1060 704 1072 q 824 1015 794 1047 q 863 936 854 982 q 851 851 872 890 q 847 938 857 896 q 814 1006 838 979 q 749 1044 790 1031 q 664 1056 707 1057 m 368 951 q 405 1001 378 979 q 461 1024 432 1024 q 517 1001 490 1024 q 554 951 544 979 q 510 982 536 974 q 461 990 485 990 q 413 982 438 990 q 368 951 388 974 m 576 951 q 622 982 593 971 q 675 983 651 993 q 713 947 699 975 q 728 894 728 919 q 700 932 718 918 q 663 953 682 946 q 622 962 644 960 q 576 951 599 964 m 279 775 q 250 833 258 797 q 256 897 242 869 q 303 940 269 925 q 368 951 338 954 q 317 924 338 944 q 286 882 297 904 q 271 831 275 860 q 279 775 267 803 m 100 575 q 50 660 61 607 q 56 761 39 713 q 114 843 72 808 q 207 878 156 878 q 120 827 158 860 q 68 756 82 794 q 65 668 56 718 q 100 575 74 618 m 735 874 q 813 848 775 874 q 864 785 851 822 q 863 703 878 747 q 818 633 849 660 q 841 706 839 668 q 833 774 843 743 q 797 832 822 804 q 735 874 772 860 m 189 514 q 143 583 157 539 q 143 664 129 626 q 194 728 156 703 q 272 754 232 753 q 210 711 235 739 q 174 653 185 683 q 166 586 164 624 q 189 514 168 549 m 921 653 q 1027 613 979 653 q 1094 517 1075 572 q 1101 400 1114 461 q 1044 303 1089 339 q 1085 410 1074 353 q 1081 513 1097 468 q 1021 594 1065 557 q 921 653 976 632 m 522 376 q 496 417 506 392 q 421 388 461 389 q 461 413 444 397 q 489 447 478 428 q 494 476 488 463 q 508 496 499 488 q 511 543 514 519 q 500 550 504 546 q 486 588 486 564 q 494 629 486 613 q 503 598 493 611 q 524 574 513 585 q 547 553 533 564 q 579 544 560 543 q 536 538 560 536 q 540 515 539 526 q 585 524 564 525 q 560 511 571 519 q 540 492 549 503 q 538 472 540 482 q 515 435 531 453 q 513 406 513 421 q 522 376 514 392 m 825 613 q 885 594 856 613 q 925 549 915 576 q 923 488 935 521 q 888 435 911 454 q 902 488 903 461 q 894 538 901 515 q 869 581 886 560 q 825 613 853 603 m 92 238 q 44 310 58 264 q 44 397 31 357 q 99 465 58 438 q 181 493 139 492 q 114 448 142 478 q 75 386 86 418 q 67 314 64 354 q 92 238 69 274 m 894 414 q 972 389 933 414 q 1022 326 1010 364 q 1021 247 1035 290 q 976 179 1007 204 q 999 249 997 213 q 990 317 1001 286 q 956 373 981 346 q 894 414 932 400 m 28 54 q -5 101 7 71 q -8 157 -17 132 q 29 199 1 183 q 85 217 57 215 q 45 187 60 207 q 24 147 31 167 q 15 102 17 126 q 28 54 14 78 m 985 158 q 1024 133 1004 153 q 1046 93 1044 114 q 1028 50 1046 71 q 990 21 1011 29 q 1010 55 1007 36 q 1013 90 1013 74 q 1006 127 1011 108 q 985 158 1001 146 m 624 147 q 581 91 611 115 q 517 67 550 67 q 451 91 482 67 q 410 147 421 115 q 460 110 431 121 q 517 100 489 100 q 572 110 543 100 q 624 147 601 121 m 732 31 q 682 29 710 24 q 640 53 654 35 q 629 99 626 71 q 644 147 632 128 q 648 106 640 125 q 667 72 656 88 q 694 45 678 58 q 732 31 710 32 m 388 147 q 401 93 400 125 q 385 42 401 61 q 338 17 369 22 q 282 21 307 13 q 327 34 308 21 q 360 63 346 47 q 383 101 374 79 q 388 147 392 122 m 135 -83 q 60 -108 103 -108 q -17 -87 17 -108 q -70 -28 -51 -67 q -82 49 -89 10 q -57 -25 -76 10 q -10 -76 -37 -60 q 58 -94 18 -93 q 135 -83 97 -96 m 919 -83 q 831 -131 885 -122 q 729 -119 776 -139 q 649 -56 682 -100 q 617 39 615 -12 q 665 -51 633 -11 q 735 -107 696 -92 q 824 -115 772 -122 q 919 -83 875 -107 m 260 21 q 210 -39 246 -14 q 136 -61 174 -64 q 65 -31 99 -60 q 21 33 32 -3 q 75 -12 43 3 q 138 -28 107 -26 q 201 -18 168 -29 q 260 21 235 -7 m 969 21 q 926 -35 957 -11 q 861 -60 896 -60 q 797 -35 828 -60 q 754 21 765 -11 q 806 -15 776 -4 q 861 -26 835 -26 q 918 -16 889 -26 q 969 21 947 -6 m 218 1325 q 288 1410 236 1378 q 394 1443 339 1442 q 503 1415 451 1444 q 576 1333 556 1386 q 490 1403 539 1375 q 396 1429 440 1431 q 302 1399 350 1428 q 218 1325 254 1369 m 150 1051 q 97 1117 113 1074 q 90 1201 82 1160 q 130 1278 99 1244 q 204 1317 161 1311 q 138 1265 167 1297 q 104 1199 110 1233 q 110 1125 97 1165 q 150 1051 122 1085 m 461 1229 q 496 1277 471 1256 q 549 1299 521 1299 q 602 1277 576 1299 q 638 1229 628 1256 q 595 1258 619 1250 q 549 1265 571 1265 q 503 1258 526 1265 q 461 1229 479 1250 m 301 1229 q 328 1269 308 1250 q 369 1288 349 1288 q 412 1269 392 1288 q 439 1229 432 1250 q 406 1250 425 1246 q 369 1254 388 1254 q 334 1250 353 1254 q 301 1229 315 1246 m 660 1229 q 711 1249 681 1244 q 764 1240 742 1254 q 794 1196 786 1226 q 797 1140 803 1165 q 779 1183 794 1165 q 746 1213 764 1201 q 706 1230 729 1224 q 660 1229 683 1236 m 251 1079 q 219 1122 232 1094 q 215 1175 207 1150 q 250 1213 224 1199 q 301 1229 276 1228 q 265 1201 278 1219 q 247 1164 253 1183 q 240 1122 240 1144 q 251 1079 239 1100 m 797 1118 q 783 1066 797 1093 q 746 1031 768 1039 q 693 1032 722 1021 q 649 1063 664 1043 q 692 1052 669 1050 q 733 1061 715 1054 q 771 1081 753 1068 q 797 1118 789 1094 m 433 1063 q 399 1016 424 1038 q 349 994 375 994 q 297 1016 321 994 q 263 1063 272 1038 q 303 1035 279 1042 q 349 1028 326 1028 q 393 1035 369 1028 q 433 1063 417 1042 m 626 1063 q 592 1016 617 1038 q 540 994 568 994 q 490 1016 514 994 q 456 1063 465 1038 q 496 1035 472 1042 q 540 1028 519 1028 q 585 1035 563 1028 q 626 1063 608 1042 m 899 1050 q 874 975 900 1010 q 810 926 847 940 q 728 919 771 911 q 660 958 686 928 q 734 933 694 939 q 804 939 774 928 q 860 981 835 950 q 899 1050 886 1011 z "},"Ą":{"ha":1049,"x_min":-79,"x_max":1193,"o":"m 721 1049 q 808 1035 765 1057 q 874 974 850 1013 q 897 888 897 936 q 868 804 896 840 q 881 892 882 847 q 861 967 881 936 q 804 1019 843 997 q 721 1049 765 1042 m 433 951 q 467 997 443 976 q 517 1018 490 1018 q 565 997 542 1018 q 599 951 589 976 q 559 978 582 971 q 517 985 536 985 q 473 978 496 985 q 433 951 450 971 m 621 951 q 668 967 639 964 q 715 956 697 969 q 740 914 735 942 q 738 864 744 886 q 724 902 736 886 q 696 929 711 918 q 662 949 681 940 q 621 951 643 957 m 306 847 q 297 899 296 869 q 315 943 299 928 q 362 960 333 960 q 413 951 390 961 q 371 944 389 954 q 339 919 353 933 q 314 889 325 907 q 306 847 303 871 m 125 647 q 78 727 89 678 q 83 821 68 776 q 139 898 100 865 q 225 931 178 931 q 145 883 181 914 q 97 817 110 853 q 93 735 85 781 q 125 647 101 689 m 746 843 q 820 817 783 842 q 869 757 857 793 q 869 679 883 721 q 825 613 856 638 q 847 681 846 646 q 839 746 849 717 q 805 802 829 775 q 746 843 781 829 m 208 571 q 161 644 175 599 q 161 731 147 690 q 215 799 175 771 q 297 826 256 826 q 231 782 258 811 q 192 721 203 753 q 183 648 181 688 q 208 571 186 608 m 422 392 q 438 414 428 404 q 429 414 433 414 q 443 421 436 417 q 468 439 454 432 q 504 494 492 463 q 485 515 492 504 q 473 579 468 543 q 497 640 478 615 q 493 618 494 629 q 532 565 518 599 q 540 501 546 532 q 568 482 553 490 q 601 471 583 474 q 532 479 568 464 q 511 450 525 464 l 511 450 q 559 424 538 447 q 588 376 581 401 q 551 406 572 397 q 508 417 529 415 q 465 415 488 419 q 422 392 442 410 m 493 617 q 496 573 490 594 q 513 535 501 551 q 509 577 514 556 q 493 617 504 599 m 833 592 q 896 572 864 592 q 938 524 928 553 q 935 458 949 493 q 899 404 922 424 q 914 460 914 431 q 907 513 914 489 q 881 558 899 536 q 833 592 863 581 m 122 325 q 81 391 94 350 q 79 467 67 432 q 128 526 92 503 q 201 550 164 550 q 144 511 167 538 q 111 456 121 485 q 102 393 100 428 q 122 325 104 358 m 906 383 q 970 363 938 383 q 1013 313 1003 343 q 1011 246 1024 282 q 974 190 999 210 q 990 247 990 218 q 982 301 990 276 q 955 349 974 325 q 906 383 936 372 m 49 111 q 10 168 24 132 q 8 233 -3 204 q 51 284 19 264 q 115 304 83 304 q 67 270 86 293 q 40 224 49 247 q 31 169 31 199 q 49 111 32 139 m 1051 282 q 1133 244 1097 278 q 1181 167 1168 210 q 1179 75 1193 122 q 1128 1 1165 28 q 1165 83 1154 39 q 1167 163 1176 128 q 1125 230 1157 197 q 1051 282 1093 263 m 981 169 q 1026 146 1004 164 q 1053 104 1049 128 q 1039 56 1056 81 q 1001 21 1022 32 q 1020 60 1018 39 q 1019 99 1022 81 q 1008 138 1017 118 q 981 169 1000 157 m 503 147 q 490 85 506 118 q 449 40 475 53 q 387 37 421 28 q 331 67 353 46 q 385 58 358 54 q 433 71 413 61 q 475 99 456 81 q 503 147 494 118 m 763 -112 q 695 -85 728 -110 q 653 -26 663 -61 q 654 25 647 -3 q 678 74 661 53 q 638 56 660 61 q 597 54 617 50 q 548 90 568 61 q 525 147 528 118 q 560 106 538 121 q 606 86 582 92 q 654 83 628 81 q 706 101 681 85 q 681 41 685 74 q 686 -18 678 8 q 712 -72 693 -46 q 763 -112 731 -97 m 113 -83 q 29 -83 72 -97 q -40 -35 -14 -68 q -73 42 -67 -3 q -57 124 -79 88 q -58 42 -65 83 q -29 -26 -51 0 q 31 -68 -8 -53 q 113 -83 71 -83 m 135 21 q 95 7 119 11 q 57 14 71 3 q 39 49 42 25 q 40 90 36 74 q 53 61 42 72 q 76 42 65 50 q 103 24 89 32 q 135 21 117 17 m 324 47 q 298 -4 319 21 q 250 -33 276 -29 q 197 -20 224 -37 q 157 21 169 -3 q 200 0 176 3 q 246 0 224 -3 q 288 13 267 3 q 324 47 310 24 m 692 -231 q 608 -198 646 -229 q 557 -124 571 -167 q 553 -33 542 -81 q 599 43 564 15 q 567 -40 575 4 q 569 -119 558 -85 q 615 -184 581 -154 q 692 -231 649 -214 m 981 21 q 1020 -22 1004 7 q 1031 -79 1036 -51 q 999 -126 1025 -106 q 944 -150 972 -146 q 981 -115 969 -137 q 997 -72 993 -93 q 999 -26 1001 -50 q 981 21 997 -1 m 886 -271 q 826 -276 860 -282 q 774 -250 792 -271 q 753 -194 754 -228 q 767 -135 753 -160 q 773 -187 763 -162 q 799 -228 783 -211 q 836 -258 814 -244 q 886 -271 858 -272 m 967 -156 q 989 -197 981 -171 q 989 -242 997 -222 q 954 -269 979 -260 q 908 -278 929 -279 q 940 -257 929 -272 q 958 -226 951 -242 q 970 -193 965 -211 q 967 -156 975 -175 m 935 -386 q 849 -413 899 -414 q 763 -387 800 -412 q 702 -319 724 -362 q 692 -231 681 -275 q 718 -315 697 -275 q 769 -375 739 -356 q 845 -398 800 -396 q 935 -386 890 -400 z "},"Å":{"ha":1049,"x_min":-89,"x_max":1114,"o":"m 664 1056 q 749 1060 704 1072 q 824 1015 794 1047 q 863 936 854 982 q 851 851 872 890 q 847 938 857 896 q 814 1006 838 979 q 749 1044 790 1031 q 664 1056 707 1057 m 368 951 q 405 1001 378 979 q 461 1024 432 1024 q 517 1001 490 1024 q 554 951 544 979 q 510 982 536 974 q 461 990 485 990 q 413 982 438 990 q 368 951 388 974 m 576 951 q 622 982 593 971 q 675 983 651 993 q 713 947 699 975 q 728 894 728 919 q 700 932 718 918 q 663 953 682 946 q 622 962 644 960 q 576 951 599 964 m 279 775 q 250 833 258 797 q 256 897 242 869 q 303 940 269 925 q 368 951 338 954 q 317 924 338 944 q 286 882 297 904 q 271 831 275 860 q 279 775 267 803 m 100 575 q 50 660 61 607 q 56 761 39 713 q 114 843 72 808 q 207 878 156 878 q 120 827 158 860 q 68 756 82 794 q 65 668 56 718 q 100 575 74 618 m 735 874 q 813 848 775 874 q 864 785 851 822 q 863 703 878 747 q 818 633 849 660 q 841 706 839 668 q 833 774 843 743 q 797 832 822 804 q 735 874 772 860 m 189 514 q 143 583 157 539 q 143 664 129 626 q 194 728 156 703 q 272 754 232 753 q 210 711 235 739 q 174 653 185 683 q 166 586 164 624 q 189 514 168 549 m 921 653 q 1027 613 979 653 q 1094 517 1075 572 q 1101 400 1114 461 q 1044 303 1089 339 q 1085 410 1074 353 q 1081 513 1097 468 q 1021 594 1065 557 q 921 653 976 632 m 522 376 q 496 417 506 392 q 421 388 461 389 q 461 413 444 397 q 489 447 478 428 q 494 476 488 463 q 508 496 499 488 q 511 543 514 519 q 500 550 504 546 q 486 588 486 564 q 494 629 486 613 q 503 598 493 611 q 524 574 513 585 q 547 553 533 564 q 579 544 560 543 q 536 538 560 536 q 540 515 539 526 q 585 524 564 525 q 560 511 571 519 q 540 492 549 503 q 538 472 540 482 q 515 435 531 453 q 513 406 513 421 q 522 376 514 392 m 825 613 q 885 594 856 613 q 925 549 915 576 q 923 488 935 521 q 888 435 911 454 q 902 488 903 461 q 894 538 901 515 q 869 581 886 560 q 825 613 853 603 m 92 238 q 44 310 58 264 q 44 397 31 357 q 99 465 58 438 q 181 493 139 492 q 114 448 142 478 q 75 386 86 418 q 67 314 64 354 q 92 238 69 274 m 894 414 q 972 389 933 414 q 1022 326 1010 364 q 1021 247 1035 290 q 976 179 1007 204 q 999 249 997 213 q 990 317 1001 286 q 956 373 981 346 q 894 414 932 400 m 28 54 q -5 101 7 71 q -8 157 -17 132 q 29 199 1 183 q 85 217 57 215 q 45 187 60 207 q 24 147 31 167 q 15 102 17 126 q 28 54 14 78 m 985 158 q 1024 133 1004 153 q 1046 93 1044 114 q 1028 50 1046 71 q 990 21 1011 29 q 1010 55 1007 36 q 1013 90 1013 74 q 1006 127 1011 108 q 985 158 1001 146 m 624 147 q 581 91 611 115 q 517 67 550 67 q 451 91 482 67 q 410 147 421 115 q 460 110 431 121 q 517 100 489 100 q 572 110 543 100 q 624 147 601 121 m 732 31 q 682 29 710 24 q 640 53 654 35 q 629 99 626 71 q 644 147 632 128 q 648 106 640 125 q 667 72 656 88 q 694 45 678 58 q 732 31 710 32 m 388 147 q 401 93 400 125 q 385 42 401 61 q 338 17 369 22 q 282 21 307 13 q 327 34 308 21 q 360 63 346 47 q 383 101 374 79 q 388 147 392 122 m 135 -83 q 60 -108 103 -108 q -17 -87 17 -108 q -70 -28 -51 -67 q -82 49 -89 10 q -57 -25 -76 10 q -10 -76 -37 -60 q 58 -94 18 -93 q 135 -83 97 -96 m 919 -83 q 831 -131 885 -122 q 729 -119 776 -139 q 649 -56 682 -100 q 617 39 615 -12 q 665 -51 633 -11 q 735 -107 696 -92 q 824 -115 772 -122 q 919 -83 875 -107 m 260 21 q 210 -39 246 -14 q 136 -61 174 -64 q 65 -31 99 -60 q 21 33 32 -3 q 75 -12 43 3 q 138 -28 107 -26 q 201 -18 168 -29 q 260 21 235 -7 m 969 21 q 926 -35 957 -11 q 861 -60 896 -60 q 797 -35 828 -60 q 754 21 765 -11 q 806 -15 776 -4 q 861 -26 835 -26 q 918 -16 889 -26 q 969 21 947 -6 m 408 1178 q 423 1241 407 1208 q 467 1285 439 1274 q 529 1288 494 1297 q 586 1256 564 1278 q 531 1267 558 1269 q 481 1254 503 1264 q 438 1226 458 1244 q 408 1178 417 1207 m 586 1256 q 635 1212 614 1243 q 654 1150 657 1181 q 626 1091 651 1118 q 569 1056 600 1064 q 606 1101 594 1075 q 621 1153 618 1128 q 615 1206 622 1178 q 586 1256 608 1233 m 425 967 q 338 999 378 967 q 282 1075 299 1031 q 276 1169 265 1119 q 322 1250 286 1219 q 290 1162 299 1208 q 294 1079 282 1115 q 344 1014 308 1044 q 425 967 381 983 m 558 1107 q 522 1125 540 1111 q 500 1156 503 1139 q 508 1188 497 1171 q 532 1214 519 1204 q 518 1222 526 1219 q 540 1218 529 1222 l 542 1219 l 540 1218 q 571 1204 557 1214 q 589 1182 585 1194 q 584 1142 594 1164 q 558 1107 574 1119 q 565 1140 568 1124 q 557 1171 563 1157 q 549 1192 554 1181 q 536 1211 544 1203 q 530 1185 529 1199 q 533 1161 531 1172 q 539 1132 535 1147 q 558 1107 543 1117 m 744 1193 q 760 1094 769 1149 q 718 1000 751 1039 q 631 944 683 961 q 531 944 579 926 q 631 961 582 944 q 707 1010 681 978 q 743 1091 733 1040 q 744 1193 753 1142 m 547 1050 q 492 1033 525 1035 q 436 1047 458 1031 q 406 1095 414 1063 q 407 1154 399 1128 q 424 1106 408 1126 q 456 1074 439 1086 q 497 1053 474 1061 q 547 1050 521 1044 z "},"Ã":{"ha":1049,"x_min":-89,"x_max":1114,"o":"m 664 1056 q 749 1060 704 1072 q 824 1015 794 1047 q 863 936 854 982 q 851 851 872 890 q 847 938 857 896 q 814 1006 838 979 q 749 1044 790 1031 q 664 1056 707 1057 m 368 951 q 405 1001 378 979 q 461 1024 432 1024 q 517 1001 490 1024 q 554 951 544 979 q 510 982 536 974 q 461 990 485 990 q 413 982 438 990 q 368 951 388 974 m 576 951 q 622 982 593 971 q 675 983 651 993 q 713 947 699 975 q 728 894 728 919 q 700 932 718 918 q 663 953 682 946 q 622 962 644 960 q 576 951 599 964 m 279 775 q 250 833 258 797 q 256 897 242 869 q 303 940 269 925 q 368 951 338 954 q 317 924 338 944 q 286 882 297 904 q 271 831 275 860 q 279 775 267 803 m 100 575 q 50 660 61 607 q 56 761 39 713 q 114 843 72 808 q 207 878 156 878 q 120 827 158 860 q 68 756 82 794 q 65 668 56 718 q 100 575 74 618 m 735 874 q 813 848 775 874 q 864 785 851 822 q 863 703 878 747 q 818 633 849 660 q 841 706 839 668 q 833 774 843 743 q 797 832 822 804 q 735 874 772 860 m 189 514 q 143 583 157 539 q 143 664 129 626 q 194 728 156 703 q 272 754 232 753 q 210 711 235 739 q 174 653 185 683 q 166 586 164 624 q 189 514 168 549 m 921 653 q 1027 613 979 653 q 1094 517 1075 572 q 1101 400 1114 461 q 1044 303 1089 339 q 1085 410 1074 353 q 1081 513 1097 468 q 1021 594 1065 557 q 921 653 976 632 m 522 376 q 496 417 506 392 q 421 388 461 389 q 461 413 444 397 q 489 447 478 428 q 494 476 488 463 q 508 496 499 488 q 511 543 514 519 q 500 550 504 546 q 486 588 486 564 q 494 629 486 613 q 503 598 493 611 q 524 574 513 585 q 547 553 533 564 q 579 544 560 543 q 536 538 560 536 q 540 515 539 526 q 585 524 564 525 q 560 511 571 519 q 540 492 549 503 q 538 472 540 482 q 515 435 531 453 q 513 406 513 421 q 522 376 514 392 m 825 613 q 885 594 856 613 q 925 549 915 576 q 923 488 935 521 q 888 435 911 454 q 902 488 903 461 q 894 538 901 515 q 869 581 886 560 q 825 613 853 603 m 92 238 q 44 310 58 264 q 44 397 31 357 q 99 465 58 438 q 181 493 139 492 q 114 448 142 478 q 75 386 86 418 q 67 314 64 354 q 92 238 69 274 m 894 414 q 972 389 933 414 q 1022 326 1010 364 q 1021 247 1035 290 q 976 179 1007 204 q 999 249 997 213 q 990 317 1001 286 q 956 373 981 346 q 894 414 932 400 m 28 54 q -5 101 7 71 q -8 157 -17 132 q 29 199 1 183 q 85 217 57 215 q 45 187 60 207 q 24 147 31 167 q 15 102 17 126 q 28 54 14 78 m 985 158 q 1024 133 1004 153 q 1046 93 1044 114 q 1028 50 1046 71 q 990 21 1011 29 q 1010 55 1007 36 q 1013 90 1013 74 q 1006 127 1011 108 q 985 158 1001 146 m 624 147 q 581 91 611 115 q 517 67 550 67 q 451 91 482 67 q 410 147 421 115 q 460 110 431 121 q 517 100 489 100 q 572 110 543 100 q 624 147 601 121 m 732 31 q 682 29 710 24 q 640 53 654 35 q 629 99 626 71 q 644 147 632 128 q 648 106 640 125 q 667 72 656 88 q 694 45 678 58 q 732 31 710 32 m 388 147 q 401 93 400 125 q 385 42 401 61 q 338 17 369 22 q 282 21 307 13 q 327 34 308 21 q 360 63 346 47 q 383 101 374 79 q 388 147 392 122 m 135 -83 q 60 -108 103 -108 q -17 -87 17 -108 q -70 -28 -51 -67 q -82 49 -89 10 q -57 -25 -76 10 q -10 -76 -37 -60 q 58 -94 18 -93 q 135 -83 97 -96 m 919 -83 q 831 -131 885 -122 q 729 -119 776 -139 q 649 -56 682 -100 q 617 39 615 -12 q 665 -51 633 -11 q 735 -107 696 -92 q 824 -115 772 -122 q 919 -83 875 -107 m 260 21 q 210 -39 246 -14 q 136 -61 174 -64 q 65 -31 99 -60 q 21 33 32 -3 q 75 -12 43 3 q 138 -28 107 -26 q 201 -18 168 -29 q 260 21 235 -7 m 969 21 q 926 -35 957 -11 q 861 -60 896 -60 q 797 -35 828 -60 q 754 21 765 -11 q 806 -15 776 -4 q 861 -26 835 -26 q 918 -16 889 -26 q 969 21 947 -6 m 510 1356 q 565 1425 524 1399 q 653 1451 607 1451 q 741 1428 699 1453 q 799 1360 783 1403 q 729 1417 769 1394 q 653 1438 689 1439 q 577 1415 617 1438 q 510 1356 538 1392 m 489 1253 q 529 1309 500 1285 q 592 1335 558 1333 q 656 1311 625 1335 q 697 1257 686 1288 q 647 1292 675 1282 q 592 1301 618 1301 q 538 1290 567 1300 q 489 1253 510 1279 m 286 1172 q 299 1237 283 1203 q 343 1285 315 1271 q 408 1290 371 1299 q 467 1260 444 1282 q 409 1269 438 1272 q 357 1256 381 1267 q 315 1224 335 1244 q 286 1172 294 1203 m 714 1257 q 760 1231 738 1251 q 785 1185 783 1210 q 769 1136 788 1161 q 729 1100 751 1111 q 751 1140 747 1118 q 753 1182 754 1163 q 742 1222 750 1201 q 714 1257 735 1243 m 436 1104 q 392 1070 421 1083 q 338 1064 363 1057 q 296 1098 313 1071 q 278 1151 279 1125 q 308 1115 289 1128 q 347 1096 328 1101 q 391 1090 368 1090 q 436 1104 414 1089 m 713 1086 q 658 1024 696 1049 q 579 1003 619 1000 q 505 1036 539 1006 q 460 1106 471 1067 q 517 1056 483 1072 q 582 1036 550 1039 q 649 1045 614 1033 q 713 1086 685 1057 m 340 958 q 287 931 319 936 q 226 936 254 925 q 181 976 199 949 q 164 1033 163 1003 q 232 949 183 969 q 340 958 282 928 m 657 954 q 593 881 639 907 q 497 854 547 854 q 402 883 447 856 q 340 958 357 911 q 415 894 372 919 q 497 868 457 868 q 581 892 538 868 q 657 954 625 917 z "},"Æ":{"ha":1396,"x_min":-78,"x_max":1496,"o":"m 707 1056 q 779 1141 726 1110 q 890 1172 832 1172 q 1001 1141 949 1172 q 1074 1056 1054 1110 q 986 1129 1036 1100 q 890 1158 936 1158 q 794 1129 844 1158 q 707 1056 744 1100 m 413 951 q 464 1018 426 990 q 543 1046 501 1046 q 622 1018 585 1046 q 674 951 660 990 q 612 998 647 983 q 543 1013 576 1013 q 474 998 510 1013 q 413 951 439 983 m 1063 951 q 1120 1009 1081 986 q 1200 1026 1160 1032 q 1272 989 1239 1021 q 1313 918 1304 957 q 1259 970 1292 951 q 1196 993 1226 989 q 1128 988 1164 997 q 1063 951 1092 978 m 696 951 q 733 1002 706 979 q 790 1025 761 1025 q 847 1002 819 1025 q 885 951 875 979 q 840 983 865 974 q 790 992 814 992 q 741 983 767 992 q 696 951 715 974 m 885 951 q 915 995 893 975 q 963 1015 938 1015 q 1010 995 988 1015 q 1040 951 1032 975 q 1003 976 1025 971 q 963 982 982 982 q 922 976 943 982 q 885 951 900 971 m 269 726 q 235 802 242 757 q 247 883 228 847 q 308 938 267 918 q 390 951 350 957 q 322 919 351 943 q 276 868 292 896 q 258 801 261 839 q 269 726 254 764 m 119 615 q 72 699 82 647 q 76 796 61 750 q 133 875 93 842 q 222 910 174 908 q 140 860 176 892 q 90 792 103 828 q 85 706 76 754 q 119 615 94 658 m 1313 897 q 1358 861 1338 886 q 1378 810 1378 836 q 1355 759 1376 783 q 1308 726 1333 735 q 1337 766 1329 743 q 1344 811 1344 789 q 1338 856 1344 832 q 1313 897 1332 879 m 1417 788 q 1476 726 1456 768 q 1492 639 1496 683 q 1458 558 1486 596 q 1386 511 1429 521 q 1448 570 1422 535 q 1478 640 1474 606 q 1465 716 1482 676 q 1417 788 1447 756 m 956 593 l 956 594 q 933 593 944 592 q 964 611 951 597 q 981 633 971 624 q 988 647 983 639 q 999 682 994 663 q 993 722 1003 701 q 1021 665 1017 700 q 1046 675 1033 671 q 1015 722 1025 697 q 1072 678 1039 694 q 1126 660 1099 676 q 1150 658 1138 658 q 1221 674 1185 658 q 1285 722 1257 690 q 1237 658 1271 686 q 1164 625 1203 631 q 1182 593 1176 610 q 1143 625 1165 613 q 1085 643 1114 626 q 1069 644 1076 644 q 1018 636 1043 644 q 1017 632 1018 635 q 992 607 1010 617 q 957 594 975 597 l 956 593 m 206 543 q 172 590 185 560 q 169 647 160 621 q 206 689 178 672 q 261 706 235 706 q 222 676 236 696 q 200 636 207 656 q 192 591 193 615 q 206 543 192 567 m 439 429 q 480 456 454 446 q 526 457 506 465 q 539 450 533 456 q 536 469 536 460 q 542 500 536 485 q 446 450 503 453 q 501 491 479 464 q 532 547 522 518 q 538 589 538 567 q 518 604 525 594 q 506 649 504 621 q 519 696 508 676 q 519 669 517 682 q 561 606 549 644 q 582 591 571 597 q 608 585 593 585 q 567 581 589 579 q 563 538 569 557 q 560 528 561 532 q 608 563 581 553 q 578 519 586 544 q 569 469 569 493 q 578 421 569 446 q 608 376 586 396 q 567 404 586 385 q 571 376 571 390 q 547 408 564 397 q 514 426 531 419 q 478 436 497 433 q 439 429 458 439 m 1204 593 q 1262 583 1232 596 q 1304 547 1292 571 q 1308 492 1317 524 q 1282 440 1300 460 q 1289 488 1293 464 q 1275 532 1285 513 q 1247 569 1264 551 q 1204 593 1231 588 m 133 339 q 97 392 110 358 q 94 456 85 426 q 136 503 106 485 q 197 522 167 521 q 152 489 169 511 q 126 444 135 467 q 118 393 118 421 q 133 339 118 365 m 1054 250 q 1097 308 1067 282 q 1161 340 1126 333 q 1115 379 1132 354 q 1162 361 1138 363 q 1207 365 1186 360 q 1249 382 1228 369 q 1282 418 1269 394 q 1264 371 1279 394 q 1226 336 1249 347 q 1283 300 1257 325 q 1319 246 1308 275 q 1257 294 1293 278 q 1188 311 1221 310 q 1118 297 1154 311 q 1054 250 1082 282 m 900 299 q 910 308 904 304 q 900 319 904 314 q 914 313 907 315 q 950 330 931 324 q 986 329 969 336 q 1013 308 1001 324 q 1059 333 1036 317 q 1093 379 1082 350 q 1074 320 1092 350 q 1028 278 1056 290 q 1032 250 1032 264 q 1015 275 1026 264 q 963 277 990 268 q 914 304 935 286 q 900 299 907 303 m 67 149 q 32 198 44 167 q 29 256 19 229 q 68 300 39 283 q 125 318 97 317 q 83 288 99 308 q 61 246 68 267 q 52 198 53 224 q 67 149 51 172 m 928 307 q 967 301 946 301 q 948 306 958 304 q 928 307 938 307 m 1324 222 q 1375 180 1353 210 q 1396 118 1397 150 q 1368 58 1393 86 q 1314 22 1343 31 q 1350 68 1339 42 q 1363 119 1361 94 q 1356 174 1364 146 q 1324 222 1347 201 m 642 21 q 591 24 619 17 q 551 51 563 32 q 544 101 539 72 q 564 147 550 129 q 563 106 557 125 q 579 69 569 86 q 603 39 589 54 q 642 21 618 24 m 542 147 q 519 83 540 115 q 465 43 497 51 q 399 48 435 33 q 344 89 364 63 q 402 69 372 71 q 456 75 432 68 q 505 100 481 82 q 542 147 529 118 m 151 21 q 103 15 131 13 q 61 35 75 18 q 47 79 46 51 q 58 126 49 107 q 65 88 56 106 q 86 57 74 71 q 113 33 97 44 q 151 21 129 21 m 151 -83 q 67 -99 114 -106 q -12 -65 21 -93 q -62 6 -47 -39 q -64 92 -78 50 q -47 7 -62 47 q -4 -56 -32 -33 q 65 -85 22 -78 q 151 -83 108 -92 m 338 68 q 317 14 335 42 q 274 -21 300 -14 q 218 -15 247 -28 q 172 21 189 -1 q 219 6 194 6 q 264 11 243 6 q 306 30 285 17 q 338 68 326 43 m 1290 21 q 1249 -35 1279 -10 q 1185 -60 1218 -60 q 1122 -35 1151 -60 q 1079 21 1092 -10 q 1130 -15 1101 -4 q 1185 -26 1158 -26 q 1240 -15 1211 -26 q 1290 21 1269 -4 m 1057 21 q 1022 -27 1047 -6 q 968 -49 997 -49 q 915 -27 940 -49 q 881 21 890 -6 q 922 -8 899 0 q 968 -15 946 -15 q 1015 -8 992 -15 q 1057 21 1039 0 m 858 21 q 819 -31 847 -8 q 761 -54 792 -54 q 702 -31 731 -54 q 664 21 674 -8 q 710 -12 683 -3 q 761 -21 736 -21 q 812 -12 785 -21 q 858 21 839 -3 m 1411 -24 q 1359 -113 1401 -76 q 1264 -160 1317 -150 q 1160 -149 1213 -169 q 1079 -83 1107 -129 q 1171 -135 1121 -117 q 1263 -146 1221 -154 q 1344 -104 1304 -139 q 1411 -24 1385 -69 m 881 -83 q 817 -153 863 -128 q 724 -176 771 -178 q 632 -147 675 -175 q 574 -72 589 -118 q 644 -135 603 -110 q 724 -162 685 -161 q 805 -142 763 -164 q 881 -83 847 -119 z "},"Ǽ":{"ha":1396,"x_min":-78,"x_max":1496,"o":"m 707 1056 q 779 1141 726 1110 q 890 1172 832 1172 q 1001 1141 949 1172 q 1074 1056 1054 1110 q 986 1129 1036 1100 q 890 1158 936 1158 q 794 1129 844 1158 q 707 1056 744 1100 m 413 951 q 464 1018 426 990 q 543 1046 501 1046 q 622 1018 585 1046 q 674 951 660 990 q 612 998 647 983 q 543 1013 576 1013 q 474 998 510 1013 q 413 951 439 983 m 1063 951 q 1120 1009 1081 986 q 1200 1026 1160 1032 q 1272 989 1239 1021 q 1313 918 1304 957 q 1259 970 1292 951 q 1196 993 1226 989 q 1128 988 1164 997 q 1063 951 1092 978 m 696 951 q 733 1002 706 979 q 790 1025 761 1025 q 847 1002 819 1025 q 885 951 875 979 q 840 983 865 974 q 790 992 814 992 q 741 983 767 992 q 696 951 715 974 m 885 951 q 915 995 893 975 q 963 1015 938 1015 q 1010 995 988 1015 q 1040 951 1032 975 q 1003 976 1025 971 q 963 982 982 982 q 922 976 943 982 q 885 951 900 971 m 269 726 q 235 802 242 757 q 247 883 228 847 q 308 938 267 918 q 390 951 350 957 q 322 919 351 943 q 276 868 292 896 q 258 801 261 839 q 269 726 254 764 m 119 615 q 72 699 82 647 q 76 796 61 750 q 133 875 93 842 q 222 910 174 908 q 140 860 176 892 q 90 792 103 828 q 85 706 76 754 q 119 615 94 658 m 1313 897 q 1358 861 1338 886 q 1378 810 1378 836 q 1355 759 1376 783 q 1308 726 1333 735 q 1337 766 1329 743 q 1344 811 1344 789 q 1338 856 1344 832 q 1313 897 1332 879 m 1417 788 q 1476 726 1456 768 q 1492 639 1496 683 q 1458 558 1486 596 q 1386 511 1429 521 q 1448 570 1422 535 q 1478 640 1474 606 q 1465 716 1482 676 q 1417 788 1447 756 m 956 593 l 956 594 q 933 593 944 592 q 964 611 951 597 q 981 633 971 624 q 988 647 983 639 q 999 682 994 663 q 993 722 1003 701 q 1021 665 1017 700 q 1046 675 1033 671 q 1015 722 1025 697 q 1072 678 1039 694 q 1126 660 1099 676 q 1150 658 1138 658 q 1221 674 1185 658 q 1285 722 1257 690 q 1237 658 1271 686 q 1164 625 1203 631 q 1182 593 1176 610 q 1143 625 1165 613 q 1085 643 1114 626 q 1069 644 1076 644 q 1018 636 1043 644 q 1017 632 1018 635 q 992 607 1010 617 q 957 594 975 597 l 956 593 m 206 543 q 172 590 185 560 q 169 647 160 621 q 206 689 178 672 q 261 706 235 706 q 222 676 236 696 q 200 636 207 656 q 192 591 193 615 q 206 543 192 567 m 439 429 q 480 456 454 446 q 526 457 506 465 q 539 450 533 456 q 536 469 536 460 q 542 500 536 485 q 446 450 503 453 q 501 491 479 464 q 532 547 522 518 q 538 589 538 567 q 518 604 525 594 q 506 649 504 621 q 519 696 508 676 q 519 669 517 682 q 561 606 549 644 q 582 591 571 597 q 608 585 593 585 q 567 581 589 579 q 563 538 569 557 q 560 528 561 532 q 608 563 581 553 q 578 519 586 544 q 569 469 569 493 q 578 421 569 446 q 608 376 586 396 q 567 404 586 385 q 571 376 571 390 q 547 408 564 397 q 514 426 531 419 q 478 436 497 433 q 439 429 458 439 m 1204 593 q 1262 583 1232 596 q 1304 547 1292 571 q 1308 492 1317 524 q 1282 440 1300 460 q 1289 488 1293 464 q 1275 532 1285 513 q 1247 569 1264 551 q 1204 593 1231 588 m 133 339 q 97 392 110 358 q 94 456 85 426 q 136 503 106 485 q 197 522 167 521 q 152 489 169 511 q 126 444 135 467 q 118 393 118 421 q 133 339 118 365 m 1054 250 q 1097 308 1067 282 q 1161 340 1126 333 q 1115 379 1132 354 q 1162 361 1138 363 q 1207 365 1186 360 q 1249 382 1228 369 q 1282 418 1269 394 q 1264 371 1279 394 q 1226 336 1249 347 q 1283 300 1257 325 q 1319 246 1308 275 q 1257 294 1293 278 q 1188 311 1221 310 q 1118 297 1154 311 q 1054 250 1082 282 m 900 299 q 910 308 904 304 q 900 319 904 314 q 914 313 907 315 q 950 330 931 324 q 986 329 969 336 q 1013 308 1001 324 q 1059 333 1036 317 q 1093 379 1082 350 q 1074 320 1092 350 q 1028 278 1056 290 q 1032 250 1032 264 q 1015 275 1026 264 q 963 277 990 268 q 914 304 935 286 q 900 299 907 303 m 67 149 q 32 198 44 167 q 29 256 19 229 q 68 300 39 283 q 125 318 97 317 q 83 288 99 308 q 61 246 68 267 q 52 198 53 224 q 67 149 51 172 m 928 307 q 967 301 946 301 q 948 306 958 304 q 928 307 938 307 m 1324 222 q 1375 180 1353 210 q 1396 118 1397 150 q 1368 58 1393 86 q 1314 22 1343 31 q 1350 68 1339 42 q 1363 119 1361 94 q 1356 174 1364 146 q 1324 222 1347 201 m 642 21 q 591 24 619 17 q 551 51 563 32 q 544 101 539 72 q 564 147 550 129 q 563 106 557 125 q 579 69 569 86 q 603 39 589 54 q 642 21 618 24 m 542 147 q 519 83 540 115 q 465 43 497 51 q 399 48 435 33 q 344 89 364 63 q 402 69 372 71 q 456 75 432 68 q 505 100 481 82 q 542 147 529 118 m 151 21 q 103 15 131 13 q 61 35 75 18 q 47 79 46 51 q 58 126 49 107 q 65 88 56 106 q 86 57 74 71 q 113 33 97 44 q 151 21 129 21 m 151 -83 q 67 -99 114 -106 q -12 -65 21 -93 q -62 6 -47 -39 q -64 92 -78 50 q -47 7 -62 47 q -4 -56 -32 -33 q 65 -85 22 -78 q 151 -83 108 -92 m 338 68 q 317 14 335 42 q 274 -21 300 -14 q 218 -15 247 -28 q 172 21 189 -1 q 219 6 194 6 q 264 11 243 6 q 306 30 285 17 q 338 68 326 43 m 1290 21 q 1249 -35 1279 -10 q 1185 -60 1218 -60 q 1122 -35 1151 -60 q 1079 21 1092 -10 q 1130 -15 1101 -4 q 1185 -26 1158 -26 q 1240 -15 1211 -26 q 1290 21 1269 -4 m 1057 21 q 1022 -27 1047 -6 q 968 -49 997 -49 q 915 -27 940 -49 q 881 21 890 -6 q 922 -8 899 0 q 968 -15 946 -15 q 1015 -8 992 -15 q 1057 21 1039 0 m 858 21 q 819 -31 847 -8 q 761 -54 792 -54 q 702 -31 731 -54 q 664 21 674 -8 q 710 -12 683 -3 q 761 -21 736 -21 q 812 -12 785 -21 q 858 21 839 -3 m 1411 -24 q 1359 -113 1401 -76 q 1264 -160 1317 -150 q 1160 -149 1213 -169 q 1079 -83 1107 -129 q 1171 -135 1121 -117 q 1263 -146 1221 -154 q 1344 -104 1304 -139 q 1411 -24 1385 -69 m 881 -83 q 817 -153 863 -128 q 724 -176 771 -178 q 632 -147 675 -175 q 574 -72 589 -118 q 644 -135 603 -110 q 724 -162 685 -161 q 805 -142 763 -164 q 881 -83 847 -119 m 1051 1356 q 1103 1295 1086 1336 q 1113 1214 1119 1254 q 1076 1142 1106 1175 q 1007 1101 1047 1108 q 1067 1153 1042 1122 q 1099 1217 1093 1185 q 1091 1287 1104 1249 q 1051 1356 1078 1325 m 706 1233 q 743 1297 714 1268 q 807 1329 772 1325 q 878 1310 843 1332 q 928 1257 913 1289 q 871 1290 903 1282 q 811 1296 839 1299 q 754 1278 783 1293 q 706 1233 725 1263 m 500 983 q 453 1059 464 1011 q 457 1151 442 1107 q 508 1226 471 1194 q 592 1258 546 1257 q 515 1211 549 1242 q 469 1146 481 1181 q 467 1067 458 1111 q 500 983 476 1022 m 625 1136 q 614 1172 617 1150 q 621 1207 611 1194 q 653 1221 632 1219 q 692 1217 675 1222 q 665 1206 675 1217 q 647 1185 656 1196 q 631 1163 639 1175 q 625 1136 622 1151 m 925 1169 q 913 1095 929 1133 q 864 1040 896 1057 q 791 1031 832 1024 q 724 1063 750 1039 q 790 1053 757 1049 q 849 1071 824 1057 q 895 1108 874 1083 q 925 1169 917 1133 m 701 1063 q 665 1054 688 1056 q 631 1064 642 1053 q 618 1098 618 1075 q 625 1136 618 1121 q 633 1108 624 1119 q 653 1088 643 1097 q 674 1070 663 1079 q 701 1063 685 1061 z "},"B":{"ha":1019,"x_min":-99,"x_max":1132,"o":"m 621 1054 q 717 1108 658 1097 q 831 1099 776 1119 q 921 1032 883 1079 q 958 929 958 985 q 903 1026 939 982 q 825 1086 868 1071 q 726 1092 782 1101 q 621 1054 671 1082 m -7 686 q -77 772 -56 714 q -87 885 -99 829 q -37 988 -78 942 q 58 1042 3 1033 q -28 971 10 1014 q -74 882 -65 928 q -62 783 -82 838 q -7 686 -43 729 m 392 951 q 438 1010 404 985 q 506 1036 471 1036 q 575 1010 542 1036 q 619 950 608 985 q 566 990 597 978 q 506 1003 535 1003 q 447 991 478 1003 q 392 951 415 979 m 181 951 q 218 1002 190 979 q 275 1025 246 1025 q 332 1002 304 1025 q 369 951 360 979 q 324 983 350 974 q 275 992 299 992 q 226 983 251 992 q 181 951 200 974 m 642 949 q 691 989 658 974 q 751 996 724 1004 q 801 960 781 989 q 825 901 822 932 q 790 944 813 929 q 743 964 767 958 q 694 968 721 969 q 642 949 667 967 m 97 835 q 76 876 83 850 q 78 919 68 901 q 113 946 88 938 q 158 951 138 954 q 126 933 138 947 q 107 904 115 918 q 94 872 100 889 q 97 835 89 854 m 843 890 q 903 885 871 896 q 950 849 936 874 q 958 792 964 825 q 935 736 953 758 q 939 788 944 763 q 921 832 933 813 q 891 869 910 851 q 843 890 872 886 m 97 625 q 47 662 69 635 q 24 718 24 689 q 47 776 24 749 q 97 813 69 803 q 66 769 75 794 q 57 718 57 743 q 66 669 57 694 q 97 625 75 643 m 507 586 q 497 608 501 596 q 490 586 496 596 q 482 619 492 606 q 461 644 472 633 q 456 649 458 647 q 424 671 438 657 q 403 672 414 674 q 415 678 408 675 q 403 694 408 686 q 428 681 414 686 q 458 680 443 682 q 482 671 474 678 q 496 671 489 671 q 506 690 499 682 q 540 714 518 707 q 583 719 561 721 q 593 733 589 725 q 589 718 592 726 q 607 715 599 718 q 588 711 596 714 q 558 666 578 686 q 514 640 538 646 q 506 615 508 629 q 507 586 504 601 m 938 714 q 971 649 963 689 q 964 578 979 608 q 910 528 947 546 q 839 514 874 511 q 897 544 874 522 q 933 592 921 567 q 949 649 946 617 q 938 714 951 682 m 571 704 q 549 689 560 699 q 571 704 561 696 m 97 375 q 38 420 64 388 q 13 489 13 453 q 38 558 13 525 q 97 603 64 590 q 58 549 69 579 q 46 489 46 518 q 58 429 46 460 q 97 375 69 399 m 840 493 q 916 484 876 500 q 975 436 956 468 q 989 361 994 404 q 960 290 983 318 q 967 359 972 325 q 946 419 961 393 q 903 465 931 444 q 840 493 876 486 m 1044 410 q 1110 347 1088 390 q 1128 256 1132 303 q 1096 169 1125 210 q 1022 117 1067 129 q 1085 181 1060 143 q 1114 257 1111 219 q 1097 336 1117 294 q 1044 410 1078 378 m 403 313 q 418 317 410 315 q 403 335 410 325 q 436 317 418 324 q 465 311 453 317 q 501 313 483 310 q 510 331 506 322 q 546 358 522 349 q 593 368 569 368 q 601 381 597 374 q 599 368 600 375 q 617 365 608 368 q 596 361 606 364 q 568 313 588 335 q 524 283 549 290 q 516 252 518 268 q 519 218 514 236 q 499 281 500 244 l 492 281 q 491 248 494 265 q 481 218 488 231 q 476 252 485 238 q 457 278 467 267 q 435 301 447 290 q 403 313 422 313 m 582 354 q 553 331 567 346 q 582 354 569 340 m 97 115 q 36 163 63 128 q 10 235 10 197 q 36 306 10 272 q 97 353 63 340 q 56 297 68 329 q 43 235 43 264 q 56 172 43 204 q 97 115 68 139 m 958 268 q 987 213 978 247 q 983 153 996 179 q 939 113 971 126 q 879 101 907 99 q 925 128 907 108 q 953 168 943 147 q 967 215 964 189 q 958 268 969 242 m 158 -83 q 75 -80 118 -96 q 6 -29 32 -64 q -26 50 -21 4 q -7 132 -31 96 q -10 48 -17 90 q 17 -21 -4 6 q 76 -65 38 -49 q 158 -83 115 -82 m 1014 101 q 996 -2 1024 49 q 921 -81 968 -53 q 817 -108 875 -108 q 717 -74 758 -108 q 822 -92 768 -92 q 914 -69 876 -92 q 978 1 951 -47 q 1014 101 1004 49 m 879 101 q 873 56 881 81 q 847 22 865 32 q 805 22 829 14 q 765 42 781 29 q 801 40 783 35 q 832 53 818 44 q 860 71 846 60 q 879 101 874 82 m 285 21 q 228 -15 264 -3 q 164 -15 193 -26 q 115 28 133 -4 q 97 93 97 61 q 129 44 107 63 q 175 17 151 25 q 228 6 199 7 q 285 21 257 6 m 744 36 q 702 -27 733 1 q 633 -57 671 -56 q 562 -36 597 -60 q 511 21 526 -12 q 569 -16 538 -6 q 632 -25 601 -26 q 692 -8 661 -22 q 744 36 722 7 m 489 21 q 453 -28 479 -6 q 399 -50 426 -50 q 343 -28 369 -50 q 307 21 317 -6 q 350 -9 325 -1 q 399 -17 375 -17 q 446 -9 421 -17 q 489 21 471 -1 z "},"C":{"ha":1018,"x_min":-118,"x_max":1125,"o":"m 569 1068 q 651 1122 599 1108 q 751 1121 703 1136 q 837 1067 800 1107 q 876 976 874 1028 q 821 1060 856 1024 q 749 1108 786 1097 q 660 1108 710 1119 q 569 1068 611 1096 m 483 965 q 549 1027 504 1004 q 639 1043 594 1050 q 719 1000 683 1036 q 763 921 754 964 q 705 981 740 958 q 633 1010 669 1004 q 558 1005 599 1015 q 483 965 517 994 m 210 882 q 239 963 211 924 q 306 1014 267 1001 q 390 1012 346 1028 q 461 964 435 996 q 386 990 425 986 q 315 983 347 993 q 255 947 285 972 q 210 882 225 921 m 783 911 q 842 924 808 925 q 896 906 875 924 q 922 854 917 888 q 917 794 926 821 q 904 844 918 822 q 874 881 890 865 q 834 905 857 894 q 783 911 811 915 m -33 518 q -100 609 -82 550 q -104 725 -118 668 q -46 825 -89 781 q 54 875 -3 869 q -38 808 3 850 q -90 721 -79 767 q -85 620 -101 676 q -33 518 -68 564 m 81 681 q 53 747 58 707 q 65 817 47 786 q 119 860 82 846 q 192 869 157 875 q 133 843 157 863 q 94 799 108 824 q 75 744 81 775 q 81 681 69 713 m 928 776 q 960 729 949 758 q 961 675 971 700 q 925 636 953 651 q 871 621 897 621 q 910 648 896 629 q 931 688 924 667 q 940 730 938 707 q 928 776 942 753 m 749 621 q 675 587 719 594 q 596 597 631 579 q 541 656 561 615 q 526 736 521 697 q 559 669 535 697 q 611 626 583 642 q 676 609 639 613 q 749 621 713 606 m 503 736 q 520 676 518 711 q 506 618 522 642 q 453 586 488 594 q 392 586 419 578 q 442 603 421 588 q 478 638 464 618 q 500 681 492 656 q 503 736 508 707 m 71 411 q 8 461 35 425 q -17 536 -18 497 q 13 610 -15 575 q 76 658 40 646 q 31 600 46 633 q 17 536 17 567 q 28 470 15 504 q 71 411 42 436 m 496 582 q 558 548 531 576 q 592 485 585 519 q 585 413 599 449 q 540 357 571 376 q 573 419 563 385 q 578 482 583 453 q 549 537 572 510 q 496 582 526 564 m 390 564 q 464 514 432 551 q 499 433 496 476 q 476 349 501 390 q 410 290 450 307 q 455 358 442 319 q 465 431 468 397 q 444 501 464 465 q 390 564 425 538 m 976 519 q 912 441 960 469 q 813 413 864 413 q 713 441 760 413 q 647 518 665 469 q 726 452 681 478 q 813 426 771 426 q 899 453 854 426 q 976 519 943 479 m 1044 411 q 1106 342 1086 389 q 1118 249 1125 296 q 1079 164 1111 203 q 1000 115 1047 125 q 1069 177 1040 140 q 1104 251 1099 214 q 1092 331 1110 288 q 1044 411 1075 375 m 619 285 q 643 353 621 319 q 697 396 665 386 q 768 392 731 407 q 826 351 806 378 q 766 371 797 369 q 708 364 735 372 q 657 336 682 356 q 619 285 632 317 m 121 182 q 56 210 88 186 q 18 267 25 233 q 26 334 10 299 q 71 388 43 369 q 48 331 51 361 q 50 274 44 300 q 74 223 57 249 q 121 182 90 197 m 849 351 q 894 365 867 363 q 938 353 921 367 q 958 312 954 339 q 954 265 961 285 q 942 301 954 286 q 917 326 931 317 q 887 347 904 338 q 849 351 869 356 m 424 271 q 460 319 433 297 q 515 340 486 342 q 570 317 544 340 q 604 268 596 294 q 562 299 586 290 q 515 307 538 307 q 467 301 492 308 q 424 271 442 293 m 949 243 q 966 183 964 218 q 950 125 968 149 q 899 93 933 101 q 836 93 864 85 q 888 110 865 94 q 924 144 910 125 q 947 189 938 164 q 949 243 956 214 m 285 44 q 224 28 260 29 q 164 44 188 26 q 131 99 139 64 q 132 163 124 133 q 149 109 133 132 q 183 71 164 86 q 229 48 203 57 q 285 44 256 39 m 818 81 q 785 1 814 39 q 715 -49 756 -37 q 631 -43 675 -60 q 561 8 586 -26 q 635 -20 596 -15 q 707 -17 675 -25 q 769 17 739 -7 q 818 81 800 42 m 539 7 q 485 -47 522 -25 q 411 -64 449 -69 q 344 -29 375 -60 q 307 38 314 1 q 356 -11 326 6 q 415 -31 386 -28 q 478 -26 444 -35 q 539 7 513 -18 m 497 -97 q 402 -160 463 -144 q 286 -158 342 -175 q 187 -97 229 -143 q 140 7 144 -51 q 204 -90 164 -47 q 290 -146 244 -132 q 392 -144 335 -158 q 497 -97 449 -129 z "},"Ć":{"ha":1018,"x_min":-118,"x_max":1125,"o":"m 569 1068 q 651 1122 599 1108 q 751 1121 703 1136 q 837 1067 800 1107 q 876 976 874 1028 q 821 1060 856 1024 q 749 1108 786 1097 q 660 1108 710 1119 q 569 1068 611 1096 m 483 965 q 549 1027 504 1004 q 639 1043 594 1050 q 719 1000 683 1036 q 763 921 754 964 q 705 981 740 958 q 633 1010 669 1004 q 558 1005 599 1015 q 483 965 517 994 m 210 882 q 239 963 211 924 q 306 1014 267 1001 q 390 1012 346 1028 q 461 964 435 996 q 386 990 425 986 q 315 983 347 993 q 255 947 285 972 q 210 882 225 921 m 783 911 q 842 924 808 925 q 896 906 875 924 q 922 854 917 888 q 917 794 926 821 q 904 844 918 822 q 874 881 890 865 q 834 905 857 894 q 783 911 811 915 m -33 518 q -100 609 -82 550 q -104 725 -118 668 q -46 825 -89 781 q 54 875 -3 869 q -38 808 3 850 q -90 721 -79 767 q -85 620 -101 676 q -33 518 -68 564 m 81 681 q 53 747 58 707 q 65 817 47 786 q 119 860 82 846 q 192 869 157 875 q 133 843 157 863 q 94 799 108 824 q 75 744 81 775 q 81 681 69 713 m 928 776 q 960 729 949 758 q 961 675 971 700 q 925 636 953 651 q 871 621 897 621 q 910 648 896 629 q 931 688 924 667 q 940 730 938 707 q 928 776 942 753 m 749 621 q 675 587 719 594 q 596 597 631 579 q 541 656 561 615 q 526 736 521 697 q 559 669 535 697 q 611 626 583 642 q 676 609 639 613 q 749 621 713 606 m 503 736 q 520 676 518 711 q 506 618 522 642 q 453 586 488 594 q 392 586 419 578 q 442 603 421 588 q 478 638 464 618 q 500 681 492 656 q 503 736 508 707 m 71 411 q 8 461 35 425 q -17 536 -18 497 q 13 610 -15 575 q 76 658 40 646 q 31 600 46 633 q 17 536 17 567 q 28 470 15 504 q 71 411 42 436 m 496 582 q 558 548 531 576 q 592 485 585 519 q 585 413 599 449 q 540 357 571 376 q 573 419 563 385 q 578 482 583 453 q 549 537 572 510 q 496 582 526 564 m 390 564 q 464 514 432 551 q 499 433 496 476 q 476 349 501 390 q 410 290 450 307 q 455 358 442 319 q 465 431 468 397 q 444 501 464 465 q 390 564 425 538 m 976 519 q 912 441 960 469 q 813 413 864 413 q 713 441 760 413 q 647 518 665 469 q 726 452 681 478 q 813 426 771 426 q 899 453 854 426 q 976 519 943 479 m 1044 411 q 1106 342 1086 389 q 1118 249 1125 296 q 1079 164 1111 203 q 1000 115 1047 125 q 1069 177 1040 140 q 1104 251 1099 214 q 1092 331 1110 288 q 1044 411 1075 375 m 619 285 q 643 353 621 319 q 697 396 665 386 q 768 392 731 407 q 826 351 806 378 q 766 371 797 369 q 708 364 735 372 q 657 336 682 356 q 619 285 632 317 m 121 182 q 56 210 88 186 q 18 267 25 233 q 26 334 10 299 q 71 388 43 369 q 48 331 51 361 q 50 274 44 300 q 74 223 57 249 q 121 182 90 197 m 849 351 q 894 365 867 363 q 938 353 921 367 q 958 312 954 339 q 954 265 961 285 q 942 301 954 286 q 917 326 931 317 q 887 347 904 338 q 849 351 869 356 m 424 271 q 460 319 433 297 q 515 340 486 342 q 570 317 544 340 q 604 268 596 294 q 562 299 586 290 q 515 307 538 307 q 467 301 492 308 q 424 271 442 293 m 949 243 q 966 183 964 218 q 950 125 968 149 q 899 93 933 101 q 836 93 864 85 q 888 110 865 94 q 924 144 910 125 q 947 189 938 164 q 949 243 956 214 m 285 44 q 224 28 260 29 q 164 44 188 26 q 131 99 139 64 q 132 163 124 133 q 149 109 133 132 q 183 71 164 86 q 229 48 203 57 q 285 44 256 39 m 818 81 q 785 1 814 39 q 715 -49 756 -37 q 631 -43 675 -60 q 561 8 586 -26 q 635 -20 596 -15 q 707 -17 675 -25 q 769 17 739 -7 q 818 81 800 42 m 539 7 q 485 -47 522 -25 q 411 -64 449 -69 q 344 -29 375 -60 q 307 38 314 1 q 356 -11 326 6 q 415 -31 386 -28 q 478 -26 444 -35 q 539 7 513 -18 m 497 -97 q 402 -160 463 -144 q 286 -158 342 -175 q 187 -97 229 -143 q 140 7 144 -51 q 204 -90 164 -47 q 290 -146 244 -132 q 392 -144 335 -158 q 497 -97 449 -129 m 863 1356 q 914 1295 897 1336 q 924 1214 931 1254 q 888 1142 917 1175 q 818 1101 858 1108 q 878 1153 853 1122 q 910 1217 904 1185 q 902 1287 915 1249 q 863 1356 889 1325 m 517 1233 q 554 1297 525 1268 q 618 1329 583 1325 q 689 1310 654 1332 q 739 1257 724 1289 q 682 1290 714 1282 q 622 1296 650 1299 q 565 1278 594 1293 q 517 1233 536 1263 m 311 983 q 264 1059 275 1011 q 268 1151 253 1107 q 319 1226 282 1194 q 403 1258 357 1257 q 326 1211 360 1242 q 281 1146 292 1181 q 278 1067 269 1111 q 311 983 288 1022 m 436 1136 q 425 1172 428 1150 q 432 1207 422 1194 q 465 1221 443 1219 q 503 1217 486 1222 q 476 1206 486 1217 q 458 1185 467 1196 q 442 1163 450 1175 q 436 1136 433 1151 m 736 1169 q 724 1095 740 1133 q 675 1040 707 1057 q 602 1031 643 1024 q 535 1063 561 1039 q 601 1053 568 1049 q 660 1071 635 1057 q 706 1108 685 1083 q 736 1169 728 1133 m 513 1063 q 476 1054 499 1056 q 442 1064 453 1053 q 429 1098 429 1075 q 436 1136 429 1121 q 444 1108 435 1119 q 464 1088 454 1097 q 485 1070 474 1079 q 513 1063 496 1061 z "},"Č":{"ha":1018,"x_min":-118,"x_max":1125,"o":"m 569 1068 q 651 1122 599 1108 q 751 1121 703 1136 q 837 1067 800 1107 q 876 976 874 1028 q 821 1060 856 1024 q 749 1108 786 1097 q 660 1108 710 1119 q 569 1068 611 1096 m 483 965 q 549 1027 504 1004 q 639 1043 594 1050 q 719 1000 683 1036 q 763 921 754 964 q 705 981 740 958 q 633 1010 669 1004 q 558 1005 599 1015 q 483 965 517 994 m 210 882 q 239 963 211 924 q 306 1014 267 1001 q 390 1012 346 1028 q 461 964 435 996 q 386 990 425 986 q 315 983 347 993 q 255 947 285 972 q 210 882 225 921 m 783 911 q 842 924 808 925 q 896 906 875 924 q 922 854 917 888 q 917 794 926 821 q 904 844 918 822 q 874 881 890 865 q 834 905 857 894 q 783 911 811 915 m -33 518 q -100 609 -82 550 q -104 725 -118 668 q -46 825 -89 781 q 54 875 -3 869 q -38 808 3 850 q -90 721 -79 767 q -85 620 -101 676 q -33 518 -68 564 m 81 681 q 53 747 58 707 q 65 817 47 786 q 119 860 82 846 q 192 869 157 875 q 133 843 157 863 q 94 799 108 824 q 75 744 81 775 q 81 681 69 713 m 928 776 q 960 729 949 758 q 961 675 971 700 q 925 636 953 651 q 871 621 897 621 q 910 648 896 629 q 931 688 924 667 q 940 730 938 707 q 928 776 942 753 m 749 621 q 675 587 719 594 q 596 597 631 579 q 541 656 561 615 q 526 736 521 697 q 559 669 535 697 q 611 626 583 642 q 676 609 639 613 q 749 621 713 606 m 503 736 q 520 676 518 711 q 506 618 522 642 q 453 586 488 594 q 392 586 419 578 q 442 603 421 588 q 478 638 464 618 q 500 681 492 656 q 503 736 508 707 m 71 411 q 8 461 35 425 q -17 536 -18 497 q 13 610 -15 575 q 76 658 40 646 q 31 600 46 633 q 17 536 17 567 q 28 470 15 504 q 71 411 42 436 m 496 582 q 558 548 531 576 q 592 485 585 519 q 585 413 599 449 q 540 357 571 376 q 573 419 563 385 q 578 482 583 453 q 549 537 572 510 q 496 582 526 564 m 390 564 q 464 514 432 551 q 499 433 496 476 q 476 349 501 390 q 410 290 450 307 q 455 358 442 319 q 465 431 468 397 q 444 501 464 465 q 390 564 425 538 m 976 519 q 912 441 960 469 q 813 413 864 413 q 713 441 760 413 q 647 518 665 469 q 726 452 681 478 q 813 426 771 426 q 899 453 854 426 q 976 519 943 479 m 1044 411 q 1106 342 1086 389 q 1118 249 1125 296 q 1079 164 1111 203 q 1000 115 1047 125 q 1069 177 1040 140 q 1104 251 1099 214 q 1092 331 1110 288 q 1044 411 1075 375 m 619 285 q 643 353 621 319 q 697 396 665 386 q 768 392 731 407 q 826 351 806 378 q 766 371 797 369 q 708 364 735 372 q 657 336 682 356 q 619 285 632 317 m 121 182 q 56 210 88 186 q 18 267 25 233 q 26 334 10 299 q 71 388 43 369 q 48 331 51 361 q 50 274 44 300 q 74 223 57 249 q 121 182 90 197 m 849 351 q 894 365 867 363 q 938 353 921 367 q 958 312 954 339 q 954 265 961 285 q 942 301 954 286 q 917 326 931 317 q 887 347 904 338 q 849 351 869 356 m 424 271 q 460 319 433 297 q 515 340 486 342 q 570 317 544 340 q 604 268 596 294 q 562 299 586 290 q 515 307 538 307 q 467 301 492 308 q 424 271 442 293 m 949 243 q 966 183 964 218 q 950 125 968 149 q 899 93 933 101 q 836 93 864 85 q 888 110 865 94 q 924 144 910 125 q 947 189 938 164 q 949 243 956 214 m 285 44 q 224 28 260 29 q 164 44 188 26 q 131 99 139 64 q 132 163 124 133 q 149 109 133 132 q 183 71 164 86 q 229 48 203 57 q 285 44 256 39 m 818 81 q 785 1 814 39 q 715 -49 756 -37 q 631 -43 675 -60 q 561 8 586 -26 q 635 -20 596 -15 q 707 -17 675 -25 q 769 17 739 -7 q 818 81 800 42 m 539 7 q 485 -47 522 -25 q 411 -64 449 -69 q 344 -29 375 -60 q 307 38 314 1 q 356 -11 326 6 q 415 -31 386 -28 q 478 -26 444 -35 q 539 7 513 -18 m 497 -97 q 402 -160 463 -144 q 286 -158 342 -175 q 187 -97 229 -143 q 140 7 144 -51 q 204 -90 164 -47 q 290 -146 244 -132 q 392 -144 335 -158 q 497 -97 449 -129 m 758 1361 q 826 1335 796 1360 q 868 1275 857 1310 q 869 1201 879 1240 q 831 1140 860 1163 q 857 1206 850 1171 q 854 1271 864 1242 q 819 1323 846 1299 q 758 1361 793 1347 m 222 1104 q 162 1156 183 1118 q 140 1235 140 1194 q 165 1312 142 1275 q 228 1361 189 1349 q 176 1301 196 1336 q 154 1235 156 1267 q 173 1166 154 1201 q 222 1104 192 1131 m 494 1194 q 522 1264 497 1231 q 582 1308 547 1297 q 656 1302 617 1318 q 715 1257 694 1286 q 651 1281 685 1278 q 590 1276 618 1283 q 536 1248 563 1268 q 494 1194 510 1228 m 293 1257 q 345 1296 311 1282 q 408 1301 379 1310 q 458 1262 438 1292 q 479 1201 478 1232 q 445 1245 468 1229 q 399 1269 422 1261 q 347 1275 375 1276 q 293 1257 319 1274 m 738 1257 q 761 1225 750 1246 q 765 1188 772 1204 q 738 1160 760 1169 q 699 1150 717 1150 q 722 1171 715 1157 q 735 1199 729 1185 q 742 1226 739 1211 q 738 1257 746 1242 m 458 1063 q 401 1042 435 1046 q 344 1054 368 1039 q 312 1102 321 1069 q 310 1163 303 1135 q 328 1115 313 1135 q 363 1082 344 1094 q 406 1062 382 1069 q 458 1063 431 1054 m 831 1140 q 839 1085 843 1115 q 815 1035 835 1056 q 767 1008 797 1015 q 713 1011 738 1000 q 806 1044 772 1008 q 831 1140 839 1081 m 685 1135 q 663 1067 683 1100 q 610 1021 642 1033 q 539 1023 576 1010 q 479 1063 501 1036 q 540 1044 508 1044 q 599 1053 572 1043 q 648 1083 624 1063 q 685 1135 672 1103 z "},"Ç":{"ha":1018,"x_min":-140,"x_max":1081,"o":"m 322 1046 q 393 1132 342 1100 q 501 1165 444 1164 q 612 1136 558 1167 q 685 1053 665 1106 q 597 1124 647 1096 q 503 1151 547 1153 q 408 1120 457 1150 q 322 1046 358 1090 m 394 956 q 438 1015 406 989 q 504 1040 469 1040 q 573 1017 540 1042 q 618 958 606 992 q 564 997 594 986 q 506 1007 533 1008 q 447 995 478 1007 q 394 956 417 983 m 640 956 q 690 990 658 978 q 750 993 722 1003 q 795 953 778 983 q 813 894 813 924 q 782 938 803 922 q 739 961 761 954 q 691 970 717 969 q 640 956 665 971 m 151 829 q 165 911 146 869 q 218 971 183 953 q 298 984 253 990 q 372 951 343 978 q 299 961 336 965 q 233 942 261 957 q 183 897 206 926 q 151 829 160 868 m 832 882 q 896 883 861 892 q 949 851 931 875 q 965 791 967 826 q 949 729 964 756 q 946 785 954 760 q 922 831 938 811 q 885 865 908 850 q 832 882 863 881 m 71 581 q 24 644 40 603 q 19 721 8 685 q 65 783 29 757 q 138 813 100 810 q 81 769 103 797 q 51 711 60 740 q 47 647 43 682 q 71 581 50 611 m 532 735 q 547 666 549 706 q 522 601 544 626 q 461 569 500 576 q 390 575 422 563 q 452 588 425 574 q 497 624 479 603 q 526 673 515 644 q 532 735 538 701 m 765 621 q 694 588 738 596 q 619 599 651 581 q 568 655 586 615 q 554 732 550 694 q 585 669 563 696 q 635 628 608 642 q 696 610 661 614 q 765 621 731 607 m 954 708 q 944 647 958 679 q 904 600 931 614 q 844 594 878 586 q 788 621 810 601 q 842 614 815 610 q 889 629 868 618 q 928 660 910 640 q 954 708 947 679 m 1063 692 q 1072 618 1081 658 q 1039 550 1064 578 q 973 512 1013 522 q 899 517 933 501 q 972 526 936 514 q 1028 560 1007 538 q 1058 618 1049 582 q 1063 692 1068 654 m -28 304 q -110 374 -79 324 q -140 481 -140 425 q -110 588 -140 536 q -28 658 -81 639 q -99 574 -71 622 q -126 481 -126 525 q -98 388 -126 436 q -28 304 -69 340 m 81 292 q 10 342 40 304 q -21 421 -19 379 q 5 502 -22 463 q 71 557 32 542 q 26 492 40 529 q 13 422 11 456 q 31 353 14 389 q 81 292 47 318 m 390 553 q 446 512 421 542 q 471 449 471 482 q 449 386 472 417 q 393 343 425 356 q 428 394 418 365 q 438 449 439 422 q 426 503 438 475 q 390 553 415 532 m 494 519 q 538 540 511 536 q 586 533 564 543 q 622 499 608 522 q 632 451 635 475 q 581 521 619 501 q 494 519 540 540 m 632 451 q 674 504 643 483 q 739 525 704 525 q 804 507 772 526 q 849 456 836 488 q 797 497 826 482 q 739 511 767 513 q 682 494 711 511 q 632 451 653 478 m 688 351 q 738 416 701 389 q 813 443 774 443 q 888 416 851 443 q 938 351 924 389 q 878 396 913 382 q 813 410 844 410 q 747 396 781 410 q 688 351 713 382 m 397 321 q 453 365 417 349 q 522 372 489 381 q 561 351 543 367 q 590 314 579 335 q 596 338 589 328 q 628 353 606 350 q 665 351 650 356 q 640 339 649 350 q 624 318 631 328 q 610 298 617 308 q 604 275 603 288 q 604 268 604 271 q 599 279 601 272 q 560 319 583 304 q 513 340 536 335 q 456 344 488 347 q 397 321 425 340 m 961 349 q 999 301 985 332 q 1007 243 1014 271 q 971 196 999 215 q 914 174 943 176 q 954 208 940 186 q 974 251 968 229 q 979 299 981 274 q 961 349 978 325 m 197 94 q 128 99 165 88 q 74 139 92 111 q 61 205 57 167 q 85 269 65 243 q 81 209 75 239 q 103 157 88 179 q 140 117 117 135 q 197 94 164 99 m 901 156 q 897 84 910 122 q 856 26 885 46 q 786 10 826 7 q 718 35 746 14 q 783 32 751 25 q 838 54 814 39 q 878 95 860 69 q 901 156 897 121 m 393 17 q 340 -18 374 -6 q 279 -19 307 -31 q 233 21 251 -10 q 215 81 215 51 q 247 36 225 53 q 290 11 268 19 q 340 3 313 4 q 393 17 367 3 m 975 81 q 961 -8 983 36 q 900 -75 939 -51 q 812 -99 861 -99 q 726 -71 763 -99 q 816 -83 771 -85 q 893 -64 861 -82 q 946 -4 924 -44 q 975 81 968 36 m 493 -17 q 510 -10 500 -12 q 501 3 506 -4 q 517 -8 508 -4 q 563 -8 539 -4 q 603 -26 586 -12 q 606 -26 604 -26 q 655 -10 629 -24 q 697 29 681 3 q 671 -22 692 3 q 624 -56 650 -47 q 632 -103 633 -78 q 622 -147 631 -128 q 613 -95 625 -118 q 589 -60 601 -72 q 549 -45 568 -57 q 515 -17 529 -33 q 493 -17 504 -15 m 435 -117 q 393 -97 414 -112 q 368 -60 372 -81 q 381 -17 365 -39 q 415 14 397 4 q 400 -20 401 -1 q 401 -56 399 -39 q 410 -90 404 -72 q 435 -117 417 -107 m 413 -371 q 320 -331 361 -368 q 264 -243 279 -293 q 263 -139 249 -193 q 318 -54 276 -85 q 277 -148 289 -97 q 276 -239 265 -199 q 327 -315 289 -279 q 413 -371 365 -350 m 542 -226 q 496 -234 522 -235 q 454 -219 469 -233 q 440 -178 440 -204 q 449 -132 440 -151 q 457 -168 447 -153 q 479 -196 467 -183 q 506 -217 490 -207 q 542 -226 521 -228 m 625 -169 q 635 -223 636 -192 q 615 -272 633 -254 q 568 -292 599 -290 q 514 -285 538 -294 q 558 -275 539 -286 q 592 -249 578 -264 q 617 -215 606 -235 q 625 -169 628 -194 z "},"Ĉ":{"ha":1018,"x_min":-118,"x_max":1125,"o":"m 569 1068 q 651 1122 599 1108 q 751 1121 703 1136 q 837 1067 800 1107 q 876 976 874 1028 q 821 1060 856 1024 q 749 1108 786 1097 q 660 1108 710 1119 q 569 1068 611 1096 m 483 965 q 549 1027 504 1004 q 639 1043 594 1050 q 719 1000 683 1036 q 763 921 754 964 q 705 981 740 958 q 633 1010 669 1004 q 558 1005 599 1015 q 483 965 517 994 m 210 882 q 239 963 211 924 q 306 1014 267 1001 q 390 1012 346 1028 q 461 964 435 996 q 386 990 425 986 q 315 983 347 993 q 255 947 285 972 q 210 882 225 921 m 783 911 q 842 924 808 925 q 896 906 875 924 q 922 854 917 888 q 917 794 926 821 q 904 844 918 822 q 874 881 890 865 q 834 905 857 894 q 783 911 811 915 m -33 518 q -100 609 -82 550 q -104 725 -118 668 q -46 825 -89 781 q 54 875 -3 869 q -38 808 3 850 q -90 721 -79 767 q -85 620 -101 676 q -33 518 -68 564 m 81 681 q 53 747 58 707 q 65 817 47 786 q 119 860 82 846 q 192 869 157 875 q 133 843 157 863 q 94 799 108 824 q 75 744 81 775 q 81 681 69 713 m 928 776 q 960 729 949 758 q 961 675 971 700 q 925 636 953 651 q 871 621 897 621 q 910 648 896 629 q 931 688 924 667 q 940 730 938 707 q 928 776 942 753 m 749 621 q 675 587 719 594 q 596 597 631 579 q 541 656 561 615 q 526 736 521 697 q 559 669 535 697 q 611 626 583 642 q 676 609 639 613 q 749 621 713 606 m 503 736 q 520 676 518 711 q 506 618 522 642 q 453 586 488 594 q 392 586 419 578 q 442 603 421 588 q 478 638 464 618 q 500 681 492 656 q 503 736 508 707 m 71 411 q 8 461 35 425 q -17 536 -18 497 q 13 610 -15 575 q 76 658 40 646 q 31 600 46 633 q 17 536 17 567 q 28 470 15 504 q 71 411 42 436 m 496 582 q 558 548 531 576 q 592 485 585 519 q 585 413 599 449 q 540 357 571 376 q 573 419 563 385 q 578 482 583 453 q 549 537 572 510 q 496 582 526 564 m 390 564 q 464 514 432 551 q 499 433 496 476 q 476 349 501 390 q 410 290 450 307 q 455 358 442 319 q 465 431 468 397 q 444 501 464 465 q 390 564 425 538 m 976 519 q 912 441 960 469 q 813 413 864 413 q 713 441 760 413 q 647 518 665 469 q 726 452 681 478 q 813 426 771 426 q 899 453 854 426 q 976 519 943 479 m 1044 411 q 1106 342 1086 389 q 1118 249 1125 296 q 1079 164 1111 203 q 1000 115 1047 125 q 1069 177 1040 140 q 1104 251 1099 214 q 1092 331 1110 288 q 1044 411 1075 375 m 619 285 q 643 353 621 319 q 697 396 665 386 q 768 392 731 407 q 826 351 806 378 q 766 371 797 369 q 708 364 735 372 q 657 336 682 356 q 619 285 632 317 m 121 182 q 56 210 88 186 q 18 267 25 233 q 26 334 10 299 q 71 388 43 369 q 48 331 51 361 q 50 274 44 300 q 74 223 57 249 q 121 182 90 197 m 849 351 q 894 365 867 363 q 938 353 921 367 q 958 312 954 339 q 954 265 961 285 q 942 301 954 286 q 917 326 931 317 q 887 347 904 338 q 849 351 869 356 m 424 271 q 460 319 433 297 q 515 340 486 342 q 570 317 544 340 q 604 268 596 294 q 562 299 586 290 q 515 307 538 307 q 467 301 492 308 q 424 271 442 293 m 949 243 q 966 183 964 218 q 950 125 968 149 q 899 93 933 101 q 836 93 864 85 q 888 110 865 94 q 924 144 910 125 q 947 189 938 164 q 949 243 956 214 m 285 44 q 224 28 260 29 q 164 44 188 26 q 131 99 139 64 q 132 163 124 133 q 149 109 133 132 q 183 71 164 86 q 229 48 203 57 q 285 44 256 39 m 818 81 q 785 1 814 39 q 715 -49 756 -37 q 631 -43 675 -60 q 561 8 586 -26 q 635 -20 596 -15 q 707 -17 675 -25 q 769 17 739 -7 q 818 81 800 42 m 539 7 q 485 -47 522 -25 q 411 -64 449 -69 q 344 -29 375 -60 q 307 38 314 1 q 356 -11 326 6 q 415 -31 386 -28 q 478 -26 444 -35 q 539 7 513 -18 m 497 -97 q 402 -160 463 -144 q 286 -158 342 -175 q 187 -97 229 -143 q 140 7 144 -51 q 204 -90 164 -47 q 290 -146 244 -132 q 392 -144 335 -158 q 497 -97 449 -129 m 431 1257 q 492 1308 451 1289 q 571 1317 533 1326 q 637 1274 608 1308 q 669 1201 665 1239 q 622 1257 651 1236 q 563 1285 593 1278 q 497 1286 533 1292 q 431 1257 461 1281 m 211 1203 q 204 1245 201 1222 q 221 1283 207 1268 q 258 1303 235 1299 q 300 1300 281 1308 q 261 1294 279 1301 q 231 1274 243 1286 q 214 1242 219 1261 q 211 1203 208 1224 m 288 1132 q 277 1190 275 1157 q 299 1242 279 1222 q 351 1264 318 1261 q 407 1256 383 1267 q 359 1247 381 1258 q 322 1218 338 1235 q 296 1181 307 1203 q 288 1132 285 1160 m 790 1224 q 848 1165 828 1206 q 864 1082 868 1124 q 833 1005 860 1040 q 764 958 806 969 q 823 1016 799 982 q 850 1083 847 1050 q 836 1155 853 1117 q 790 1224 819 1193 m 233 958 q 170 1001 196 968 q 142 1074 144 1035 q 156 1150 138 1113 q 211 1203 175 1188 q 168 1141 183 1176 q 156 1075 153 1106 q 180 1013 158 1044 q 233 958 201 981 m 685 1185 q 730 1176 706 1186 q 763 1146 754 1165 q 762 1101 771 1126 q 738 1063 753 1076 q 742 1100 746 1082 q 732 1133 739 1118 q 715 1164 725 1149 q 685 1185 704 1179 m 715 1063 q 658 1023 694 1036 q 589 1021 621 1010 q 537 1063 558 1031 q 515 1129 515 1096 q 551 1079 526 1099 q 600 1051 575 1060 q 656 1044 625 1043 q 715 1063 686 1046 m 494 1125 q 464 1051 492 1086 q 397 1006 436 1015 q 319 1013 360 996 q 256 1063 278 1031 q 324 1035 288 1040 q 389 1038 360 1031 q 449 1068 419 1046 q 494 1125 478 1090 z "},"Ċ":{"ha":1018,"x_min":-118,"x_max":1125,"o":"m 569 1068 q 651 1122 599 1108 q 751 1121 703 1136 q 837 1067 800 1107 q 876 976 874 1028 q 821 1060 856 1024 q 749 1108 786 1097 q 660 1108 710 1119 q 569 1068 611 1096 m 483 965 q 549 1027 504 1004 q 639 1043 594 1050 q 719 1000 683 1036 q 763 921 754 964 q 705 981 740 958 q 633 1010 669 1004 q 558 1005 599 1015 q 483 965 517 994 m 210 882 q 239 963 211 924 q 306 1014 267 1001 q 390 1012 346 1028 q 461 964 435 996 q 386 990 425 986 q 315 983 347 993 q 255 947 285 972 q 210 882 225 921 m 783 911 q 842 924 808 925 q 896 906 875 924 q 922 854 917 888 q 917 794 926 821 q 904 844 918 822 q 874 881 890 865 q 834 905 857 894 q 783 911 811 915 m -33 518 q -100 609 -82 550 q -104 725 -118 668 q -46 825 -89 781 q 54 875 -3 869 q -38 808 3 850 q -90 721 -79 767 q -85 620 -101 676 q -33 518 -68 564 m 81 681 q 53 747 58 707 q 65 817 47 786 q 119 860 82 846 q 192 869 157 875 q 133 843 157 863 q 94 799 108 824 q 75 744 81 775 q 81 681 69 713 m 928 776 q 960 729 949 758 q 961 675 971 700 q 925 636 953 651 q 871 621 897 621 q 910 648 896 629 q 931 688 924 667 q 940 730 938 707 q 928 776 942 753 m 749 621 q 675 587 719 594 q 596 597 631 579 q 541 656 561 615 q 526 736 521 697 q 559 669 535 697 q 611 626 583 642 q 676 609 639 613 q 749 621 713 606 m 503 736 q 520 676 518 711 q 506 618 522 642 q 453 586 488 594 q 392 586 419 578 q 442 603 421 588 q 478 638 464 618 q 500 681 492 656 q 503 736 508 707 m 71 411 q 8 461 35 425 q -17 536 -18 497 q 13 610 -15 575 q 76 658 40 646 q 31 600 46 633 q 17 536 17 567 q 28 470 15 504 q 71 411 42 436 m 496 582 q 558 548 531 576 q 592 485 585 519 q 585 413 599 449 q 540 357 571 376 q 573 419 563 385 q 578 482 583 453 q 549 537 572 510 q 496 582 526 564 m 390 564 q 464 514 432 551 q 499 433 496 476 q 476 349 501 390 q 410 290 450 307 q 455 358 442 319 q 465 431 468 397 q 444 501 464 465 q 390 564 425 538 m 976 519 q 912 441 960 469 q 813 413 864 413 q 713 441 760 413 q 647 518 665 469 q 726 452 681 478 q 813 426 771 426 q 899 453 854 426 q 976 519 943 479 m 1044 411 q 1106 342 1086 389 q 1118 249 1125 296 q 1079 164 1111 203 q 1000 115 1047 125 q 1069 177 1040 140 q 1104 251 1099 214 q 1092 331 1110 288 q 1044 411 1075 375 m 619 285 q 643 353 621 319 q 697 396 665 386 q 768 392 731 407 q 826 351 806 378 q 766 371 797 369 q 708 364 735 372 q 657 336 682 356 q 619 285 632 317 m 121 182 q 56 210 88 186 q 18 267 25 233 q 26 334 10 299 q 71 388 43 369 q 48 331 51 361 q 50 274 44 300 q 74 223 57 249 q 121 182 90 197 m 849 351 q 894 365 867 363 q 938 353 921 367 q 958 312 954 339 q 954 265 961 285 q 942 301 954 286 q 917 326 931 317 q 887 347 904 338 q 849 351 869 356 m 424 271 q 460 319 433 297 q 515 340 486 342 q 570 317 544 340 q 604 268 596 294 q 562 299 586 290 q 515 307 538 307 q 467 301 492 308 q 424 271 442 293 m 949 243 q 966 183 964 218 q 950 125 968 149 q 899 93 933 101 q 836 93 864 85 q 888 110 865 94 q 924 144 910 125 q 947 189 938 164 q 949 243 956 214 m 285 44 q 224 28 260 29 q 164 44 188 26 q 131 99 139 64 q 132 163 124 133 q 149 109 133 132 q 183 71 164 86 q 229 48 203 57 q 285 44 256 39 m 818 81 q 785 1 814 39 q 715 -49 756 -37 q 631 -43 675 -60 q 561 8 586 -26 q 635 -20 596 -15 q 707 -17 675 -25 q 769 17 739 -7 q 818 81 800 42 m 539 7 q 485 -47 522 -25 q 411 -64 449 -69 q 344 -29 375 -60 q 307 38 314 1 q 356 -11 326 6 q 415 -31 386 -28 q 478 -26 444 -35 q 539 7 513 -18 m 497 -97 q 402 -160 463 -144 q 286 -158 342 -175 q 187 -97 229 -143 q 140 7 144 -51 q 204 -90 164 -47 q 290 -146 244 -132 q 392 -144 335 -158 q 497 -97 449 -129 m 300 1269 q 333 1360 300 1319 q 411 1418 365 1401 q 510 1425 458 1435 q 593 1378 561 1415 q 502 1410 550 1403 q 417 1406 454 1418 q 348 1353 379 1392 q 300 1269 317 1315 m 415 1274 q 465 1319 432 1301 q 531 1331 499 1336 q 585 1296 561 1325 q 615 1235 610 1267 q 574 1278 600 1263 q 524 1297 549 1293 q 469 1299 499 1303 q 415 1274 440 1294 m 432 1063 q 374 1094 401 1069 q 343 1149 347 1118 q 358 1210 339 1179 q 404 1257 376 1242 q 378 1206 383 1233 q 376 1154 372 1178 q 392 1104 379 1129 q 432 1063 406 1079 m 719 1229 q 759 1147 753 1197 q 747 1054 765 1097 q 687 984 728 1013 q 599 958 646 956 q 681 999 643 971 q 733 1060 718 1026 q 744 1141 749 1094 q 719 1229 740 1188 m 615 1213 q 630 1149 631 1186 q 610 1089 629 1113 q 553 1058 589 1065 q 488 1063 517 1051 q 543 1077 518 1063 q 583 1110 568 1092 q 610 1156 600 1129 q 615 1213 621 1182 z "},"D":{"ha":1028,"x_min":-104,"x_max":1154,"o":"m 81 1051 q 144 1129 97 1100 q 243 1158 192 1158 q 342 1132 294 1160 q 408 1056 390 1104 q 330 1120 375 1094 q 243 1144 285 1146 q 157 1117 201 1144 q 81 1051 113 1090 m 208 951 q 253 1010 221 985 q 322 1036 286 1036 q 391 1010 358 1036 q 436 951 424 985 q 382 991 413 979 q 322 1003 351 1003 q 263 991 293 1003 q 208 951 232 979 m 458 951 q 518 1011 478 988 q 600 1029 558 1035 q 674 991 640 1024 q 717 918 708 958 q 661 972 694 953 q 596 996 628 992 q 526 990 563 1000 q 458 951 489 979 m 97 924 q 106 958 97 939 q 128 981 114 976 q 160 974 143 985 q 186 951 178 963 q 162 956 174 960 q 139 949 150 951 q 115 941 128 944 q 97 924 103 938 m 738 910 q 806 927 767 928 q 872 904 846 926 q 906 844 897 883 q 903 774 914 806 q 887 835 903 808 q 850 879 871 861 q 800 906 829 896 q 738 910 771 917 m 97 718 q 43 759 67 729 q 19 821 19 789 q 43 883 19 853 q 97 924 67 913 q 63 875 72 903 q 53 821 53 847 q 63 767 53 796 q 97 718 72 739 m 935 901 q 1040 863 993 901 q 1108 769 1088 824 q 1117 655 1128 715 q 1063 557 1107 594 q 1101 665 1090 607 q 1096 765 1111 722 q 1034 845 1079 808 q 935 901 989 882 m 914 754 q 975 727 946 750 q 1011 674 1004 704 q 1001 610 1018 643 q 958 558 985 576 q 980 613 976 585 q 978 667 983 642 q 957 716 972 692 q 914 754 942 740 m 403 700 l 406 699 q 403 722 403 711 q 417 693 408 707 q 463 644 449 675 q 500 625 481 632 q 566 616 529 614 q 638 638 603 618 q 569 594 613 607 q 489 593 526 581 q 468 604 478 597 q 444 561 463 581 q 403 533 425 542 q 429 573 422 550 q 436 617 436 596 q 435 635 436 626 q 406 697 413 663 l 403 700 m 97 492 q 43 533 67 503 q 19 594 19 563 q 43 656 19 626 q 97 697 67 686 q 63 648 72 676 q 53 594 53 619 q 63 540 53 568 q 97 492 72 513 m 639 338 q 569 394 597 354 q 540 478 540 435 q 572 562 542 522 q 643 615 601 601 q 592 550 608 588 q 574 478 575 513 q 590 405 574 443 q 639 338 606 367 m 1063 557 q 1130 492 1106 538 q 1150 399 1154 446 q 1117 308 1147 350 q 1042 253 1088 265 q 1107 321 1081 281 q 1136 399 1133 361 q 1118 481 1139 438 q 1063 557 1097 524 m 958 536 q 1006 500 985 526 q 1028 446 1028 474 q 1004 392 1026 417 q 956 357 982 367 q 985 399 978 375 q 994 446 993 424 q 987 493 994 468 q 958 536 979 518 m -7 232 q -78 290 -51 247 q -104 381 -104 333 q -78 471 -104 428 q -7 531 -51 514 q -67 459 -43 500 q -90 381 -90 418 q -67 302 -90 343 q -7 232 -43 261 m 403 511 q 449 478 428 503 q 469 428 469 454 q 449 377 469 401 q 403 344 428 353 q 429 384 422 361 q 436 428 436 407 q 429 472 436 449 q 403 511 422 494 m 97 238 q 37 283 63 250 q 11 353 11 317 q 37 424 11 390 q 97 469 63 457 q 57 414 69 446 q 44 353 44 382 q 57 292 44 324 q 97 238 69 261 m 403 322 q 452 354 421 343 q 510 354 483 365 q 540 331 526 347 q 560 294 553 314 q 569 319 561 313 q 599 326 579 329 q 631 317 618 324 q 608 311 617 319 q 592 294 600 303 q 574 280 583 288 q 565 258 565 272 q 538 300 557 285 q 497 324 518 315 q 451 333 476 332 q 403 322 426 335 m 953 335 q 984 288 972 318 q 986 235 996 258 q 950 194 978 210 q 896 179 922 179 q 935 207 921 188 q 956 246 949 226 q 964 289 963 265 q 953 335 965 313 m 99 31 q 49 67 71 40 q 26 122 26 93 q 48 178 26 151 q 97 215 69 204 q 67 171 75 196 q 60 122 60 146 q 68 75 60 100 q 99 31 76 50 m 883 161 q 874 83 890 124 q 825 22 857 42 q 749 8 792 3 q 676 38 706 14 q 747 31 711 25 q 808 51 782 36 q 855 95 833 67 q 883 161 876 124 m 654 32 q 603 -40 642 -8 q 521 -72 564 -71 q 435 -47 476 -75 q 378 21 394 -19 q 445 -26 407 -11 q 519 -39 483 -42 q 591 -19 554 -37 q 654 32 628 -1 m 356 21 q 309 -40 343 -14 q 238 -67 275 -67 q 166 -40 200 -67 q 119 21 132 -14 q 176 -21 143 -8 q 238 -33 208 -33 q 300 -21 268 -33 q 356 21 332 -8 m 632 -76 q 567 -158 615 -128 q 464 -189 518 -189 q 360 -162 410 -190 q 290 -83 310 -133 q 372 -150 325 -124 q 463 -175 419 -176 q 553 -147 507 -175 q 632 -76 599 -118 z "},"Ð":{"ha":1064,"x_min":-118,"x_max":1190,"o":"m 469 1056 q 533 1118 489 1097 q 624 1135 578 1139 q 707 1100 668 1129 q 757 1026 746 1071 q 695 1090 732 1064 q 622 1121 658 1117 q 544 1106 585 1124 q 469 1056 503 1088 m 264 951 q 314 1016 278 989 q 389 1043 350 1043 q 464 1016 428 1043 q 514 951 500 989 q 455 996 489 982 q 389 1010 421 1010 q 323 996 357 1010 q 264 951 289 982 m 536 951 q 592 1003 554 983 q 665 1018 629 1024 q 731 980 703 1011 q 767 913 760 949 q 719 963 749 944 q 660 985 689 981 q 598 983 632 990 q 536 951 564 975 m 131 885 q 133 931 126 906 q 157 965 140 956 q 201 970 175 976 q 242 951 226 964 q 206 952 222 958 q 175 938 189 946 q 147 917 161 929 q 131 885 133 906 m 788 904 q 869 914 824 921 q 944 879 915 907 q 978 804 972 850 q 968 722 985 758 q 957 797 971 763 q 921 856 943 832 q 863 892 897 878 q 788 904 828 907 m -50 615 q -99 686 -86 640 q -100 775 -111 732 q -53 849 -87 817 q 26 885 -18 882 q -45 835 -14 867 q -86 771 -76 804 q -85 694 -96 736 q -50 615 -75 651 m 131 686 q 83 721 104 696 q 61 774 61 746 q 83 828 61 803 q 131 863 104 853 q 102 821 110 844 q 94 774 94 797 q 102 728 94 751 q 131 686 110 704 m 458 722 q 481 719 469 722 l 481 722 l 482 718 q 519 699 501 713 q 543 668 538 686 q 544 640 547 656 q 554 636 550 638 q 608 622 578 625 q 668 632 638 618 q 607 600 644 608 q 540 606 569 592 l 535 608 q 507 575 524 588 q 517 598 514 586 q 518 621 519 610 q 481 708 482 656 q 458 722 471 718 m 488 701 q 504 675 494 688 q 488 701 497 690 m 975 700 q 1047 652 1015 689 q 1079 574 1078 615 q 1056 492 1082 532 q 992 435 1031 451 q 1035 501 1022 464 q 1047 571 1049 538 q 1026 640 1044 606 q 975 700 1008 675 m 40 493 q 13 551 19 517 q 19 614 6 586 q 67 654 33 640 q 131 664 100 668 q 81 638 101 657 q 49 597 61 619 q 33 549 38 576 q 40 493 29 522 m 1094 629 q 1165 570 1139 613 q 1190 481 1190 528 q 1164 390 1190 433 q 1093 332 1138 347 q 1153 403 1129 363 q 1176 481 1176 443 q 1153 558 1176 518 q 1094 629 1131 599 m 529 575 q 567 558 549 571 q 597 526 586 544 q 624 576 603 553 q 671 610 646 600 q 638 561 647 589 q 628 508 628 533 q 638 456 628 483 q 672 408 647 428 q 630 435 650 415 q 601 478 610 454 q 581 442 594 458 q 551 418 567 426 q 571 458 568 436 q 571 501 574 481 q 559 541 568 521 q 529 575 550 561 m 131 346 q 78 347 107 340 q 35 372 49 353 q 23 422 19 392 q 40 472 26 451 q 42 428 35 449 q 61 392 50 407 q 89 363 72 376 q 131 346 106 349 m 992 413 q 1038 362 1019 396 q 1049 296 1056 328 q 1014 240 1043 265 q 953 211 985 215 q 996 252 981 226 q 1017 303 1011 278 q 1017 357 1021 328 q 992 413 1013 386 m 514 250 q 511 261 513 256 q 492 250 501 254 q 508 272 503 260 q 517 339 504 307 q 508 372 514 356 q 486 401 501 389 q 533 368 513 393 q 542 376 538 372 q 606 399 567 397 q 672 383 644 400 q 612 378 640 389 q 564 351 583 368 q 549 338 556 344 q 550 328 550 333 q 541 294 551 311 q 515 264 531 276 q 514 250 514 257 m 26 104 q -56 138 -19 106 q -104 214 -92 171 q -106 304 -118 257 q -57 379 -93 351 q -92 297 -82 340 q -92 218 -101 253 q -48 153 -81 183 q 26 104 -15 122 m 131 142 q 82 178 104 151 q 60 233 60 204 q 82 288 60 263 q 131 324 104 314 q 101 281 108 306 q 93 233 93 256 q 101 185 93 210 q 131 142 108 161 m 942 192 q 939 110 953 153 q 893 43 925 67 q 815 22 860 21 q 736 46 769 22 q 811 43 775 35 q 874 71 847 51 q 919 120 899 89 q 942 192 939 151 m 274 21 q 218 2 251 6 q 163 14 185 -1 q 132 61 140 29 q 131 121 124 93 q 149 74 133 93 q 182 42 164 54 q 224 22 200 29 q 274 21 247 14 m 736 46 q 703 -12 729 15 q 646 -43 678 -39 q 583 -27 615 -47 q 538 21 551 -7 q 589 -6 561 0 q 643 -10 617 -12 q 694 6 668 -7 q 736 46 719 19 m 515 21 q 472 -37 504 -11 q 406 -62 440 -62 q 339 -37 371 -62 q 296 21 307 -11 q 348 -17 318 -6 q 406 -29 378 -29 q 463 -17 433 -29 q 515 21 493 -6 m 749 -60 q 695 -134 736 -104 q 607 -168 654 -164 q 515 -149 560 -171 q 450 -83 469 -126 q 526 -137 483 -117 q 606 -154 568 -157 q 682 -124 643 -151 q 749 -60 721 -97 z "},"Ď":{"ha":1028,"x_min":-104,"x_max":1154,"o":"m 81 1051 q 144 1129 97 1100 q 243 1158 192 1158 q 342 1132 294 1160 q 408 1056 390 1104 q 330 1120 375 1094 q 243 1144 285 1146 q 157 1117 201 1144 q 81 1051 113 1090 m 208 951 q 253 1010 221 985 q 322 1036 286 1036 q 391 1010 358 1036 q 436 951 424 985 q 382 991 413 979 q 322 1003 351 1003 q 263 991 293 1003 q 208 951 232 979 m 458 951 q 518 1011 478 988 q 600 1029 558 1035 q 674 991 640 1024 q 717 918 708 958 q 661 972 694 953 q 596 996 628 992 q 526 990 563 1000 q 458 951 489 979 m 97 924 q 106 958 97 939 q 128 981 114 976 q 160 974 143 985 q 186 951 178 963 q 162 956 174 960 q 139 949 150 951 q 115 941 128 944 q 97 924 103 938 m 738 910 q 806 927 767 928 q 872 904 846 926 q 906 844 897 883 q 903 774 914 806 q 887 835 903 808 q 850 879 871 861 q 800 906 829 896 q 738 910 771 917 m 97 718 q 43 759 67 729 q 19 821 19 789 q 43 883 19 853 q 97 924 67 913 q 63 875 72 903 q 53 821 53 847 q 63 767 53 796 q 97 718 72 739 m 935 901 q 1040 863 993 901 q 1108 769 1088 824 q 1117 655 1128 715 q 1063 557 1107 594 q 1101 665 1090 607 q 1096 765 1111 722 q 1034 845 1079 808 q 935 901 989 882 m 914 754 q 975 727 946 750 q 1011 674 1004 704 q 1001 610 1018 643 q 958 558 985 576 q 980 613 976 585 q 978 667 983 642 q 957 716 972 692 q 914 754 942 740 m 403 700 l 406 699 q 403 722 403 711 q 417 693 408 707 q 463 644 449 675 q 500 625 481 632 q 566 616 529 614 q 638 638 603 618 q 569 594 613 607 q 489 593 526 581 q 468 604 478 597 q 444 561 463 581 q 403 533 425 542 q 429 573 422 550 q 436 617 436 596 q 435 635 436 626 q 406 697 413 663 l 403 700 m 97 492 q 43 533 67 503 q 19 594 19 563 q 43 656 19 626 q 97 697 67 686 q 63 648 72 676 q 53 594 53 619 q 63 540 53 568 q 97 492 72 513 m 639 338 q 569 394 597 354 q 540 478 540 435 q 572 562 542 522 q 643 615 601 601 q 592 550 608 588 q 574 478 575 513 q 590 405 574 443 q 639 338 606 367 m 1063 557 q 1130 492 1106 538 q 1150 399 1154 446 q 1117 308 1147 350 q 1042 253 1088 265 q 1107 321 1081 281 q 1136 399 1133 361 q 1118 481 1139 438 q 1063 557 1097 524 m 958 536 q 1006 500 985 526 q 1028 446 1028 474 q 1004 392 1026 417 q 956 357 982 367 q 985 399 978 375 q 994 446 993 424 q 987 493 994 468 q 958 536 979 518 m -7 232 q -78 290 -51 247 q -104 381 -104 333 q -78 471 -104 428 q -7 531 -51 514 q -67 459 -43 500 q -90 381 -90 418 q -67 302 -90 343 q -7 232 -43 261 m 403 511 q 449 478 428 503 q 469 428 469 454 q 449 377 469 401 q 403 344 428 353 q 429 384 422 361 q 436 428 436 407 q 429 472 436 449 q 403 511 422 494 m 97 238 q 37 283 63 250 q 11 353 11 317 q 37 424 11 390 q 97 469 63 457 q 57 414 69 446 q 44 353 44 382 q 57 292 44 324 q 97 238 69 261 m 403 322 q 452 354 421 343 q 510 354 483 365 q 540 331 526 347 q 560 294 553 314 q 569 319 561 313 q 599 326 579 329 q 631 317 618 324 q 608 311 617 319 q 592 294 600 303 q 574 280 583 288 q 565 258 565 272 q 538 300 557 285 q 497 324 518 315 q 451 333 476 332 q 403 322 426 335 m 953 335 q 984 288 972 318 q 986 235 996 258 q 950 194 978 210 q 896 179 922 179 q 935 207 921 188 q 956 246 949 226 q 964 289 963 265 q 953 335 965 313 m 99 31 q 49 67 71 40 q 26 122 26 93 q 48 178 26 151 q 97 215 69 204 q 67 171 75 196 q 60 122 60 146 q 68 75 60 100 q 99 31 76 50 m 883 161 q 874 83 890 124 q 825 22 857 42 q 749 8 792 3 q 676 38 706 14 q 747 31 711 25 q 808 51 782 36 q 855 95 833 67 q 883 161 876 124 m 654 32 q 603 -40 642 -8 q 521 -72 564 -71 q 435 -47 476 -75 q 378 21 394 -19 q 445 -26 407 -11 q 519 -39 483 -42 q 591 -19 554 -37 q 654 32 628 -1 m 356 21 q 309 -40 343 -14 q 238 -67 275 -67 q 166 -40 200 -67 q 119 21 132 -14 q 176 -21 143 -8 q 238 -33 208 -33 q 300 -21 268 -33 q 356 21 332 -8 m 632 -76 q 567 -158 615 -128 q 464 -189 518 -189 q 360 -162 410 -190 q 290 -83 310 -133 q 372 -150 325 -124 q 463 -175 419 -176 q 553 -147 507 -175 q 632 -76 599 -118 m 754 1361 q 822 1335 792 1360 q 864 1275 853 1310 q 865 1201 875 1240 q 826 1140 856 1163 q 853 1206 846 1171 q 850 1271 860 1242 q 815 1323 842 1299 q 754 1361 789 1347 m 218 1104 q 158 1156 179 1118 q 136 1235 136 1194 q 161 1312 138 1275 q 224 1361 185 1349 q 172 1301 192 1336 q 150 1235 151 1267 q 169 1166 150 1201 q 218 1104 188 1131 m 490 1194 q 518 1264 493 1231 q 578 1308 543 1297 q 651 1302 613 1318 q 711 1257 690 1286 q 647 1281 681 1278 q 586 1276 614 1283 q 532 1248 558 1268 q 490 1194 506 1228 m 289 1257 q 341 1296 307 1282 q 404 1301 375 1310 q 453 1262 433 1292 q 475 1201 474 1232 q 441 1245 464 1229 q 394 1269 418 1261 q 343 1275 371 1276 q 289 1257 315 1274 m 733 1257 q 757 1225 746 1246 q 761 1188 768 1204 q 734 1160 756 1169 q 694 1150 713 1150 q 718 1171 711 1157 q 731 1199 725 1185 q 738 1226 735 1211 q 733 1257 742 1242 m 454 1063 q 397 1042 431 1046 q 340 1054 364 1039 q 308 1102 317 1069 q 306 1163 299 1135 q 324 1115 308 1135 q 358 1082 340 1094 q 402 1062 378 1069 q 454 1063 426 1054 m 826 1140 q 835 1085 839 1115 q 811 1035 831 1056 q 763 1008 793 1015 q 708 1011 733 1000 q 801 1044 768 1008 q 826 1140 835 1081 m 681 1135 q 658 1067 679 1100 q 606 1021 638 1033 q 535 1023 572 1010 q 475 1063 497 1036 q 536 1044 504 1044 q 594 1053 568 1043 q 644 1083 619 1063 q 681 1135 668 1103 z "},"Đ":{"ha":1061,"x_min":-110,"x_max":1183,"o":"m 469 1056 q 547 1125 494 1103 q 653 1140 600 1147 q 750 1097 706 1132 q 806 1008 794 1061 q 735 1088 778 1054 q 651 1126 693 1121 q 559 1112 608 1132 q 469 1056 510 1092 m 253 951 q 295 1008 264 983 q 361 1033 326 1033 q 427 1008 396 1033 q 469 951 458 983 q 418 989 447 978 q 361 1000 389 1000 q 304 989 333 1000 q 253 951 275 978 m 492 951 q 534 1000 504 979 q 594 1019 564 1021 q 651 992 625 1017 q 686 938 678 967 q 642 974 668 963 q 592 986 617 985 q 540 981 568 988 q 492 951 513 974 m 686 938 q 715 960 696 950 q 749 965 733 971 q 772 941 764 961 q 781 906 781 921 q 763 926 775 921 q 738 935 750 931 q 713 942 726 938 q 686 938 700 946 m 131 786 q 106 845 111 810 q 117 907 101 881 q 166 945 132 933 q 231 951 200 957 q 179 929 200 947 q 146 890 158 911 q 126 842 132 869 q 131 786 121 815 m 801 896 q 860 909 826 910 q 914 889 893 908 q 939 838 935 871 q 933 779 943 804 q 921 828 933 807 q 892 864 908 850 q 852 890 875 879 q 801 896 829 900 m -8 661 q -54 715 -39 679 q -65 785 -69 750 q -34 849 -60 819 q 26 885 -8 878 q -26 839 -4 867 q -51 782 -47 811 q -44 722 -56 754 q -8 661 -32 689 m 131 582 q 82 618 104 592 q 60 672 60 644 q 82 728 60 701 q 131 764 104 754 q 101 721 108 746 q 93 672 93 696 q 101 625 93 650 q 131 582 108 600 m 944 760 q 1013 726 981 754 q 1053 663 1046 699 q 1042 588 1061 626 q 992 531 1024 550 q 1021 594 1015 560 q 1021 656 1026 628 q 996 713 1015 685 q 944 760 976 742 m 519 722 q 528 681 528 706 q 515 643 529 656 q 478 628 503 629 q 436 636 453 628 q 468 644 456 635 q 492 665 481 654 q 512 690 503 676 q 519 722 521 703 m 674 626 q 622 609 653 613 q 569 621 590 606 q 542 667 549 636 q 542 722 535 697 q 558 678 543 697 q 589 649 572 660 q 627 628 606 636 q 674 626 649 621 m 436 614 q 486 627 457 626 q 533 613 515 628 q 556 568 551 597 q 551 517 560 539 q 539 558 551 540 q 513 588 526 575 q 478 609 497 600 q 436 614 460 618 m 50 404 q 17 456 28 422 q 15 515 6 489 q 56 560 25 543 q 115 576 86 576 q 71 546 88 567 q 46 504 54 525 q 38 456 39 482 q 50 404 36 429 m 1096 563 q 1160 502 1138 544 q 1182 414 1183 460 q 1151 328 1179 368 q 1081 275 1124 288 q 1141 340 1117 301 q 1168 414 1165 378 q 1149 492 1169 451 q 1096 563 1129 532 m 664 317 q 607 367 631 332 q 586 439 583 403 q 617 506 589 475 q 681 547 646 538 q 637 495 651 525 q 619 436 622 465 q 628 375 618 407 q 664 317 638 343 m 992 508 q 1051 454 1028 492 q 1071 378 1074 417 q 1037 308 1067 340 q 969 264 1007 275 q 1018 318 1001 286 q 1038 381 1035 350 q 1030 447 1040 413 q 992 508 1019 481 m 551 494 q 563 453 561 478 q 550 413 564 428 q 513 397 538 399 q 469 403 488 396 q 502 413 489 403 q 525 435 515 424 q 545 462 536 447 q 551 494 554 476 m 26 221 q -48 247 -14 221 q -96 310 -82 272 q -102 389 -110 347 q -64 457 -94 431 q -89 383 -83 422 q -83 314 -94 344 q -42 259 -72 285 q 26 221 -11 233 m 131 292 q 87 297 111 289 q 54 322 63 306 q 52 365 44 340 q 72 403 60 389 q 71 368 65 385 q 83 338 76 351 q 101 310 90 324 q 131 292 111 296 m 481 250 q 483 267 481 258 q 458 250 471 256 q 479 288 475 267 q 482 329 483 310 q 474 368 481 347 q 447 403 467 389 q 492 376 471 396 q 515 331 514 356 q 515 322 515 326 q 547 342 531 336 q 605 335 574 349 q 651 299 636 321 q 603 315 629 314 q 557 310 578 315 q 513 289 535 303 q 481 250 492 275 m 132 31 q 69 78 96 44 q 43 150 43 113 q 69 222 43 188 q 131 269 96 257 q 89 213 101 246 q 76 150 76 181 q 90 88 76 121 q 132 31 103 56 m 963 243 q 979 190 976 222 q 967 138 982 158 q 920 110 951 117 q 864 111 889 103 q 909 126 890 113 q 939 158 928 140 q 960 197 951 175 q 963 243 968 218 m 846 97 q 826 33 846 65 q 776 -11 807 0 q 710 -9 746 -21 q 654 28 675 3 q 712 13 682 13 q 765 21 742 13 q 812 48 789 29 q 846 97 835 67 m 632 25 q 581 -43 618 -14 q 501 -74 543 -72 q 421 -46 460 -74 q 367 21 382 -18 q 431 -26 394 -11 q 500 -40 467 -40 q 569 -23 533 -39 q 632 25 606 -7 m 346 21 q 307 -31 335 -8 q 249 -54 279 -54 q 190 -31 218 -54 q 153 21 163 -8 q 199 -12 172 -3 q 249 -21 225 -21 q 299 -12 274 -21 q 346 21 325 -3 m 688 -72 q 620 -157 671 -125 q 514 -190 569 -189 q 407 -164 458 -193 q 335 -83 356 -135 q 420 -151 371 -125 q 514 -176 469 -178 q 606 -145 558 -175 q 688 -72 653 -115 z "},"E":{"ha":926,"x_min":-112,"x_max":1046,"o":"m -7 874 q 0 969 -21 921 q 61 1046 21 1018 q 153 1079 101 1075 q 246 1056 206 1083 q 150 1063 199 1068 q 69 1035 101 1058 q 17 967 38 1013 q -7 874 -3 922 m 799 1056 q 888 1041 844 1064 q 954 978 931 1018 q 977 890 978 939 q 947 804 976 840 q 962 893 963 847 q 943 971 961 939 q 884 1026 924 1003 q 799 1056 844 1049 m 131 951 q 184 1020 144 992 q 265 1049 224 1049 q 347 1020 308 1049 q 401 951 386 992 q 337 1000 374 985 q 265 1015 300 1015 q 195 1000 232 1015 q 131 951 158 985 m 424 951 q 470 1013 436 986 q 542 1039 504 1039 q 613 1013 579 1039 q 661 951 647 986 q 604 993 636 981 q 542 1006 572 1006 q 480 993 513 1006 q 424 951 447 981 m 683 951 q 721 991 694 974 q 772 1006 747 1008 q 817 978 797 1001 q 843 929 838 954 q 808 960 829 951 q 767 972 788 969 q 724 972 747 975 q 683 951 701 968 m 97 757 q 48 799 69 769 q 28 858 26 828 q 53 915 29 889 q 107 950 78 942 q 73 906 83 932 q 61 856 63 881 q 67 805 60 832 q 97 757 75 778 m 843 907 q 874 847 865 885 q 869 781 883 810 q 821 735 856 751 q 754 722 786 719 q 807 751 786 731 q 839 796 828 772 q 853 849 850 819 q 843 907 857 878 m 97 469 q 30 522 58 483 q 1 603 1 561 q 30 683 1 644 q 97 735 58 721 q 50 672 65 708 q 35 603 35 636 q 50 533 35 569 q 97 469 65 496 m 456 593 l 457 599 q 433 593 444 593 q 462 618 453 601 q 475 651 471 635 q 482 685 481 667 q 472 722 483 704 q 499 691 488 711 q 508 653 510 671 q 540 661 525 661 l 542 661 q 494 722 507 686 q 551 681 518 693 q 613 668 583 668 q 676 681 643 668 q 732 722 708 693 q 685 661 719 688 q 613 635 650 635 q 596 636 604 635 q 625 593 617 617 q 585 621 608 614 q 540 628 561 628 q 517 626 529 628 q 493 619 506 624 q 461 600 481 607 q 456 593 458 597 m 647 593 q 703 620 669 613 q 764 614 738 628 q 803 567 790 600 q 813 506 817 535 q 788 554 807 535 q 749 583 769 574 q 701 599 728 594 q 647 593 675 604 m 813 483 q 822 435 822 463 q 807 390 822 407 q 763 372 790 374 q 714 379 735 369 q 753 389 736 378 q 782 413 769 400 q 805 444 794 426 q 813 483 815 461 m 97 215 q 37 261 63 228 q 11 331 11 294 q 37 401 11 368 q 97 447 63 435 q 57 392 69 424 q 44 331 44 360 q 57 270 44 301 q 97 215 69 239 m 389 282 q 401 299 394 290 q 389 304 394 300 q 408 306 399 303 q 440 325 424 318 q 444 328 442 325 q 466 349 456 338 q 476 379 476 361 q 481 329 486 354 q 522 299 504 324 q 544 250 540 275 q 512 282 532 272 q 472 296 492 292 q 461 299 467 297 q 438 292 451 293 q 413 294 425 292 q 389 282 400 290 m 692 379 q 653 327 681 350 q 594 304 625 304 q 538 327 565 304 q 499 379 510 350 q 544 347 518 356 q 594 338 571 338 q 646 347 619 338 q 692 379 672 356 m 18 -36 q -70 28 -36 -21 q -108 133 -104 78 q -85 244 -112 190 q -7 319 -58 297 q -72 230 -47 281 q -94 135 -97 179 q -59 42 -92 89 q 18 -36 -26 -4 m 671 250 q 721 290 689 275 q 782 296 753 304 q 831 260 811 289 q 854 201 851 231 q 819 243 842 228 q 774 264 796 258 q 723 269 750 271 q 671 250 696 267 m 947 283 q 1020 215 994 264 q 1043 115 1046 167 q 1008 18 1039 64 q 928 -42 978 -28 q 998 32 969 -11 q 1029 115 1026 75 q 1008 203 1031 157 q 947 283 985 249 m 136 21 q 82 44 108 25 q 49 92 56 64 q 58 148 43 118 q 97 193 74 178 q 78 146 81 171 q 82 99 76 121 q 99 56 86 78 q 136 21 111 33 m 854 179 q 881 125 874 158 q 875 67 888 92 q 831 29 863 42 q 771 21 799 17 q 817 44 799 26 q 846 83 835 63 q 860 128 856 103 q 854 179 865 153 m 363 21 q 322 -33 351 -10 q 260 -57 293 -57 q 199 -33 228 -57 q 158 21 169 -10 q 207 -14 179 -4 q 260 -24 235 -24 q 314 -14 286 -24 q 363 21 342 -4 m 556 21 q 522 -26 547 -4 q 471 -47 497 -47 q 419 -26 443 -47 q 385 21 394 -4 q 425 -7 401 0 q 471 -14 449 -14 q 515 -7 492 -14 q 556 21 539 0 m 749 21 q 715 -26 740 -4 q 664 -47 690 -47 q 612 -26 636 -47 q 578 21 588 -4 q 619 -7 596 0 q 664 -14 642 -14 q 708 -7 685 -14 q 749 21 732 0 m 385 -83 q 315 -158 364 -132 q 214 -182 265 -185 q 115 -148 161 -179 q 53 -67 68 -117 q 128 -137 85 -108 q 214 -168 172 -165 q 302 -146 256 -169 q 385 -83 349 -122 z "},"É":{"ha":926,"x_min":-112,"x_max":1046,"o":"m -7 874 q 0 969 -21 921 q 61 1046 21 1018 q 153 1079 101 1075 q 246 1056 206 1083 q 150 1063 199 1068 q 69 1035 101 1058 q 17 967 38 1013 q -7 874 -3 922 m 799 1056 q 888 1041 844 1064 q 954 978 931 1018 q 977 890 978 939 q 947 804 976 840 q 962 893 963 847 q 943 971 961 939 q 884 1026 924 1003 q 799 1056 844 1049 m 131 951 q 184 1020 144 992 q 265 1049 224 1049 q 347 1020 308 1049 q 401 951 386 992 q 337 1000 374 985 q 265 1015 300 1015 q 195 1000 232 1015 q 131 951 158 985 m 424 951 q 470 1013 436 986 q 542 1039 504 1039 q 613 1013 579 1039 q 661 951 647 986 q 604 993 636 981 q 542 1006 572 1006 q 480 993 513 1006 q 424 951 447 981 m 683 951 q 721 991 694 974 q 772 1006 747 1008 q 817 978 797 1001 q 843 929 838 954 q 808 960 829 951 q 767 972 788 969 q 724 972 747 975 q 683 951 701 968 m 97 757 q 48 799 69 769 q 28 858 26 828 q 53 915 29 889 q 107 950 78 942 q 73 906 83 932 q 61 856 63 881 q 67 805 60 832 q 97 757 75 778 m 843 907 q 874 847 865 885 q 869 781 883 810 q 821 735 856 751 q 754 722 786 719 q 807 751 786 731 q 839 796 828 772 q 853 849 850 819 q 843 907 857 878 m 97 469 q 30 522 58 483 q 1 603 1 561 q 30 683 1 644 q 97 735 58 721 q 50 672 65 708 q 35 603 35 636 q 50 533 35 569 q 97 469 65 496 m 456 593 l 457 599 q 433 593 444 593 q 462 618 453 601 q 475 651 471 635 q 482 685 481 667 q 472 722 483 704 q 499 691 488 711 q 508 653 510 671 q 540 661 525 661 l 542 661 q 494 722 507 686 q 551 681 518 693 q 613 668 583 668 q 676 681 643 668 q 732 722 708 693 q 685 661 719 688 q 613 635 650 635 q 596 636 604 635 q 625 593 617 617 q 585 621 608 614 q 540 628 561 628 q 517 626 529 628 q 493 619 506 624 q 461 600 481 607 q 456 593 458 597 m 647 593 q 703 620 669 613 q 764 614 738 628 q 803 567 790 600 q 813 506 817 535 q 788 554 807 535 q 749 583 769 574 q 701 599 728 594 q 647 593 675 604 m 813 483 q 822 435 822 463 q 807 390 822 407 q 763 372 790 374 q 714 379 735 369 q 753 389 736 378 q 782 413 769 400 q 805 444 794 426 q 813 483 815 461 m 97 215 q 37 261 63 228 q 11 331 11 294 q 37 401 11 368 q 97 447 63 435 q 57 392 69 424 q 44 331 44 360 q 57 270 44 301 q 97 215 69 239 m 389 282 q 401 299 394 290 q 389 304 394 300 q 408 306 399 303 q 440 325 424 318 q 444 328 442 325 q 466 349 456 338 q 476 379 476 361 q 481 329 486 354 q 522 299 504 324 q 544 250 540 275 q 512 282 532 272 q 472 296 492 292 q 461 299 467 297 q 438 292 451 293 q 413 294 425 292 q 389 282 400 290 m 692 379 q 653 327 681 350 q 594 304 625 304 q 538 327 565 304 q 499 379 510 350 q 544 347 518 356 q 594 338 571 338 q 646 347 619 338 q 692 379 672 356 m 18 -36 q -70 28 -36 -21 q -108 133 -104 78 q -85 244 -112 190 q -7 319 -58 297 q -72 230 -47 281 q -94 135 -97 179 q -59 42 -92 89 q 18 -36 -26 -4 m 671 250 q 721 290 689 275 q 782 296 753 304 q 831 260 811 289 q 854 201 851 231 q 819 243 842 228 q 774 264 796 258 q 723 269 750 271 q 671 250 696 267 m 947 283 q 1020 215 994 264 q 1043 115 1046 167 q 1008 18 1039 64 q 928 -42 978 -28 q 998 32 969 -11 q 1029 115 1026 75 q 1008 203 1031 157 q 947 283 985 249 m 136 21 q 82 44 108 25 q 49 92 56 64 q 58 148 43 118 q 97 193 74 178 q 78 146 81 171 q 82 99 76 121 q 99 56 86 78 q 136 21 111 33 m 854 179 q 881 125 874 158 q 875 67 888 92 q 831 29 863 42 q 771 21 799 17 q 817 44 799 26 q 846 83 835 63 q 860 128 856 103 q 854 179 865 153 m 363 21 q 322 -33 351 -10 q 260 -57 293 -57 q 199 -33 228 -57 q 158 21 169 -10 q 207 -14 179 -4 q 260 -24 235 -24 q 314 -14 286 -24 q 363 21 342 -4 m 556 21 q 522 -26 547 -4 q 471 -47 497 -47 q 419 -26 443 -47 q 385 21 394 -4 q 425 -7 401 0 q 471 -14 449 -14 q 515 -7 492 -14 q 556 21 539 0 m 749 21 q 715 -26 740 -4 q 664 -47 690 -47 q 612 -26 636 -47 q 578 21 588 -4 q 619 -7 596 0 q 664 -14 642 -14 q 708 -7 685 -14 q 749 21 732 0 m 385 -83 q 315 -158 364 -132 q 214 -182 265 -185 q 115 -148 161 -179 q 53 -67 68 -117 q 128 -137 85 -108 q 214 -168 172 -165 q 302 -146 256 -169 q 385 -83 349 -122 m 817 1356 q 868 1295 851 1336 q 878 1214 885 1254 q 842 1142 871 1175 q 772 1101 813 1108 q 833 1153 807 1122 q 864 1217 858 1185 q 856 1287 869 1249 q 817 1356 843 1325 m 471 1233 q 508 1297 479 1268 q 572 1329 538 1325 q 643 1310 608 1332 q 693 1257 678 1289 q 636 1290 668 1282 q 576 1296 604 1299 q 519 1278 549 1293 q 471 1233 490 1263 m 265 983 q 218 1059 229 1011 q 222 1151 207 1107 q 274 1226 236 1194 q 357 1258 311 1257 q 280 1211 314 1242 q 235 1146 246 1181 q 233 1067 224 1111 q 265 983 242 1022 m 390 1136 q 379 1172 382 1150 q 386 1207 376 1194 q 419 1221 397 1219 q 457 1217 440 1222 q 431 1206 440 1217 q 413 1185 421 1196 q 396 1163 404 1175 q 390 1136 388 1151 m 690 1169 q 678 1095 694 1133 q 629 1040 661 1057 q 556 1031 597 1024 q 489 1063 515 1039 q 556 1053 522 1049 q 614 1071 589 1057 q 660 1108 639 1083 q 690 1169 682 1133 m 467 1063 q 430 1054 453 1056 q 396 1064 407 1053 q 383 1098 383 1075 q 390 1136 383 1121 q 399 1108 389 1119 q 418 1088 408 1097 q 439 1070 428 1079 q 467 1063 450 1061 z "},"Ĕ":{"ha":926,"x_min":-112,"x_max":1046,"o":"m -7 874 q 0 969 -21 921 q 61 1046 21 1018 q 153 1079 101 1075 q 246 1056 206 1083 q 150 1063 199 1068 q 69 1035 101 1058 q 17 967 38 1013 q -7 874 -3 922 m 799 1056 q 888 1041 844 1064 q 954 978 931 1018 q 977 890 978 939 q 947 804 976 840 q 962 893 963 847 q 943 971 961 939 q 884 1026 924 1003 q 799 1056 844 1049 m 131 951 q 184 1020 144 992 q 265 1049 224 1049 q 347 1020 308 1049 q 401 951 386 992 q 337 1000 374 985 q 265 1015 300 1015 q 195 1000 232 1015 q 131 951 158 985 m 424 951 q 470 1013 436 986 q 542 1039 504 1039 q 613 1013 579 1039 q 661 951 647 986 q 604 993 636 981 q 542 1006 572 1006 q 480 993 513 1006 q 424 951 447 981 m 683 951 q 721 991 694 974 q 772 1006 747 1008 q 817 978 797 1001 q 843 929 838 954 q 808 960 829 951 q 767 972 788 969 q 724 972 747 975 q 683 951 701 968 m 97 757 q 48 799 69 769 q 28 858 26 828 q 53 915 29 889 q 107 950 78 942 q 73 906 83 932 q 61 856 63 881 q 67 805 60 832 q 97 757 75 778 m 843 907 q 874 847 865 885 q 869 781 883 810 q 821 735 856 751 q 754 722 786 719 q 807 751 786 731 q 839 796 828 772 q 853 849 850 819 q 843 907 857 878 m 97 469 q 30 522 58 483 q 1 603 1 561 q 30 683 1 644 q 97 735 58 721 q 50 672 65 708 q 35 603 35 636 q 50 533 35 569 q 97 469 65 496 m 456 593 l 457 599 q 433 593 444 593 q 462 618 453 601 q 475 651 471 635 q 482 685 481 667 q 472 722 483 704 q 499 691 488 711 q 508 653 510 671 q 540 661 525 661 l 542 661 q 494 722 507 686 q 551 681 518 693 q 613 668 583 668 q 676 681 643 668 q 732 722 708 693 q 685 661 719 688 q 613 635 650 635 q 596 636 604 635 q 625 593 617 617 q 585 621 608 614 q 540 628 561 628 q 517 626 529 628 q 493 619 506 624 q 461 600 481 607 q 456 593 458 597 m 647 593 q 703 620 669 613 q 764 614 738 628 q 803 567 790 600 q 813 506 817 535 q 788 554 807 535 q 749 583 769 574 q 701 599 728 594 q 647 593 675 604 m 813 483 q 822 435 822 463 q 807 390 822 407 q 763 372 790 374 q 714 379 735 369 q 753 389 736 378 q 782 413 769 400 q 805 444 794 426 q 813 483 815 461 m 97 215 q 37 261 63 228 q 11 331 11 294 q 37 401 11 368 q 97 447 63 435 q 57 392 69 424 q 44 331 44 360 q 57 270 44 301 q 97 215 69 239 m 389 282 q 401 299 394 290 q 389 304 394 300 q 408 306 399 303 q 440 325 424 318 q 444 328 442 325 q 466 349 456 338 q 476 379 476 361 q 481 329 486 354 q 522 299 504 324 q 544 250 540 275 q 512 282 532 272 q 472 296 492 292 q 461 299 467 297 q 438 292 451 293 q 413 294 425 292 q 389 282 400 290 m 692 379 q 653 327 681 350 q 594 304 625 304 q 538 327 565 304 q 499 379 510 350 q 544 347 518 356 q 594 338 571 338 q 646 347 619 338 q 692 379 672 356 m 18 -36 q -70 28 -36 -21 q -108 133 -104 78 q -85 244 -112 190 q -7 319 -58 297 q -72 230 -47 281 q -94 135 -97 179 q -59 42 -92 89 q 18 -36 -26 -4 m 671 250 q 721 290 689 275 q 782 296 753 304 q 831 260 811 289 q 854 201 851 231 q 819 243 842 228 q 774 264 796 258 q 723 269 750 271 q 671 250 696 267 m 947 283 q 1020 215 994 264 q 1043 115 1046 167 q 1008 18 1039 64 q 928 -42 978 -28 q 998 32 969 -11 q 1029 115 1026 75 q 1008 203 1031 157 q 947 283 985 249 m 136 21 q 82 44 108 25 q 49 92 56 64 q 58 148 43 118 q 97 193 74 178 q 78 146 81 171 q 82 99 76 121 q 99 56 86 78 q 136 21 111 33 m 854 179 q 881 125 874 158 q 875 67 888 92 q 831 29 863 42 q 771 21 799 17 q 817 44 799 26 q 846 83 835 63 q 860 128 856 103 q 854 179 865 153 m 363 21 q 322 -33 351 -10 q 260 -57 293 -57 q 199 -33 228 -57 q 158 21 169 -10 q 207 -14 179 -4 q 260 -24 235 -24 q 314 -14 286 -24 q 363 21 342 -4 m 556 21 q 522 -26 547 -4 q 471 -47 497 -47 q 419 -26 443 -47 q 385 21 394 -4 q 425 -7 401 0 q 471 -14 449 -14 q 515 -7 492 -14 q 556 21 539 0 m 749 21 q 715 -26 740 -4 q 664 -47 690 -47 q 612 -26 636 -47 q 578 21 588 -4 q 619 -7 596 0 q 664 -14 642 -14 q 708 -7 685 -14 q 749 21 732 0 m 385 -83 q 315 -158 364 -132 q 214 -182 265 -185 q 115 -148 161 -179 q 53 -67 68 -117 q 128 -137 85 -108 q 214 -168 172 -165 q 302 -146 256 -169 q 385 -83 349 -122 m 135 1258 q 155 1333 132 1297 q 214 1383 178 1368 q 290 1394 249 1400 q 360 1361 332 1389 q 286 1381 325 1378 q 219 1371 247 1383 q 169 1327 192 1358 q 135 1258 146 1296 m 389 1233 q 414 1279 394 1257 q 457 1304 433 1301 q 505 1290 481 1307 q 540 1251 529 1272 q 501 1271 522 1268 q 461 1271 481 1274 q 422 1261 442 1269 q 389 1233 401 1253 m 540 1251 q 575 1289 551 1272 q 622 1303 599 1306 q 665 1277 646 1300 q 688 1232 683 1254 q 656 1259 675 1251 q 618 1269 636 1267 q 578 1269 599 1272 q 540 1251 557 1267 m 269 1140 q 260 1194 258 1163 q 278 1243 261 1225 q 327 1265 296 1263 q 382 1257 358 1267 q 337 1247 357 1258 q 303 1221 317 1235 q 278 1185 289 1206 q 269 1140 267 1165 m 686 1210 q 692 1138 699 1178 q 661 1075 686 1099 q 596 1048 636 1051 q 525 1061 556 1044 q 589 1069 560 1057 q 639 1099 618 1081 q 673 1147 658 1118 q 686 1210 688 1175 m 789 1197 q 800 1099 811 1151 q 754 1010 789 1046 q 667 958 719 972 q 569 964 615 943 q 668 976 619 961 q 744 1019 717 990 q 783 1098 772 1049 q 789 1197 794 1147 m 503 1057 q 443 1013 482 1028 q 369 1008 404 997 q 310 1052 335 1018 q 283 1122 285 1086 q 324 1068 297 1089 q 378 1040 350 1047 q 439 1035 406 1032 q 503 1057 472 1038 z "},"Ě":{"ha":926,"x_min":-112,"x_max":1046,"o":"m -7 874 q 0 969 -21 921 q 61 1046 21 1018 q 153 1079 101 1075 q 246 1056 206 1083 q 150 1063 199 1068 q 69 1035 101 1058 q 17 967 38 1013 q -7 874 -3 922 m 799 1056 q 888 1041 844 1064 q 954 978 931 1018 q 977 890 978 939 q 947 804 976 840 q 962 893 963 847 q 943 971 961 939 q 884 1026 924 1003 q 799 1056 844 1049 m 131 951 q 184 1020 144 992 q 265 1049 224 1049 q 347 1020 308 1049 q 401 951 386 992 q 337 1000 374 985 q 265 1015 300 1015 q 195 1000 232 1015 q 131 951 158 985 m 424 951 q 470 1013 436 986 q 542 1039 504 1039 q 613 1013 579 1039 q 661 951 647 986 q 604 993 636 981 q 542 1006 572 1006 q 480 993 513 1006 q 424 951 447 981 m 683 951 q 721 991 694 974 q 772 1006 747 1008 q 817 978 797 1001 q 843 929 838 954 q 808 960 829 951 q 767 972 788 969 q 724 972 747 975 q 683 951 701 968 m 97 757 q 48 799 69 769 q 28 858 26 828 q 53 915 29 889 q 107 950 78 942 q 73 906 83 932 q 61 856 63 881 q 67 805 60 832 q 97 757 75 778 m 843 907 q 874 847 865 885 q 869 781 883 810 q 821 735 856 751 q 754 722 786 719 q 807 751 786 731 q 839 796 828 772 q 853 849 850 819 q 843 907 857 878 m 97 469 q 30 522 58 483 q 1 603 1 561 q 30 683 1 644 q 97 735 58 721 q 50 672 65 708 q 35 603 35 636 q 50 533 35 569 q 97 469 65 496 m 456 593 l 457 599 q 433 593 444 593 q 462 618 453 601 q 475 651 471 635 q 482 685 481 667 q 472 722 483 704 q 499 691 488 711 q 508 653 510 671 q 540 661 525 661 l 542 661 q 494 722 507 686 q 551 681 518 693 q 613 668 583 668 q 676 681 643 668 q 732 722 708 693 q 685 661 719 688 q 613 635 650 635 q 596 636 604 635 q 625 593 617 617 q 585 621 608 614 q 540 628 561 628 q 517 626 529 628 q 493 619 506 624 q 461 600 481 607 q 456 593 458 597 m 647 593 q 703 620 669 613 q 764 614 738 628 q 803 567 790 600 q 813 506 817 535 q 788 554 807 535 q 749 583 769 574 q 701 599 728 594 q 647 593 675 604 m 813 483 q 822 435 822 463 q 807 390 822 407 q 763 372 790 374 q 714 379 735 369 q 753 389 736 378 q 782 413 769 400 q 805 444 794 426 q 813 483 815 461 m 97 215 q 37 261 63 228 q 11 331 11 294 q 37 401 11 368 q 97 447 63 435 q 57 392 69 424 q 44 331 44 360 q 57 270 44 301 q 97 215 69 239 m 389 282 q 401 299 394 290 q 389 304 394 300 q 408 306 399 303 q 440 325 424 318 q 444 328 442 325 q 466 349 456 338 q 476 379 476 361 q 481 329 486 354 q 522 299 504 324 q 544 250 540 275 q 512 282 532 272 q 472 296 492 292 q 461 299 467 297 q 438 292 451 293 q 413 294 425 292 q 389 282 400 290 m 692 379 q 653 327 681 350 q 594 304 625 304 q 538 327 565 304 q 499 379 510 350 q 544 347 518 356 q 594 338 571 338 q 646 347 619 338 q 692 379 672 356 m 18 -36 q -70 28 -36 -21 q -108 133 -104 78 q -85 244 -112 190 q -7 319 -58 297 q -72 230 -47 281 q -94 135 -97 179 q -59 42 -92 89 q 18 -36 -26 -4 m 671 250 q 721 290 689 275 q 782 296 753 304 q 831 260 811 289 q 854 201 851 231 q 819 243 842 228 q 774 264 796 258 q 723 269 750 271 q 671 250 696 267 m 947 283 q 1020 215 994 264 q 1043 115 1046 167 q 1008 18 1039 64 q 928 -42 978 -28 q 998 32 969 -11 q 1029 115 1026 75 q 1008 203 1031 157 q 947 283 985 249 m 136 21 q 82 44 108 25 q 49 92 56 64 q 58 148 43 118 q 97 193 74 178 q 78 146 81 171 q 82 99 76 121 q 99 56 86 78 q 136 21 111 33 m 854 179 q 881 125 874 158 q 875 67 888 92 q 831 29 863 42 q 771 21 799 17 q 817 44 799 26 q 846 83 835 63 q 860 128 856 103 q 854 179 865 153 m 363 21 q 322 -33 351 -10 q 260 -57 293 -57 q 199 -33 228 -57 q 158 21 169 -10 q 207 -14 179 -4 q 260 -24 235 -24 q 314 -14 286 -24 q 363 21 342 -4 m 556 21 q 522 -26 547 -4 q 471 -47 497 -47 q 419 -26 443 -47 q 385 21 394 -4 q 425 -7 401 0 q 471 -14 449 -14 q 515 -7 492 -14 q 556 21 539 0 m 749 21 q 715 -26 740 -4 q 664 -47 690 -47 q 612 -26 636 -47 q 578 21 588 -4 q 619 -7 596 0 q 664 -14 642 -14 q 708 -7 685 -14 q 749 21 732 0 m 385 -83 q 315 -158 364 -132 q 214 -182 265 -185 q 115 -148 161 -179 q 53 -67 68 -117 q 128 -137 85 -108 q 214 -168 172 -165 q 302 -146 256 -169 q 385 -83 349 -122 m 713 1361 q 781 1335 750 1360 q 822 1275 811 1310 q 824 1201 833 1240 q 785 1140 814 1163 q 811 1206 804 1171 q 808 1271 818 1242 q 774 1323 800 1299 q 713 1361 747 1347 m 176 1104 q 116 1156 138 1118 q 94 1235 94 1194 q 119 1312 96 1275 q 182 1361 143 1349 q 130 1301 150 1336 q 108 1235 110 1267 q 127 1166 108 1201 q 176 1104 146 1131 m 449 1194 q 476 1264 451 1231 q 536 1308 501 1297 q 610 1302 571 1318 q 669 1257 649 1286 q 606 1281 639 1278 q 544 1276 572 1283 q 490 1248 517 1268 q 449 1194 464 1228 m 247 1257 q 299 1296 265 1282 q 363 1301 333 1310 q 412 1262 392 1292 q 433 1201 432 1232 q 399 1245 422 1229 q 353 1269 376 1261 q 301 1275 329 1276 q 247 1257 274 1274 m 692 1257 q 715 1225 704 1246 q 719 1188 726 1204 q 692 1160 714 1169 q 653 1150 671 1150 q 676 1171 669 1157 q 689 1199 683 1185 q 697 1226 693 1211 q 692 1257 700 1242 m 413 1063 q 356 1042 389 1046 q 299 1054 322 1039 q 266 1102 275 1069 q 264 1163 257 1135 q 283 1115 267 1135 q 317 1082 299 1094 q 360 1062 336 1069 q 413 1063 385 1054 m 785 1140 q 793 1085 797 1115 q 769 1035 789 1056 q 722 1008 751 1015 q 667 1011 692 1000 q 760 1044 726 1008 q 785 1140 793 1081 m 639 1135 q 617 1067 638 1100 q 564 1021 596 1033 q 493 1023 531 1010 q 433 1063 456 1036 q 494 1044 463 1044 q 553 1053 526 1043 q 602 1083 578 1063 q 639 1135 626 1103 z "},"Ê":{"ha":926,"x_min":-112,"x_max":1046,"o":"m -7 874 q 0 969 -21 921 q 61 1046 21 1018 q 153 1079 101 1075 q 246 1056 206 1083 q 150 1063 199 1068 q 69 1035 101 1058 q 17 967 38 1013 q -7 874 -3 922 m 799 1056 q 888 1041 844 1064 q 954 978 931 1018 q 977 890 978 939 q 947 804 976 840 q 962 893 963 847 q 943 971 961 939 q 884 1026 924 1003 q 799 1056 844 1049 m 131 951 q 184 1020 144 992 q 265 1049 224 1049 q 347 1020 308 1049 q 401 951 386 992 q 337 1000 374 985 q 265 1015 300 1015 q 195 1000 232 1015 q 131 951 158 985 m 424 951 q 470 1013 436 986 q 542 1039 504 1039 q 613 1013 579 1039 q 661 951 647 986 q 604 993 636 981 q 542 1006 572 1006 q 480 993 513 1006 q 424 951 447 981 m 683 951 q 721 991 694 974 q 772 1006 747 1008 q 817 978 797 1001 q 843 929 838 954 q 808 960 829 951 q 767 972 788 969 q 724 972 747 975 q 683 951 701 968 m 97 757 q 48 799 69 769 q 28 858 26 828 q 53 915 29 889 q 107 950 78 942 q 73 906 83 932 q 61 856 63 881 q 67 805 60 832 q 97 757 75 778 m 843 907 q 874 847 865 885 q 869 781 883 810 q 821 735 856 751 q 754 722 786 719 q 807 751 786 731 q 839 796 828 772 q 853 849 850 819 q 843 907 857 878 m 97 469 q 30 522 58 483 q 1 603 1 561 q 30 683 1 644 q 97 735 58 721 q 50 672 65 708 q 35 603 35 636 q 50 533 35 569 q 97 469 65 496 m 456 593 l 457 599 q 433 593 444 593 q 462 618 453 601 q 475 651 471 635 q 482 685 481 667 q 472 722 483 704 q 499 691 488 711 q 508 653 510 671 q 540 661 525 661 l 542 661 q 494 722 507 686 q 551 681 518 693 q 613 668 583 668 q 676 681 643 668 q 732 722 708 693 q 685 661 719 688 q 613 635 650 635 q 596 636 604 635 q 625 593 617 617 q 585 621 608 614 q 540 628 561 628 q 517 626 529 628 q 493 619 506 624 q 461 600 481 607 q 456 593 458 597 m 647 593 q 703 620 669 613 q 764 614 738 628 q 803 567 790 600 q 813 506 817 535 q 788 554 807 535 q 749 583 769 574 q 701 599 728 594 q 647 593 675 604 m 813 483 q 822 435 822 463 q 807 390 822 407 q 763 372 790 374 q 714 379 735 369 q 753 389 736 378 q 782 413 769 400 q 805 444 794 426 q 813 483 815 461 m 97 215 q 37 261 63 228 q 11 331 11 294 q 37 401 11 368 q 97 447 63 435 q 57 392 69 424 q 44 331 44 360 q 57 270 44 301 q 97 215 69 239 m 389 282 q 401 299 394 290 q 389 304 394 300 q 408 306 399 303 q 440 325 424 318 q 444 328 442 325 q 466 349 456 338 q 476 379 476 361 q 481 329 486 354 q 522 299 504 324 q 544 250 540 275 q 512 282 532 272 q 472 296 492 292 q 461 299 467 297 q 438 292 451 293 q 413 294 425 292 q 389 282 400 290 m 692 379 q 653 327 681 350 q 594 304 625 304 q 538 327 565 304 q 499 379 510 350 q 544 347 518 356 q 594 338 571 338 q 646 347 619 338 q 692 379 672 356 m 18 -36 q -70 28 -36 -21 q -108 133 -104 78 q -85 244 -112 190 q -7 319 -58 297 q -72 230 -47 281 q -94 135 -97 179 q -59 42 -92 89 q 18 -36 -26 -4 m 671 250 q 721 290 689 275 q 782 296 753 304 q 831 260 811 289 q 854 201 851 231 q 819 243 842 228 q 774 264 796 258 q 723 269 750 271 q 671 250 696 267 m 947 283 q 1020 215 994 264 q 1043 115 1046 167 q 1008 18 1039 64 q 928 -42 978 -28 q 998 32 969 -11 q 1029 115 1026 75 q 1008 203 1031 157 q 947 283 985 249 m 136 21 q 82 44 108 25 q 49 92 56 64 q 58 148 43 118 q 97 193 74 178 q 78 146 81 171 q 82 99 76 121 q 99 56 86 78 q 136 21 111 33 m 854 179 q 881 125 874 158 q 875 67 888 92 q 831 29 863 42 q 771 21 799 17 q 817 44 799 26 q 846 83 835 63 q 860 128 856 103 q 854 179 865 153 m 363 21 q 322 -33 351 -10 q 260 -57 293 -57 q 199 -33 228 -57 q 158 21 169 -10 q 207 -14 179 -4 q 260 -24 235 -24 q 314 -14 286 -24 q 363 21 342 -4 m 556 21 q 522 -26 547 -4 q 471 -47 497 -47 q 419 -26 443 -47 q 385 21 394 -4 q 425 -7 401 0 q 471 -14 449 -14 q 515 -7 492 -14 q 556 21 539 0 m 749 21 q 715 -26 740 -4 q 664 -47 690 -47 q 612 -26 636 -47 q 578 21 588 -4 q 619 -7 596 0 q 664 -14 642 -14 q 708 -7 685 -14 q 749 21 732 0 m 385 -83 q 315 -158 364 -132 q 214 -182 265 -185 q 115 -148 161 -179 q 53 -67 68 -117 q 128 -137 85 -108 q 214 -168 172 -165 q 302 -146 256 -169 q 385 -83 349 -122 m 385 1257 q 447 1308 406 1289 q 525 1317 488 1326 q 591 1274 563 1308 q 624 1201 619 1239 q 576 1257 606 1236 q 517 1285 547 1278 q 451 1286 488 1292 q 385 1257 415 1281 m 165 1203 q 158 1245 156 1222 q 175 1283 161 1268 q 212 1303 189 1299 q 254 1300 235 1308 q 215 1294 233 1301 q 185 1274 197 1286 q 168 1242 174 1261 q 165 1203 163 1224 m 242 1132 q 231 1190 229 1157 q 253 1242 233 1222 q 305 1264 272 1261 q 361 1256 338 1267 q 313 1247 335 1258 q 276 1218 292 1235 q 250 1181 261 1203 q 242 1132 239 1160 m 744 1224 q 802 1165 782 1206 q 818 1082 822 1124 q 787 1005 814 1040 q 718 958 760 969 q 777 1016 753 982 q 804 1083 801 1050 q 790 1155 807 1117 q 744 1224 774 1193 m 188 958 q 124 1001 150 968 q 96 1074 99 1035 q 110 1150 92 1113 q 165 1203 129 1188 q 122 1141 138 1176 q 110 1075 107 1106 q 134 1013 113 1044 q 188 958 156 981 m 639 1185 q 684 1176 660 1186 q 717 1146 708 1165 q 716 1101 725 1126 q 692 1063 707 1076 q 697 1100 700 1082 q 686 1133 693 1118 q 669 1164 679 1149 q 639 1185 658 1179 m 669 1063 q 612 1023 649 1036 q 543 1021 575 1010 q 491 1063 513 1031 q 469 1129 469 1096 q 505 1079 481 1099 q 554 1051 529 1060 q 610 1044 579 1043 q 669 1063 640 1046 m 449 1125 q 418 1051 446 1086 q 351 1006 390 1015 q 273 1013 314 996 q 210 1063 232 1031 q 278 1035 242 1040 q 343 1038 314 1031 q 403 1068 374 1046 q 449 1125 432 1090 z "},"Ë":{"ha":926,"x_min":-112,"x_max":1046,"o":"m -7 874 q 0 969 -21 921 q 61 1046 21 1018 q 153 1079 101 1075 q 246 1056 206 1083 q 150 1063 199 1068 q 69 1035 101 1058 q 17 967 38 1013 q -7 874 -3 922 m 799 1056 q 888 1041 844 1064 q 954 978 931 1018 q 977 890 978 939 q 947 804 976 840 q 962 893 963 847 q 943 971 961 939 q 884 1026 924 1003 q 799 1056 844 1049 m 131 951 q 184 1020 144 992 q 265 1049 224 1049 q 347 1020 308 1049 q 401 951 386 992 q 337 1000 374 985 q 265 1015 300 1015 q 195 1000 232 1015 q 131 951 158 985 m 424 951 q 470 1013 436 986 q 542 1039 504 1039 q 613 1013 579 1039 q 661 951 647 986 q 604 993 636 981 q 542 1006 572 1006 q 480 993 513 1006 q 424 951 447 981 m 683 951 q 721 991 694 974 q 772 1006 747 1008 q 817 978 797 1001 q 843 929 838 954 q 808 960 829 951 q 767 972 788 969 q 724 972 747 975 q 683 951 701 968 m 97 757 q 48 799 69 769 q 28 858 26 828 q 53 915 29 889 q 107 950 78 942 q 73 906 83 932 q 61 856 63 881 q 67 805 60 832 q 97 757 75 778 m 843 907 q 874 847 865 885 q 869 781 883 810 q 821 735 856 751 q 754 722 786 719 q 807 751 786 731 q 839 796 828 772 q 853 849 850 819 q 843 907 857 878 m 97 469 q 30 522 58 483 q 1 603 1 561 q 30 683 1 644 q 97 735 58 721 q 50 672 65 708 q 35 603 35 636 q 50 533 35 569 q 97 469 65 496 m 456 593 l 457 599 q 433 593 444 593 q 462 618 453 601 q 475 651 471 635 q 482 685 481 667 q 472 722 483 704 q 499 691 488 711 q 508 653 510 671 q 540 661 525 661 l 542 661 q 494 722 507 686 q 551 681 518 693 q 613 668 583 668 q 676 681 643 668 q 732 722 708 693 q 685 661 719 688 q 613 635 650 635 q 596 636 604 635 q 625 593 617 617 q 585 621 608 614 q 540 628 561 628 q 517 626 529 628 q 493 619 506 624 q 461 600 481 607 q 456 593 458 597 m 647 593 q 703 620 669 613 q 764 614 738 628 q 803 567 790 600 q 813 506 817 535 q 788 554 807 535 q 749 583 769 574 q 701 599 728 594 q 647 593 675 604 m 813 483 q 822 435 822 463 q 807 390 822 407 q 763 372 790 374 q 714 379 735 369 q 753 389 736 378 q 782 413 769 400 q 805 444 794 426 q 813 483 815 461 m 97 215 q 37 261 63 228 q 11 331 11 294 q 37 401 11 368 q 97 447 63 435 q 57 392 69 424 q 44 331 44 360 q 57 270 44 301 q 97 215 69 239 m 389 282 q 401 299 394 290 q 389 304 394 300 q 408 306 399 303 q 440 325 424 318 q 444 328 442 325 q 466 349 456 338 q 476 379 476 361 q 481 329 486 354 q 522 299 504 324 q 544 250 540 275 q 512 282 532 272 q 472 296 492 292 q 461 299 467 297 q 438 292 451 293 q 413 294 425 292 q 389 282 400 290 m 692 379 q 653 327 681 350 q 594 304 625 304 q 538 327 565 304 q 499 379 510 350 q 544 347 518 356 q 594 338 571 338 q 646 347 619 338 q 692 379 672 356 m 18 -36 q -70 28 -36 -21 q -108 133 -104 78 q -85 244 -112 190 q -7 319 -58 297 q -72 230 -47 281 q -94 135 -97 179 q -59 42 -92 89 q 18 -36 -26 -4 m 671 250 q 721 290 689 275 q 782 296 753 304 q 831 260 811 289 q 854 201 851 231 q 819 243 842 228 q 774 264 796 258 q 723 269 750 271 q 671 250 696 267 m 947 283 q 1020 215 994 264 q 1043 115 1046 167 q 1008 18 1039 64 q 928 -42 978 -28 q 998 32 969 -11 q 1029 115 1026 75 q 1008 203 1031 157 q 947 283 985 249 m 136 21 q 82 44 108 25 q 49 92 56 64 q 58 148 43 118 q 97 193 74 178 q 78 146 81 171 q 82 99 76 121 q 99 56 86 78 q 136 21 111 33 m 854 179 q 881 125 874 158 q 875 67 888 92 q 831 29 863 42 q 771 21 799 17 q 817 44 799 26 q 846 83 835 63 q 860 128 856 103 q 854 179 865 153 m 363 21 q 322 -33 351 -10 q 260 -57 293 -57 q 199 -33 228 -57 q 158 21 169 -10 q 207 -14 179 -4 q 260 -24 235 -24 q 314 -14 286 -24 q 363 21 342 -4 m 556 21 q 522 -26 547 -4 q 471 -47 497 -47 q 419 -26 443 -47 q 385 21 394 -4 q 425 -7 401 0 q 471 -14 449 -14 q 515 -7 492 -14 q 556 21 539 0 m 749 21 q 715 -26 740 -4 q 664 -47 690 -47 q 612 -26 636 -47 q 578 21 588 -4 q 619 -7 596 0 q 664 -14 642 -14 q 708 -7 685 -14 q 749 21 732 0 m 385 -83 q 315 -158 364 -132 q 214 -182 265 -185 q 115 -148 161 -179 q 53 -67 68 -117 q 128 -137 85 -108 q 214 -168 172 -165 q 302 -146 256 -169 q 385 -83 349 -122 m 126 1342 q 194 1414 146 1389 q 292 1436 242 1439 q 387 1404 342 1435 q 446 1325 432 1374 q 374 1393 415 1365 q 292 1422 332 1421 q 206 1402 251 1425 q 126 1342 161 1379 m 179 1229 q 221 1278 192 1257 q 281 1299 250 1300 q 338 1272 311 1297 q 374 1218 365 1247 q 329 1253 356 1243 q 279 1265 303 1264 q 227 1259 254 1267 q 179 1229 200 1251 m 553 1124 q 522 1161 535 1136 q 517 1207 510 1186 q 546 1242 522 1228 q 592 1257 569 1256 q 563 1231 572 1249 q 549 1197 553 1214 q 542 1161 543 1181 q 553 1124 540 1142 m 708 1257 q 763 1233 736 1253 q 796 1186 789 1214 q 786 1130 801 1160 q 747 1085 771 1100 q 766 1132 764 1107 q 763 1179 768 1157 q 746 1222 758 1200 q 708 1257 733 1244 m 246 1063 q 192 1072 221 1060 q 154 1108 164 1085 q 152 1160 143 1131 q 179 1207 161 1189 q 172 1163 168 1185 q 185 1122 176 1140 q 208 1087 193 1104 q 246 1063 222 1069 m 851 1185 q 881 1111 878 1154 q 865 1032 885 1068 q 808 974 846 996 q 731 958 771 953 q 803 988 769 967 q 853 1039 838 1010 q 867 1107 868 1067 q 851 1185 867 1147 m 374 1129 q 372 1085 378 1110 q 350 1050 367 1061 q 308 1044 333 1039 q 268 1063 283 1050 q 302 1063 286 1057 q 332 1078 318 1069 q 358 1098 346 1086 q 374 1129 371 1110 m 742 1064 q 694 1021 726 1038 q 633 1010 663 1004 q 580 1043 603 1015 q 553 1101 557 1071 q 592 1061 568 1075 q 639 1042 615 1047 q 690 1041 663 1038 q 742 1064 718 1044 m 586 958 q 526 888 569 914 q 436 861 483 861 q 344 888 388 861 q 285 958 301 914 q 356 899 315 922 q 436 875 397 875 q 515 899 474 875 q 586 958 556 922 z "},"Ė":{"ha":926,"x_min":-112,"x_max":1046,"o":"m -7 874 q 0 969 -21 921 q 61 1046 21 1018 q 153 1079 101 1075 q 246 1056 206 1083 q 150 1063 199 1068 q 69 1035 101 1058 q 17 967 38 1013 q -7 874 -3 922 m 799 1056 q 888 1041 844 1064 q 954 978 931 1018 q 977 890 978 939 q 947 804 976 840 q 962 893 963 847 q 943 971 961 939 q 884 1026 924 1003 q 799 1056 844 1049 m 131 951 q 184 1020 144 992 q 265 1049 224 1049 q 347 1020 308 1049 q 401 951 386 992 q 337 1000 374 985 q 265 1015 300 1015 q 195 1000 232 1015 q 131 951 158 985 m 424 951 q 470 1013 436 986 q 542 1039 504 1039 q 613 1013 579 1039 q 661 951 647 986 q 604 993 636 981 q 542 1006 572 1006 q 480 993 513 1006 q 424 951 447 981 m 683 951 q 721 991 694 974 q 772 1006 747 1008 q 817 978 797 1001 q 843 929 838 954 q 808 960 829 951 q 767 972 788 969 q 724 972 747 975 q 683 951 701 968 m 97 757 q 48 799 69 769 q 28 858 26 828 q 53 915 29 889 q 107 950 78 942 q 73 906 83 932 q 61 856 63 881 q 67 805 60 832 q 97 757 75 778 m 843 907 q 874 847 865 885 q 869 781 883 810 q 821 735 856 751 q 754 722 786 719 q 807 751 786 731 q 839 796 828 772 q 853 849 850 819 q 843 907 857 878 m 97 469 q 30 522 58 483 q 1 603 1 561 q 30 683 1 644 q 97 735 58 721 q 50 672 65 708 q 35 603 35 636 q 50 533 35 569 q 97 469 65 496 m 456 593 l 457 599 q 433 593 444 593 q 462 618 453 601 q 475 651 471 635 q 482 685 481 667 q 472 722 483 704 q 499 691 488 711 q 508 653 510 671 q 540 661 525 661 l 542 661 q 494 722 507 686 q 551 681 518 693 q 613 668 583 668 q 676 681 643 668 q 732 722 708 693 q 685 661 719 688 q 613 635 650 635 q 596 636 604 635 q 625 593 617 617 q 585 621 608 614 q 540 628 561 628 q 517 626 529 628 q 493 619 506 624 q 461 600 481 607 q 456 593 458 597 m 647 593 q 703 620 669 613 q 764 614 738 628 q 803 567 790 600 q 813 506 817 535 q 788 554 807 535 q 749 583 769 574 q 701 599 728 594 q 647 593 675 604 m 813 483 q 822 435 822 463 q 807 390 822 407 q 763 372 790 374 q 714 379 735 369 q 753 389 736 378 q 782 413 769 400 q 805 444 794 426 q 813 483 815 461 m 97 215 q 37 261 63 228 q 11 331 11 294 q 37 401 11 368 q 97 447 63 435 q 57 392 69 424 q 44 331 44 360 q 57 270 44 301 q 97 215 69 239 m 389 282 q 401 299 394 290 q 389 304 394 300 q 408 306 399 303 q 440 325 424 318 q 444 328 442 325 q 466 349 456 338 q 476 379 476 361 q 481 329 486 354 q 522 299 504 324 q 544 250 540 275 q 512 282 532 272 q 472 296 492 292 q 461 299 467 297 q 438 292 451 293 q 413 294 425 292 q 389 282 400 290 m 692 379 q 653 327 681 350 q 594 304 625 304 q 538 327 565 304 q 499 379 510 350 q 544 347 518 356 q 594 338 571 338 q 646 347 619 338 q 692 379 672 356 m 18 -36 q -70 28 -36 -21 q -108 133 -104 78 q -85 244 -112 190 q -7 319 -58 297 q -72 230 -47 281 q -94 135 -97 179 q -59 42 -92 89 q 18 -36 -26 -4 m 671 250 q 721 290 689 275 q 782 296 753 304 q 831 260 811 289 q 854 201 851 231 q 819 243 842 228 q 774 264 796 258 q 723 269 750 271 q 671 250 696 267 m 947 283 q 1020 215 994 264 q 1043 115 1046 167 q 1008 18 1039 64 q 928 -42 978 -28 q 998 32 969 -11 q 1029 115 1026 75 q 1008 203 1031 157 q 947 283 985 249 m 136 21 q 82 44 108 25 q 49 92 56 64 q 58 148 43 118 q 97 193 74 178 q 78 146 81 171 q 82 99 76 121 q 99 56 86 78 q 136 21 111 33 m 854 179 q 881 125 874 158 q 875 67 888 92 q 831 29 863 42 q 771 21 799 17 q 817 44 799 26 q 846 83 835 63 q 860 128 856 103 q 854 179 865 153 m 363 21 q 322 -33 351 -10 q 260 -57 293 -57 q 199 -33 228 -57 q 158 21 169 -10 q 207 -14 179 -4 q 260 -24 235 -24 q 314 -14 286 -24 q 363 21 342 -4 m 556 21 q 522 -26 547 -4 q 471 -47 497 -47 q 419 -26 443 -47 q 385 21 394 -4 q 425 -7 401 0 q 471 -14 449 -14 q 515 -7 492 -14 q 556 21 539 0 m 749 21 q 715 -26 740 -4 q 664 -47 690 -47 q 612 -26 636 -47 q 578 21 588 -4 q 619 -7 596 0 q 664 -14 642 -14 q 708 -7 685 -14 q 749 21 732 0 m 385 -83 q 315 -158 364 -132 q 214 -182 265 -185 q 115 -148 161 -179 q 53 -67 68 -117 q 128 -137 85 -108 q 214 -168 172 -165 q 302 -146 256 -169 q 385 -83 349 -122 m 254 1269 q 287 1360 254 1319 q 365 1418 319 1401 q 464 1425 413 1435 q 547 1378 515 1415 q 456 1410 504 1403 q 371 1406 408 1418 q 302 1353 333 1392 q 254 1269 271 1315 m 369 1274 q 419 1319 386 1301 q 485 1331 453 1336 q 540 1296 515 1325 q 569 1235 564 1267 q 528 1278 554 1263 q 478 1297 503 1293 q 424 1299 453 1303 q 369 1274 394 1294 m 386 1063 q 328 1094 356 1069 q 297 1149 301 1118 q 312 1210 293 1179 q 358 1257 331 1242 q 332 1206 338 1233 q 331 1154 326 1178 q 347 1104 333 1129 q 386 1063 360 1079 m 674 1229 q 713 1147 707 1197 q 701 1054 719 1097 q 641 984 682 1013 q 553 958 600 956 q 635 999 597 971 q 688 1060 672 1026 q 699 1141 703 1094 q 674 1229 694 1188 m 569 1213 q 584 1149 585 1186 q 564 1089 583 1113 q 507 1058 543 1065 q 442 1063 471 1051 q 497 1077 472 1063 q 538 1110 522 1092 q 565 1156 554 1129 q 569 1213 575 1182 z "},"È":{"ha":926,"x_min":-112,"x_max":1046,"o":"m -7 874 q 0 969 -21 921 q 61 1046 21 1018 q 153 1079 101 1075 q 246 1056 206 1083 q 150 1063 199 1068 q 69 1035 101 1058 q 17 967 38 1013 q -7 874 -3 922 m 799 1056 q 888 1041 844 1064 q 954 978 931 1018 q 977 890 978 939 q 947 804 976 840 q 962 893 963 847 q 943 971 961 939 q 884 1026 924 1003 q 799 1056 844 1049 m 131 951 q 184 1020 144 992 q 265 1049 224 1049 q 347 1020 308 1049 q 401 951 386 992 q 337 1000 374 985 q 265 1015 300 1015 q 195 1000 232 1015 q 131 951 158 985 m 424 951 q 470 1013 436 986 q 542 1039 504 1039 q 613 1013 579 1039 q 661 951 647 986 q 604 993 636 981 q 542 1006 572 1006 q 480 993 513 1006 q 424 951 447 981 m 683 951 q 721 991 694 974 q 772 1006 747 1008 q 817 978 797 1001 q 843 929 838 954 q 808 960 829 951 q 767 972 788 969 q 724 972 747 975 q 683 951 701 968 m 97 757 q 48 799 69 769 q 28 858 26 828 q 53 915 29 889 q 107 950 78 942 q 73 906 83 932 q 61 856 63 881 q 67 805 60 832 q 97 757 75 778 m 843 907 q 874 847 865 885 q 869 781 883 810 q 821 735 856 751 q 754 722 786 719 q 807 751 786 731 q 839 796 828 772 q 853 849 850 819 q 843 907 857 878 m 97 469 q 30 522 58 483 q 1 603 1 561 q 30 683 1 644 q 97 735 58 721 q 50 672 65 708 q 35 603 35 636 q 50 533 35 569 q 97 469 65 496 m 456 593 l 457 599 q 433 593 444 593 q 462 618 453 601 q 475 651 471 635 q 482 685 481 667 q 472 722 483 704 q 499 691 488 711 q 508 653 510 671 q 540 661 525 661 l 542 661 q 494 722 507 686 q 551 681 518 693 q 613 668 583 668 q 676 681 643 668 q 732 722 708 693 q 685 661 719 688 q 613 635 650 635 q 596 636 604 635 q 625 593 617 617 q 585 621 608 614 q 540 628 561 628 q 517 626 529 628 q 493 619 506 624 q 461 600 481 607 q 456 593 458 597 m 647 593 q 703 620 669 613 q 764 614 738 628 q 803 567 790 600 q 813 506 817 535 q 788 554 807 535 q 749 583 769 574 q 701 599 728 594 q 647 593 675 604 m 813 483 q 822 435 822 463 q 807 390 822 407 q 763 372 790 374 q 714 379 735 369 q 753 389 736 378 q 782 413 769 400 q 805 444 794 426 q 813 483 815 461 m 97 215 q 37 261 63 228 q 11 331 11 294 q 37 401 11 368 q 97 447 63 435 q 57 392 69 424 q 44 331 44 360 q 57 270 44 301 q 97 215 69 239 m 389 282 q 401 299 394 290 q 389 304 394 300 q 408 306 399 303 q 440 325 424 318 q 444 328 442 325 q 466 349 456 338 q 476 379 476 361 q 481 329 486 354 q 522 299 504 324 q 544 250 540 275 q 512 282 532 272 q 472 296 492 292 q 461 299 467 297 q 438 292 451 293 q 413 294 425 292 q 389 282 400 290 m 692 379 q 653 327 681 350 q 594 304 625 304 q 538 327 565 304 q 499 379 510 350 q 544 347 518 356 q 594 338 571 338 q 646 347 619 338 q 692 379 672 356 m 18 -36 q -70 28 -36 -21 q -108 133 -104 78 q -85 244 -112 190 q -7 319 -58 297 q -72 230 -47 281 q -94 135 -97 179 q -59 42 -92 89 q 18 -36 -26 -4 m 671 250 q 721 290 689 275 q 782 296 753 304 q 831 260 811 289 q 854 201 851 231 q 819 243 842 228 q 774 264 796 258 q 723 269 750 271 q 671 250 696 267 m 947 283 q 1020 215 994 264 q 1043 115 1046 167 q 1008 18 1039 64 q 928 -42 978 -28 q 998 32 969 -11 q 1029 115 1026 75 q 1008 203 1031 157 q 947 283 985 249 m 136 21 q 82 44 108 25 q 49 92 56 64 q 58 148 43 118 q 97 193 74 178 q 78 146 81 171 q 82 99 76 121 q 99 56 86 78 q 136 21 111 33 m 854 179 q 881 125 874 158 q 875 67 888 92 q 831 29 863 42 q 771 21 799 17 q 817 44 799 26 q 846 83 835 63 q 860 128 856 103 q 854 179 865 153 m 363 21 q 322 -33 351 -10 q 260 -57 293 -57 q 199 -33 228 -57 q 158 21 169 -10 q 207 -14 179 -4 q 260 -24 235 -24 q 314 -14 286 -24 q 363 21 342 -4 m 556 21 q 522 -26 547 -4 q 471 -47 497 -47 q 419 -26 443 -47 q 385 21 394 -4 q 425 -7 401 0 q 471 -14 449 -14 q 515 -7 492 -14 q 556 21 539 0 m 749 21 q 715 -26 740 -4 q 664 -47 690 -47 q 612 -26 636 -47 q 578 21 588 -4 q 619 -7 596 0 q 664 -14 642 -14 q 708 -7 685 -14 q 749 21 732 0 m 385 -83 q 315 -158 364 -132 q 214 -182 265 -185 q 115 -148 161 -179 q 53 -67 68 -117 q 128 -137 85 -108 q 214 -168 172 -165 q 302 -146 256 -169 q 385 -83 349 -122 m 154 1101 q 82 1127 115 1101 q 36 1189 49 1153 q 31 1266 22 1225 q 68 1332 39 1307 q 44 1260 50 1297 q 49 1193 38 1222 q 89 1140 60 1164 q 154 1101 118 1115 m 151 1239 q 191 1300 161 1272 q 256 1331 221 1328 q 324 1311 290 1333 q 372 1257 357 1289 q 317 1291 347 1282 q 258 1297 286 1300 q 201 1281 231 1294 q 151 1239 172 1267 m 394 1257 q 451 1272 418 1271 q 507 1254 485 1272 q 533 1203 528 1236 q 529 1144 539 1171 q 515 1193 529 1172 q 485 1228 501 1214 q 445 1252 468 1243 q 394 1257 422 1261 m 563 1268 q 649 1234 610 1267 q 704 1157 689 1201 q 708 1062 719 1111 q 660 982 697 1013 q 694 1069 685 1024 q 690 1151 703 1115 q 642 1219 678 1188 q 563 1268 607 1250 m 304 1114 q 247 1098 281 1099 q 193 1115 214 1097 q 165 1165 171 1132 q 168 1225 160 1199 q 183 1176 169 1197 q 214 1140 197 1154 q 254 1117 231 1126 q 304 1114 278 1108 m 543 1128 q 553 1097 550 1115 q 547 1067 556 1078 q 519 1058 538 1057 q 488 1063 500 1058 q 508 1072 500 1063 q 522 1089 515 1081 q 538 1106 529 1097 q 543 1128 546 1114 m 488 1063 q 444 1025 472 1040 q 390 1015 415 1010 q 344 1047 364 1021 q 322 1100 325 1072 q 356 1064 335 1075 q 397 1047 376 1053 q 442 1044 418 1043 q 488 1063 465 1046 z "},"Ē":{"ha":926,"x_min":-112,"x_max":1046,"o":"m -7 874 q 0 969 -21 921 q 61 1046 21 1018 q 153 1079 101 1075 q 246 1056 206 1083 q 150 1063 199 1068 q 69 1035 101 1058 q 17 967 38 1013 q -7 874 -3 922 m 799 1056 q 888 1041 844 1064 q 954 978 931 1018 q 977 890 978 939 q 947 804 976 840 q 962 893 963 847 q 943 971 961 939 q 884 1026 924 1003 q 799 1056 844 1049 m 131 951 q 184 1020 144 992 q 265 1049 224 1049 q 347 1020 308 1049 q 401 951 386 992 q 337 1000 374 985 q 265 1015 300 1015 q 195 1000 232 1015 q 131 951 158 985 m 424 951 q 470 1013 436 986 q 542 1039 504 1039 q 613 1013 579 1039 q 661 951 647 986 q 604 993 636 981 q 542 1006 572 1006 q 480 993 513 1006 q 424 951 447 981 m 683 951 q 721 991 694 974 q 772 1006 747 1008 q 817 978 797 1001 q 843 929 838 954 q 808 960 829 951 q 767 972 788 969 q 724 972 747 975 q 683 951 701 968 m 97 757 q 48 799 69 769 q 28 858 26 828 q 53 915 29 889 q 107 950 78 942 q 73 906 83 932 q 61 856 63 881 q 67 805 60 832 q 97 757 75 778 m 843 907 q 874 847 865 885 q 869 781 883 810 q 821 735 856 751 q 754 722 786 719 q 807 751 786 731 q 839 796 828 772 q 853 849 850 819 q 843 907 857 878 m 97 469 q 30 522 58 483 q 1 603 1 561 q 30 683 1 644 q 97 735 58 721 q 50 672 65 708 q 35 603 35 636 q 50 533 35 569 q 97 469 65 496 m 456 593 l 457 599 q 433 593 444 593 q 462 618 453 601 q 475 651 471 635 q 482 685 481 667 q 472 722 483 704 q 499 691 488 711 q 508 653 510 671 q 540 661 525 661 l 542 661 q 494 722 507 686 q 551 681 518 693 q 613 668 583 668 q 676 681 643 668 q 732 722 708 693 q 685 661 719 688 q 613 635 650 635 q 596 636 604 635 q 625 593 617 617 q 585 621 608 614 q 540 628 561 628 q 517 626 529 628 q 493 619 506 624 q 461 600 481 607 q 456 593 458 597 m 647 593 q 703 620 669 613 q 764 614 738 628 q 803 567 790 600 q 813 506 817 535 q 788 554 807 535 q 749 583 769 574 q 701 599 728 594 q 647 593 675 604 m 813 483 q 822 435 822 463 q 807 390 822 407 q 763 372 790 374 q 714 379 735 369 q 753 389 736 378 q 782 413 769 400 q 805 444 794 426 q 813 483 815 461 m 97 215 q 37 261 63 228 q 11 331 11 294 q 37 401 11 368 q 97 447 63 435 q 57 392 69 424 q 44 331 44 360 q 57 270 44 301 q 97 215 69 239 m 389 282 q 401 299 394 290 q 389 304 394 300 q 408 306 399 303 q 440 325 424 318 q 444 328 442 325 q 466 349 456 338 q 476 379 476 361 q 481 329 486 354 q 522 299 504 324 q 544 250 540 275 q 512 282 532 272 q 472 296 492 292 q 461 299 467 297 q 438 292 451 293 q 413 294 425 292 q 389 282 400 290 m 692 379 q 653 327 681 350 q 594 304 625 304 q 538 327 565 304 q 499 379 510 350 q 544 347 518 356 q 594 338 571 338 q 646 347 619 338 q 692 379 672 356 m 18 -36 q -70 28 -36 -21 q -108 133 -104 78 q -85 244 -112 190 q -7 319 -58 297 q -72 230 -47 281 q -94 135 -97 179 q -59 42 -92 89 q 18 -36 -26 -4 m 671 250 q 721 290 689 275 q 782 296 753 304 q 831 260 811 289 q 854 201 851 231 q 819 243 842 228 q 774 264 796 258 q 723 269 750 271 q 671 250 696 267 m 947 283 q 1020 215 994 264 q 1043 115 1046 167 q 1008 18 1039 64 q 928 -42 978 -28 q 998 32 969 -11 q 1029 115 1026 75 q 1008 203 1031 157 q 947 283 985 249 m 136 21 q 82 44 108 25 q 49 92 56 64 q 58 148 43 118 q 97 193 74 178 q 78 146 81 171 q 82 99 76 121 q 99 56 86 78 q 136 21 111 33 m 854 179 q 881 125 874 158 q 875 67 888 92 q 831 29 863 42 q 771 21 799 17 q 817 44 799 26 q 846 83 835 63 q 860 128 856 103 q 854 179 865 153 m 363 21 q 322 -33 351 -10 q 260 -57 293 -57 q 199 -33 228 -57 q 158 21 169 -10 q 207 -14 179 -4 q 260 -24 235 -24 q 314 -14 286 -24 q 363 21 342 -4 m 556 21 q 522 -26 547 -4 q 471 -47 497 -47 q 419 -26 443 -47 q 385 21 394 -4 q 425 -7 401 0 q 471 -14 449 -14 q 515 -7 492 -14 q 556 21 539 0 m 749 21 q 715 -26 740 -4 q 664 -47 690 -47 q 612 -26 636 -47 q 578 21 588 -4 q 619 -7 596 0 q 664 -14 642 -14 q 708 -7 685 -14 q 749 21 732 0 m 385 -83 q 315 -158 364 -132 q 214 -182 265 -185 q 115 -148 161 -179 q 53 -67 68 -117 q 128 -137 85 -108 q 214 -168 172 -165 q 302 -146 256 -169 q 385 -83 349 -122 m 157 1325 q 226 1410 175 1378 q 333 1443 278 1442 q 442 1415 390 1444 q 515 1333 494 1386 q 428 1403 478 1375 q 335 1429 379 1431 q 241 1399 289 1428 q 157 1325 193 1369 m 89 1051 q 36 1117 51 1074 q 29 1201 21 1160 q 69 1278 38 1244 q 143 1317 100 1311 q 77 1265 106 1297 q 43 1199 49 1233 q 49 1125 36 1165 q 89 1051 61 1085 m 400 1229 q 435 1277 410 1256 q 488 1299 460 1299 q 541 1277 515 1299 q 576 1229 567 1256 q 534 1258 558 1250 q 488 1265 510 1265 q 442 1258 465 1265 q 400 1229 418 1250 m 240 1229 q 267 1269 247 1250 q 308 1288 288 1288 q 351 1269 331 1288 q 378 1229 371 1250 q 345 1250 364 1246 q 308 1254 326 1254 q 273 1250 292 1254 q 240 1229 254 1246 m 599 1229 q 650 1249 619 1244 q 703 1240 681 1254 q 733 1196 725 1226 q 736 1140 742 1165 q 718 1183 733 1165 q 685 1213 703 1201 q 645 1230 668 1224 q 599 1229 622 1236 m 190 1079 q 158 1122 171 1094 q 154 1175 146 1150 q 189 1213 163 1199 q 240 1229 215 1228 q 204 1201 217 1219 q 186 1164 192 1183 q 178 1122 179 1144 q 190 1079 178 1100 m 736 1118 q 722 1066 736 1093 q 685 1031 707 1039 q 632 1032 661 1021 q 588 1063 603 1043 q 631 1052 608 1050 q 672 1061 654 1054 q 710 1081 692 1068 q 736 1118 728 1094 m 372 1063 q 338 1016 363 1038 q 288 994 314 994 q 235 1016 260 994 q 201 1063 211 1038 q 242 1035 218 1042 q 288 1028 265 1028 q 332 1035 308 1028 q 372 1063 356 1042 m 565 1063 q 531 1016 556 1038 q 479 994 507 994 q 428 1016 453 994 q 394 1063 404 1038 q 435 1035 411 1042 q 479 1028 458 1028 q 524 1035 501 1028 q 565 1063 547 1042 m 838 1050 q 813 975 839 1010 q 749 926 786 940 q 667 919 710 911 q 599 958 625 928 q 673 933 633 939 q 743 939 713 928 q 799 981 774 950 q 838 1050 825 1011 z "},"Ę":{"ha":926,"x_min":-107,"x_max":1050,"o":"m -7 942 q 31 1040 -6 996 q 119 1103 68 1085 q 227 1109 171 1121 q 318 1056 283 1097 q 219 1094 272 1083 q 124 1090 165 1104 q 48 1034 83 1075 q -7 942 13 993 m 472 951 q 519 1012 485 986 q 589 1038 553 1038 q 659 1012 625 1038 q 706 951 693 986 q 650 992 682 979 q 589 1004 618 1004 q 528 992 560 1004 q 472 951 496 979 m 893 1036 q 981 981 944 1025 q 1025 883 1017 936 q 1010 778 1032 831 q 940 699 988 725 q 997 789 976 739 q 1011 881 1017 839 q 971 965 1004 924 q 893 1036 938 1007 m 114 951 q 150 1000 124 978 q 206 1022 176 1022 q 260 1000 233 1022 q 296 951 286 978 q 253 981 278 974 q 206 989 228 989 q 157 981 182 989 q 114 951 132 974 m 296 951 q 326 994 304 974 q 374 1014 349 1014 q 420 994 397 1014 q 451 951 443 974 q 414 975 435 969 q 374 981 393 981 q 333 975 354 981 q 296 951 313 969 m 726 951 q 790 953 756 961 q 842 924 824 946 q 860 865 861 900 q 843 804 858 829 q 840 858 849 833 q 817 903 831 883 q 779 935 801 921 q 726 951 757 950 m 97 735 q 44 775 68 746 q 21 835 21 804 q 44 895 21 867 q 97 935 68 924 q 64 887 74 914 q 54 835 54 860 q 64 783 54 810 q 97 735 74 756 m 843 782 q 828 728 843 756 q 789 690 814 700 q 735 692 765 681 q 688 722 706 703 q 735 712 711 710 q 778 721 758 714 q 816 743 797 729 q 843 782 835 757 m 465 593 q 471 604 468 599 q 444 593 457 596 q 467 622 461 604 q 475 654 472 639 q 476 689 476 671 q 461 722 475 707 q 494 692 479 713 q 508 653 510 672 q 526 667 517 661 q 483 722 494 689 q 522 694 500 703 q 564 685 543 686 q 600 690 582 690 q 615 690 608 690 q 642 702 629 694 q 665 722 656 710 q 640 683 658 701 q 698 648 672 672 q 735 593 724 624 q 672 641 708 625 q 604 657 635 657 q 575 651 589 651 q 561 653 568 651 q 510 631 535 646 q 465 593 486 617 m 97 464 q 33 514 60 478 q 6 589 6 550 q 33 664 6 628 q 97 713 60 700 q 53 653 67 688 q 39 589 39 619 q 53 523 39 557 q 97 464 67 489 m 757 593 q 804 584 779 594 q 838 553 829 574 q 838 508 847 533 q 813 467 828 482 q 818 505 822 486 q 807 540 814 524 q 789 572 800 556 q 757 593 778 588 m 813 444 q 810 400 817 425 q 786 365 803 375 q 743 360 768 354 q 703 379 718 367 q 738 378 721 372 q 768 393 754 385 q 796 413 782 401 q 813 444 810 425 m 97 260 q 49 296 71 269 q 26 350 26 322 q 49 406 26 379 q 97 442 71 432 q 67 399 75 424 q 60 350 60 374 q 67 303 60 328 q 97 260 75 278 m -7 76 q -80 138 -53 93 q -107 232 -107 182 q -80 325 -107 281 q -7 386 -53 369 q -69 313 -44 356 q -93 232 -93 271 q -69 150 -93 192 q -7 76 -44 108 m 561 250 q 618 317 576 292 q 597 313 608 313 q 548 333 572 313 q 515 379 524 354 q 554 353 532 360 q 597 346 576 346 q 641 353 618 346 q 681 379 664 360 q 635 325 668 344 q 668 332 651 332 q 734 307 703 332 q 776 250 765 282 q 725 288 754 276 q 668 299 696 299 q 612 288 642 299 q 561 250 582 276 m 389 272 q 400 288 393 281 q 389 293 394 290 q 404 292 397 292 q 431 313 415 304 q 463 322 447 321 q 483 347 474 333 q 493 379 493 360 q 493 315 506 347 q 522 287 510 306 q 539 250 535 268 q 508 277 526 269 q 472 289 490 285 q 442 280 460 281 q 410 285 425 279 q 389 272 399 281 m 799 250 q 859 228 829 249 q 899 179 889 208 q 893 117 907 150 q 854 65 879 83 q 872 118 871 90 q 867 169 874 146 q 843 215 860 193 q 799 250 826 238 m 97 60 q 49 95 71 69 q 28 149 28 121 q 49 202 28 176 q 97 238 71 228 q 69 195 76 219 q 61 149 61 171 q 69 102 61 126 q 97 60 76 78 m 958 179 q 1026 117 1001 161 q 1047 26 1050 72 q 1017 -62 1046 -21 q 944 -118 989 -104 q 1007 -50 982 -89 q 1033 26 1032 -11 q 1014 106 1035 64 q 958 179 993 147 m 854 43 q 860 -11 864 19 q 836 -58 856 -42 q 787 -75 818 -75 q 733 -62 756 -75 q 778 -57 758 -67 q 814 -33 799 -47 q 842 -1 829 -19 q 854 43 854 18 m 301 21 q 257 -30 289 -8 q 193 -49 225 -51 q 133 -19 161 -46 q 97 38 106 7 q 142 -1 115 11 q 196 -15 169 -14 q 251 -10 222 -18 q 301 21 279 -3 m 624 -182 q 564 -149 592 -175 q 532 -92 536 -124 q 547 -27 528 -60 q 594 21 567 6 q 567 -32 574 -3 q 565 -87 561 -61 q 582 -139 568 -112 q 624 -182 596 -165 m 572 21 q 524 -43 560 -15 q 449 -71 488 -71 q 373 -43 408 -71 q 324 21 338 -15 q 383 -24 349 -10 q 449 -37 417 -37 q 513 -24 479 -37 q 572 21 547 -10 m 622 -335 q 528 -326 576 -347 q 453 -265 481 -306 q 422 -175 425 -226 q 446 -83 418 -124 q 438 -178 433 -131 q 465 -258 443 -226 q 531 -310 488 -289 q 622 -335 575 -331 m 735 -86 q 808 -94 769 -79 q 865 -140 847 -110 q 878 -212 883 -171 q 850 -281 872 -253 q 856 -215 861 -247 q 836 -157 850 -182 q 795 -112 821 -133 q 735 -86 769 -92 m 828 -285 q 768 -319 806 -308 q 700 -317 731 -329 q 651 -269 669 -303 q 635 -201 633 -235 q 667 -254 644 -233 q 713 -286 689 -275 q 768 -298 738 -296 q 828 -285 799 -300 z "},"F":{"ha":897,"x_min":-108,"x_max":1031,"o":"m 319 1056 q 375 1122 335 1097 q 458 1146 415 1146 q 542 1122 503 1146 q 597 1056 582 1097 q 531 1110 569 1089 q 458 1132 493 1132 q 385 1110 424 1132 q 319 1056 347 1089 m 219 951 q 267 1015 232 988 q 342 1042 303 1042 q 416 1015 381 1042 q 464 951 451 988 q 406 994 439 981 q 342 1008 372 1008 q 278 994 311 1008 q 219 951 244 981 m 486 951 q 526 1004 497 981 q 586 1028 554 1028 q 647 1004 618 1028 q 686 951 675 981 q 638 985 665 975 q 586 994 611 994 q 534 985 561 994 q 486 951 507 975 m 708 951 q 763 963 732 964 q 814 944 794 963 q 837 896 833 928 q 831 840 840 864 q 819 886 832 867 q 792 921 807 906 q 756 945 776 935 q 708 951 735 956 m 97 740 q 45 779 68 751 q 22 838 22 807 q 45 896 22 868 q 97 935 68 924 q 65 889 74 915 q 56 838 56 863 q 65 788 56 814 q 97 740 74 761 m 831 818 q 838 764 840 794 q 818 715 836 733 q 769 697 800 699 q 715 707 738 696 q 760 715 740 704 q 794 740 781 726 q 821 774 810 754 q 831 818 832 793 m 935 779 q 1006 708 982 757 q 1026 607 1031 658 q 989 510 1021 556 q 907 451 957 465 q 978 524 949 482 q 1013 608 1008 567 q 993 696 1015 649 q 935 779 971 743 m -7 464 q -78 524 -51 481 q -106 617 -106 568 q -78 708 -106 664 q -7 768 -51 753 q -67 696 -43 738 q -92 617 -92 654 q -67 536 -92 578 q -7 464 -43 494 m 97 447 q 28 501 57 463 q -1 583 -1 540 q 28 665 -1 626 q 97 718 57 704 q 48 654 64 692 q 32 583 32 617 q 48 512 32 549 q 97 447 64 475 m 467 563 q 476 582 471 572 q 446 563 463 568 q 467 597 463 578 q 472 635 472 617 q 467 672 472 653 q 446 707 463 692 q 476 688 461 701 q 467 707 471 697 q 521 667 490 679 q 581 656 551 656 q 639 667 608 656 q 693 707 669 679 q 658 656 683 679 q 604 626 633 633 q 660 563 644 604 q 614 595 640 586 q 564 604 588 604 q 513 595 539 604 q 467 563 486 586 m 506 635 q 497 607 506 621 q 538 632 517 625 q 499 660 517 642 q 506 635 506 647 m 682 563 q 740 570 707 574 q 793 547 774 567 q 813 493 811 526 q 803 436 815 460 q 794 485 806 463 q 768 524 783 508 q 731 552 753 540 q 682 563 710 564 m 97 204 q 39 247 64 215 q 14 314 14 279 q 39 382 14 350 q 97 425 64 414 q 59 372 71 403 q 47 314 47 342 q 59 256 47 286 q 97 204 71 226 m 803 414 q 814 371 813 396 q 803 331 815 346 q 764 314 789 315 q 721 319 739 313 q 753 330 740 319 q 778 353 767 340 q 797 379 788 364 q 803 414 806 394 m -7 82 q -81 144 -54 99 q -108 240 -108 190 q -81 335 -108 289 q -7 397 -54 381 q -69 322 -44 365 q -94 240 -94 279 q -69 157 -94 200 q -7 82 -44 114 m 699 319 q 656 263 686 288 q 592 239 625 239 q 526 263 557 239 q 483 319 496 288 q 535 283 506 293 q 592 272 564 272 q 647 283 618 272 q 699 319 676 293 m 461 319 q 501 263 488 299 q 504 194 515 226 q 462 142 494 164 q 396 121 429 121 q 445 156 426 132 q 472 206 464 181 q 480 261 481 231 q 461 319 479 292 m 533 215 q 581 137 569 186 q 578 43 592 88 q 524 -34 563 -1 q 439 -68 486 -67 q 518 -19 483 -50 q 564 49 553 13 q 567 129 576 83 q 533 215 557 175 m 214 21 q 148 22 183 13 q 93 57 113 32 q 77 119 75 82 q 97 182 79 156 q 98 124 90 151 q 121 76 106 96 q 158 40 135 56 q 214 21 182 24 m 396 99 q 385 40 399 71 q 346 -4 371 8 q 288 -7 321 -15 q 236 21 256 1 q 286 13 261 10 q 332 26 311 17 q 370 53 351 36 q 396 99 389 71 z "},"G":{"ha":1046,"x_min":-65,"x_max":1142,"o":"m 40 858 q 51 960 28 910 q 118 1040 75 1011 q 217 1072 161 1069 q 315 1044 272 1075 q 213 1056 265 1060 q 125 1029 160 1053 q 68 958 90 1006 q 40 858 46 911 m 247 908 q 283 985 253 949 q 354 1029 314 1021 q 438 1019 394 1039 q 503 965 481 1000 q 432 997 469 990 q 363 997 394 1004 q 298 967 329 990 q 247 908 267 944 m 536 965 q 594 1017 556 997 q 669 1029 633 1036 q 735 990 707 1022 q 771 921 764 958 q 723 973 753 954 q 664 997 693 992 q 600 996 635 1003 q 536 965 565 989 m 871 989 q 972 986 919 1006 q 1056 926 1024 967 q 1095 831 1088 886 q 1075 732 1103 776 q 1078 833 1085 782 q 1044 918 1071 885 q 971 969 1019 950 q 871 989 922 988 m 792 913 q 844 929 813 926 q 897 917 876 932 q 925 870 918 901 q 924 814 932 839 q 908 859 922 840 q 878 890 894 878 q 838 910 860 903 q 792 913 817 918 m 113 778 q 103 833 101 801 q 122 883 104 865 q 172 906 140 903 q 228 897 204 908 q 182 887 203 899 q 147 861 161 875 q 121 825 132 846 q 113 778 110 804 m 71 567 q 26 613 44 582 q 14 675 8 644 q 46 728 18 704 q 103 757 74 753 q 63 717 76 742 q 46 669 50 693 q 47 617 42 644 q 71 567 51 590 m 963 747 q 967 703 969 729 q 950 665 965 678 q 910 655 935 653 q 868 667 885 657 q 902 672 888 664 q 929 692 917 681 q 951 715 940 701 q 963 747 963 728 m 1075 732 q 1122 696 1103 722 q 1142 639 1140 669 q 1125 582 1142 610 q 1081 543 1108 554 q 1128 639 1129 586 q 1075 732 1126 692 m 457 724 q 488 693 474 713 q 478 732 479 713 q 506 694 488 707 q 544 675 525 682 q 588 667 564 668 q 632 679 611 667 q 588 647 617 660 q 535 643 558 635 q 501 668 517 650 q 515 624 511 647 q 513 578 518 600 q 465 513 501 540 q 390 481 429 485 q 449 526 426 497 q 481 586 472 556 q 484 655 489 618 q 457 724 479 692 m 639 565 q 681 625 651 599 q 653 667 661 644 q 696 636 669 646 q 768 660 732 660 q 824 646 796 660 q 846 667 836 656 q 833 642 842 654 q 899 565 882 614 q 858 600 881 586 q 814 621 836 614 q 783 599 800 607 q 750 592 767 592 q 697 610 724 592 q 639 565 663 594 m 768 626 q 750 625 760 626 q 768 626 760 625 m 921 565 q 977 548 949 565 q 1014 506 1006 531 q 1010 449 1022 479 q 976 401 997 418 q 990 449 990 424 q 982 494 989 474 q 960 535 975 515 q 921 565 946 556 m 561 411 q 530 457 542 428 q 526 510 518 486 q 563 550 536 535 q 617 565 590 565 q 578 538 592 557 q 558 499 565 518 q 550 456 551 479 q 561 411 549 433 m 75 336 q 19 376 43 346 q -7 439 -6 406 q 17 501 -7 471 q 71 544 40 532 q 36 494 46 522 q 26 439 26 465 q 38 385 28 413 q 75 336 49 357 m 390 458 q 452 433 422 456 q 490 379 482 410 q 482 313 497 347 q 440 261 467 279 q 461 317 458 288 q 458 371 464 346 q 435 420 451 396 q 390 458 418 444 m 458 250 q 488 301 465 276 q 538 331 510 326 q 553 331 544 332 q 563 388 547 361 q 569 353 560 368 q 589 325 578 338 q 614 301 600 313 q 649 292 628 290 q 626 286 639 288 q 635 274 632 281 q 618 286 626 281 q 591 288 604 285 q 568 299 578 292 q 542 297 556 300 q 497 284 519 294 q 458 250 474 274 m 976 379 q 1022 311 1007 354 q 1024 232 1036 268 q 974 169 1011 194 q 897 142 936 143 q 958 185 933 157 q 992 242 982 213 q 999 309 1001 272 q 976 379 997 346 m 151 140 q 91 155 122 139 q 47 199 60 171 q 46 259 36 225 q 78 314 56 293 q 67 260 64 288 q 78 211 69 233 q 106 170 88 190 q 151 140 124 150 m 113 32 q 22 53 65 26 q -43 121 -21 79 q -62 213 -65 163 q -25 299 -58 264 q -47 208 -44 256 q -31 128 -49 161 q 26 68 -14 93 q 113 32 67 43 m 881 126 q 864 46 885 86 q 807 -11 843 6 q 726 -19 771 -29 q 653 18 681 -10 q 726 3 689 1 q 792 18 764 6 q 846 60 821 32 q 881 126 871 88 m 385 18 q 314 -17 357 -8 q 236 -10 271 -26 q 183 47 203 7 q 167 124 163 86 q 200 61 176 88 q 251 21 224 35 q 315 5 279 7 q 385 18 350 3 m 928 28 q 900 -60 929 -19 q 828 -118 871 -100 q 735 -129 785 -136 q 653 -87 685 -122 q 741 -115 694 -108 q 822 -106 788 -121 q 885 -54 857 -92 q 928 28 914 -17 m 631 14 q 586 -44 618 -18 q 519 -69 554 -69 q 451 -44 483 -69 q 407 14 419 -18 q 460 -24 429 -12 q 519 -36 490 -36 q 578 -24 547 -36 q 631 14 608 -12 z "}}}
